<svg width="17" height="17" viewBox="0 0 17 17" fill="none" xmlns="http://www.w3.org/2000/svg">
<path d="M1.70558 16.8315C0.861062 16.8315 0.167037 16.1872 0.0883092 15.3633L0.0808716 15.2068V3.29226C0.0808716 2.44774 0.725219 1.75372 1.54911 1.67499L1.70558 1.66755H6.57972C7.42424 1.66755 8.11826 2.3119 8.19699 3.13579L8.20443 3.29226V3.56785L10.575 1.10993C11.1588 0.504248 12.0992 0.449756 12.7488 0.960332L12.8747 1.06999L15.8616 4.02116C16.46 4.61244 16.5028 5.55352 15.9813 6.19956L15.8695 6.32464L13.3667 8.70735L13.6201 8.70797C14.4647 8.70797 15.1587 9.35232 15.2374 10.1762L15.2448 10.3327V15.2068C15.2448 16.0513 14.6005 16.7454 13.7766 16.8241L13.6201 16.8315H1.70558ZM7.12129 9.79111H1.16401V15.2068C1.16401 15.4394 1.31069 15.6378 1.51661 15.7145L1.60823 15.7397L1.70558 15.7484H7.12129V9.79111ZM13.6201 9.79111H8.20443V15.7484H13.6201C13.886 15.7484 14.1071 15.5568 14.153 15.3042L14.1617 15.2068V10.3327C14.1617 10.0668 13.9701 9.84569 13.7175 9.79983L13.6201 9.79111ZM8.20443 6.76853V8.70735H10.1433L8.20443 6.76853ZM6.57972 2.75069H1.70558C1.43972 2.75069 1.21859 2.94227 1.17274 3.19492L1.16401 3.29226V8.70797H7.12129V3.29226C7.12129 3.05963 6.97461 2.86125 6.76869 2.78458L6.67706 2.75942L6.57972 2.75069ZM12.1278 1.85456C11.93 1.66378 11.6371 1.64757 11.4287 1.79757L11.3548 1.8616L8.52131 4.80139C8.34204 4.98738 8.32201 5.26901 8.45965 5.47636L8.52829 5.56018L11.3615 8.39337C11.5434 8.57524 11.8231 8.60111 12.0328 8.46893L12.1179 8.40259L15.1049 5.55753C15.2917 5.36842 15.3109 5.07647 15.1634 4.86628L15.1003 4.79164L12.1278 1.85456Z" fill="#7780A1"/>
</svg>
