<svg width="16" height="16" viewBox="0 0 16 16" fill="none" xmlns="http://www.w3.org/2000/svg">
<path d="M12.1645 5.37316C12.1645 6.27046 11.4371 6.99787 10.5398 6.99787C9.64253 6.99787 8.91513 6.27046 8.91513 5.37316C8.91513 4.47585 9.64253 3.74845 10.5398 3.74845C11.4371 3.74845 12.1645 4.47585 12.1645 5.37316ZM11.0814 5.37316C11.0814 5.07406 10.8389 4.83159 10.5398 4.83159C10.2407 4.83159 9.99827 5.07406 9.99827 5.37316C9.99827 5.67226 10.2407 5.91473 10.5398 5.91473C10.8389 5.91473 11.0814 5.67226 11.0814 5.37316ZM0.25 3.74845C0.25 1.95384 1.70482 0.499023 3.49942 0.499023H12.1645C13.9592 0.499023 15.414 1.95384 15.414 3.74845V12.4136C15.414 14.2082 13.9592 15.663 12.1645 15.663H3.49942C1.70482 15.663 0.25 14.2082 0.25 12.4136V3.74845ZM3.49942 1.58216C2.30302 1.58216 1.33314 2.55204 1.33314 3.74845V12.4136C1.33314 12.8172 1.44352 13.195 1.63574 13.5185L6.69326 8.54896C7.32537 7.92785 8.3386 7.92785 8.97071 8.54896L14.0282 13.5185C14.2205 13.195 14.3308 12.8172 14.3308 12.4136V3.74845C14.3308 2.55204 13.361 1.58216 12.1645 1.58216H3.49942ZM3.49942 14.5799H12.1645C12.5644 14.5799 12.9389 14.4715 13.2604 14.2826L8.21156 9.32154C8.00086 9.11451 7.66311 9.11451 7.45241 9.32154L2.40354 14.2826C2.72504 14.4715 3.09958 14.5799 3.49942 14.5799Z" fill="#7780A1"/>
</svg>
