<svg width="85" height="45" viewBox="0 0 85 45" fill="none" xmlns="http://www.w3.org/2000/svg">
<path fill-rule="evenodd" clip-rule="evenodd" d="M30.9301 29.2874L28.1823 24.7079L25.8619 20.8514L16.0012 26.7738L17.5072 29.2874H30.9301ZM53.7451 29.2874H67.168L49.5731 0L39.7222 5.92247L53.7451 29.2874ZM49.0543 33.877C48.1075 33.2668 46.9981 32.9103 45.7972 32.9103H45.7668C42.4497 32.9306 39.7529 35.6375 39.7529 38.955C39.7529 42.2728 42.4497 44.9794 45.7668 45H45.7972C46.9981 45 48.1075 44.6439 49.0543 44.0333V44.6642H51.8321V29.2877H49.0543V33.877ZM49.0543 39.5862C48.7593 41.1128 47.4055 42.2826 45.7972 42.2826H45.7668C43.9452 42.2624 42.4699 40.7766 42.4699 38.955C42.4699 37.1337 43.9452 35.648 45.7668 35.6375H45.7972C47.4055 35.6375 48.759 36.7979 49.0543 38.3242V39.5862ZM62.1002 33.877C61.1317 33.245 60.0001 32.9091 58.8438 32.9103H58.8127C55.4955 32.9306 52.7991 35.6375 52.7991 38.955C52.7991 42.2728 55.4955 44.9794 58.8127 45H58.8438C60.0447 45 61.1639 44.6439 62.1002 44.0333V44.6642H64.8787V33.2154H62.1002V33.877ZM62.1002 39.5862C61.8052 41.1128 60.4513 42.2826 58.8438 42.2826H58.8127C56.9918 42.2624 55.5161 40.7766 55.5161 38.955C55.5161 37.1337 56.9918 35.648 58.8127 35.6375H58.8438C60.4513 35.6375 61.8048 36.7979 62.1002 38.3242V39.5862ZM74.7596 38.202C74.658 38.1506 74.5152 38.1 74.3521 38.0389C73.7314 37.8253 72.7239 37.5607 71.3195 37.2556C70.0882 36.9805 69.4675 36.6247 69.4675 36.1768C69.4675 35.8613 69.5792 35.6068 69.7929 35.4238C70.0781 35.1795 70.5864 35.0573 71.3195 35.0573C72.0624 35.0573 72.6018 35.2203 72.9173 35.5355C73.1107 35.7289 73.2528 36.0745 73.3446 36.5633H76.2959C76.2959 35.1184 75.7056 34.0805 74.5455 33.4497C74.4844 33.4098 74.4197 33.3758 74.3521 33.3481C73.5478 32.9714 72.4796 32.778 71.1467 32.778C69.5283 32.778 68.3075 33.2057 67.4937 34.0704C66.8427 34.7623 66.5271 35.6068 66.5271 36.6041C66.5271 37.8463 67.1373 38.7413 68.3791 39.3215C68.8472 39.5453 69.9867 39.8609 71.7985 40.2477C73.0095 40.5123 73.6194 40.889 73.6194 41.3673C73.6194 41.6525 73.4979 41.8965 73.2333 42.1203C72.8971 42.4051 72.3881 42.5479 71.7067 42.5479C70.8008 42.5479 70.1598 42.3954 69.7835 42.1004C69.4064 41.8155 69.213 41.3984 69.213 40.8691H66.1197C66.1197 42.2736 66.71 43.3216 67.9004 44.0131C68.8472 44.5525 70.0886 44.8276 71.6257 44.8276C72.6531 44.8276 73.5688 44.6544 74.3525 44.3189C74.5155 44.2477 74.6583 44.1761 74.8109 44.0948C76.0219 43.4235 76.6325 42.3549 76.6325 40.8897C76.6321 39.6877 76.0107 38.7919 74.7596 38.202ZM18.3011 33.877C17.3283 33.2463 16.1938 32.9105 15.0345 32.9103H15.0038C11.6968 32.9306 9 35.6375 9 38.955C9 42.2728 11.6968 44.9794 15.0038 45H15.0345C16.2354 45 17.3546 44.6439 18.3011 44.0333V44.6642H21.0792V33.2154H18.3011V33.877ZM18.3011 39.5862C18.0061 41.1128 16.6523 42.2826 15.0345 42.2826H15.0038C13.1927 42.2624 11.717 40.7766 11.717 38.955C11.717 37.1337 13.1927 35.648 15.0038 35.6375H15.0345C16.6526 35.6375 18.0061 36.7979 18.3011 38.3242V39.5862ZM35.6415 32.0048H38.664V29.3485H35.6415V32.0048ZM35.6415 44.6638H38.664V32.9103H35.6415V44.6638ZM31.4796 33.877C30.5067 33.2462 29.3721 32.9105 28.2127 32.9103H28.1823C24.8648 32.9306 22.168 35.6375 22.168 38.955C22.168 42.2728 24.8645 44.9794 28.1823 45H28.2127C29.3721 45 30.5068 44.6642 31.4796 44.0333V44.6642H34.2577V29.2877H31.4796V33.877ZM31.4796 39.5862C31.1846 41.1128 29.8308 42.2826 28.2127 42.2826H28.1823C26.3607 42.2624 24.8851 40.7766 24.8851 38.955C24.8851 37.1337 26.3607 35.648 28.1823 35.6375H28.2127C29.8308 35.6375 31.1842 36.7979 31.4796 38.3242V39.5862ZM49.0435 29.2874L45.7668 23.8128L37.7176 10.4206L28.1823 16.1602L27.8566 16.3532L28.1823 16.8926L35.6311 29.2874H49.0435Z" fill="#7780A1"/>
</svg>
