<svg width="85" height="45" viewBox="0 0 85 45" fill="none" xmlns="http://www.w3.org/2000/svg">
<path fill-rule="evenodd" clip-rule="evenodd" d="M33.0275 37.7738H31.9601L31.3031 43.3578H31.0568L30.2355 37.7738H28.593L27.8539 43.3578H27.6896L26.8687 37.7738H25.8013L26.7868 45H28.5933L29.4143 39.3336H29.4964L30.2355 45H32.1241L33.0275 37.7738ZM34.6697 45H35.8194V42.2902H38.119V45H39.2684V37.8557H38.1187V40.5655H35.8191V37.8557H34.6694L34.6697 45ZM45.3448 41.1404C45.3448 39.0051 44.3596 37.6911 42.5528 37.6911C40.5818 37.6911 39.7609 39.0051 39.7609 41.1404C39.7609 43.1111 40.4179 45 42.5528 45C44.6057 45 45.3448 43.1111 45.3448 41.1404ZM45.8376 45H49.1223V43.3575H46.987V37.7736H45.8376V45ZM57.0051 37.8557H54.8705L53.3101 45H54.5417L54.788 43.686H57.0873L57.3336 45H58.4837L57.0051 37.8557ZM55.6093 39.4164H56.2666L56.8415 42.5365H54.9526L55.6093 39.4164ZM25.3086 45V43.3575H22.9272V41.9617H25.3086V40.9761H22.9272V39.4164H25.3086V37.7738H21.7775V43.5214L19.8068 37.7738H18V45H19.1498L19.0676 39.3336L21.1205 45H25.3086ZM49.615 45H52.8992V43.3575H50.7645V37.7736H49.615V45ZM62.9176 43.5214L60.865 37.7738H59.0583V45H60.2083L60.1259 39.3336L62.179 45H64.8065C67.1881 45 67.6809 43.7678 67.6809 41.058C67.5984 38.8415 66.9417 37.7738 64.8065 37.7738H62.8357V41.058L62.9176 43.5214ZM64.0676 39.3336H64.8889C66.1205 39.3336 66.695 39.7446 66.695 41.3868V41.3044C66.695 42.9469 66.1202 43.4396 64.8889 43.3575H64.0676V39.3336ZM44.2772 41.1404C44.2772 42.208 44.1953 43.4396 42.5528 43.4396C40.9106 43.4396 40.7464 42.208 40.7464 41.1404C40.7464 40.1549 41.2391 39.3336 42.5528 39.3336C43.8668 39.3336 44.2772 40.1549 44.2772 41.1404ZM27.2793 14.5347C27.2793 14.042 27.6078 13.7135 27.8542 13.9598C30.8104 16.9161 41.7319 24.9638 41.6498 32.0254C41.5676 32.4357 41.2391 32.6821 40.8285 32.6821C32.699 32.1075 26.0474 28.9052 27.2793 14.5347ZM52.571 1.97101C50.2717 0.739129 47.8904 0.164549 45.0163 0C44.4414 0 44.1951 0.410627 44.1132 0.90338C43.8668 4.59873 43.9487 6.65157 43.8668 10.2645C43.7844 10.8394 44.1954 11.5785 44.8524 10.7572C47.8901 7.80103 49.615 6.15882 52.6528 3.2026C53.1458 2.79227 52.9819 2.13526 52.571 1.97101ZM32.8632 1.97101C35.2446 0.739129 37.6259 0.164549 40.5 0C41.0749 0 41.3213 0.410627 41.4034 0.90338C41.6498 4.59873 41.5676 6.65157 41.6498 10.2645C41.7319 10.8394 41.3213 11.5785 40.5821 10.7572C37.5441 7.80103 35.8194 6.15882 32.8635 3.2026C32.2883 2.79227 32.5347 2.13526 32.8632 1.97101ZM54.4598 4.27052C48.7114 9.77204 43.6205 13.4671 43.8668 23.3216C43.8668 23.7319 44.1953 24.1428 44.7699 23.6501C49.5326 18.9692 52.2425 16.4236 57.0873 11.7431C57.8264 11.0039 57.9909 10.3469 57.7446 9.19716C57.2518 7.14432 56.8415 6.24094 55.6093 4.59873C55.2811 4.27052 54.9526 4.10598 54.4598 4.27052ZM31.0568 4.27052C36.8047 9.77204 41.8961 13.4674 41.6498 23.3216C41.6498 23.7319 41.3213 24.1428 40.7464 23.6501C35.9834 18.9689 33.2739 16.4236 28.429 11.7431C27.6899 11.0039 27.5257 10.3469 27.772 9.19716C28.2648 7.14432 28.6754 6.24094 29.907 4.59873C30.2355 4.27052 30.564 4.10598 31.0568 4.27052ZM58.3191 14.5347C58.3191 14.042 58.0728 13.7135 57.7443 13.9598C54.8705 16.9161 43.8665 24.9638 43.9487 32.0254C44.0305 32.4357 44.4414 32.6821 44.8524 32.6821C52.8995 32.1075 59.5507 28.9052 58.3191 14.5347Z" fill="#7780A1"/>
</svg>
