<?xml version="1.0" standalone="no"?>
<!DOCTYPE svg PUBLIC "-//W3C//DTD SVG 1.1//EN" "http://www.w3.org/Graphics/SVG/1.1/DTD/svg11.dtd" >
<svg xmlns="http://www.w3.org/2000/svg" xmlns:xlink="http://www.w3.org/1999/xlink" version="1.1">
<metadata>
Created by FontForge 20170731 at Thu Jun 11 02:05:58 2020
 By Aleksey,,,
Copyright 2019 The Sora Project Authors (https://github.com/sora-xor/sora-font)
</metadata>
<defs>
<font id="Sora-Bold" horiz-adv-x="0" >
  <font-face 
    font-family="Sora"
    font-weight="700"
    font-stretch="normal"
    units-per-em="1000"
    panose-1="0 0 0 0 0 0 0 0 0 0"
    ascent="800"
    descent="-200"
    x-height="548"
    cap-height="730"
    bbox="-144 -306 1271 1198"
    underline-thickness="50"
    underline-position="-175"
    unicode-range="U+000D-FB02"
  />
<missing-glyph horiz-adv-x="867" 
d="M365 248v147h62q37 0 55.5 21.5t18.5 51.5q0 32 -18 52t-50 20t-51 -21.5t-19 -52.5h-104q0 46 20.5 84t60.5 61t96 23q53 0 90.5 -20.5t58 -56t20.5 -80.5v-9q0 -44 -21 -79t-61 -54.5t-97 -20.5l39 38l-2 -104h-98zM361 100v97h106v-97h-106zM86 -51v836h694v-836h-694
zM153 12h561v710h-561v-710z" />
    <glyph glyph-name="fi" unicode="fi" horiz-adv-x="691" 
d="M84 0v559q0 95 53.5 141t158.5 46h54v-120h-61q-27 0 -41.5 -15t-14.5 -42v-569h-149zM20 426v117h328v-117h-328zM456 0v548h160v-548h-160zM391 430v118h225v-118h-225zM518 602q-45 0 -66.5 23.5t-21.5 59.5q0 37 21.5 60.5t66.5 23.5q46 0 67 -23.5t21 -60.5
q0 -36 -21 -59.5t-67 -23.5z" />
    <glyph glyph-name="fl" unicode="fl" horiz-adv-x="683" 
d="M84 0v543q0 95 53.5 141t158.5 46h49v-119h-56q-27 0 -41.5 -15t-14.5 -42v-554h-149zM20 416v117h329v-117h-329zM449 0v730h160v-730h-160zM390 612v118h219v-118h-219z" />
    <glyph glyph-name="f_f" unicode="ff" horiz-adv-x="737" 
d="M84 0v559q0 95 53.5 141t158.5 46h51v-120h-58q-27 0 -41.5 -15t-14.5 -42v-569h-149zM443 0v553q0 95 54 141t159 46h67v-120h-74q-27 0 -42 -15t-15 -42v-563h-149zM20 420v117h711v-117h-711z" />
    <glyph glyph-name="f_f_i" unicode="ffi" horiz-adv-x="1050" 
d="M84 0v563q0 95 53.5 141.5t158.5 46.5h51v-121h-58q-27 0 -41.5 -15t-14.5 -42v-573h-149zM443 0v557q0 95 54 141.5t159 46.5h65v-121h-72q-27 0 -42 -15t-15 -42v-567h-149zM815 0v548h161v-548h-161zM20 426v117h687v-117h-687zM751 430v118h225v-118h-225zM878 602
q-45 0 -66.5 23.5t-21.5 59.5q0 37 21.5 60.5t66.5 23.5t66 -23.5t21 -60.5q0 -36 -21 -59.5t-66 -23.5z" />
    <glyph glyph-name="f_f_j" unicode="ffj" horiz-adv-x="1051" 
d="M84 0v563q0 95 53.5 141.5t158.5 46.5h51v-121h-58q-27 0 -41.5 -15t-14.5 -42v-573h-149zM443 0v557q0 95 54 141.5t159 46.5h53v-121h-60q-27 0 -42 -15t-15 -42v-567h-149zM718 -203v136h34q36 0 55.5 19.5t19.5 55.5v540h155v-535q0 -79 -25 -126.5t-77 -68.5
t-135 -21h-27zM20 426v117h696v-117h-696zM759 430v118h223v-118h-223zM884 604q-45 0 -66.5 23.5t-21.5 59.5q0 37 21.5 60.5t66.5 23.5t66 -23.5t21 -60.5q0 -36 -21 -59.5t-66 -23.5z" />
    <glyph glyph-name="f_f_l" unicode="ffl" horiz-adv-x="1044" 
d="M84 0v559q0 95 53.5 141t158.5 46h51v-120h-58q-27 0 -41.5 -15t-14.5 -42v-569h-149zM443 0v543q0 95 54 141t159 46h49v-119h-56q-27 0 -42 -15t-15 -42v-554h-149zM809 0v730h161v-730h-161zM20 420v117h689v-117h-689zM749 612v118h221v-118h-221z" />
    <glyph glyph-name="f_j" unicode="fj" horiz-adv-x="691" 
d="M84 0v559q0 95 53.5 141t158.5 46h53v-120h-60q-27 0 -41.5 -15t-14.5 -42v-569h-149zM357 -203v136h34q37 0 56.5 19.5t19.5 55.5v540h155v-535q0 -79 -25 -126.5t-77 -68.5t-135 -21h-28zM20 426v117h336v-117h-336zM400 430v118h222v-118h-222zM524 604
q-45 0 -66.5 23.5t-21.5 59.5q0 37 21.5 60.5t66.5 23.5q46 0 67 -23.5t21 -60.5q0 -36 -21 -59.5t-67 -23.5z" />
    <glyph glyph-name=".notdef" horiz-adv-x="867" 
d="M365 248v147h62q37 0 55.5 21.5t18.5 51.5q0 32 -18 52t-50 20t-51 -21.5t-19 -52.5h-104q0 46 20.5 84t60.5 61t96 23q53 0 90.5 -20.5t58 -56t20.5 -80.5v-9q0 -44 -21 -79t-61 -54.5t-97 -20.5l39 38l-2 -104h-98zM361 100v97h106v-97h-106zM86 -51v836h694v-836h-694
zM153 12h561v710h-561v-710z" />
    <glyph glyph-name=".null" 
 />
    <glyph glyph-name="nonmarkingreturn" horiz-adv-x="333" 
 />
    <glyph glyph-name="NULL" horiz-adv-x="600" 
 />
    <glyph glyph-name="NULL" horiz-adv-x="600" 
 />
    <glyph glyph-name="CR" unicode="&#xd;" horiz-adv-x="600" 
 />
    <glyph glyph-name="space" unicode=" " horiz-adv-x="210" 
 />
    <glyph glyph-name="exclam" unicode="!" horiz-adv-x="317" 
d="M77 247v483h164v-483h-164zM65 0v161h188v-161h-188z" />
    <glyph glyph-name="quotedbl" unicode="&#x22;" horiz-adv-x="495" 
d="M62 421v309h145v-309h-145zM289 421v309h145v-309h-145z" />
    <glyph glyph-name="numbersign" unicode="#" horiz-adv-x="722" 
d="M115 0l113 730h127l-113 -730h-127zM369 0l113 730h126l-113 -730h-126zM33 185v106h617v-106h-617zM72 439v106h617v-106h-617z" />
    <glyph glyph-name="dollar" unicode="$" horiz-adv-x="651" 
d="M328 -4q-98 0 -163 28.5t-98 81t-33 123.5h147q0 -28 15 -52.5t48 -39t84 -14.5q68 0 104.5 24t36.5 64q0 35 -31 57.5t-99 29.5l-51 4q-107 10 -170 64.5t-63 154.5q0 69 31 115.5t89 70t139 23.5q87 0 146 -27t89.5 -78t30.5 -124h-147q0 29 -13.5 51.5t-39.5 36.5
t-66 14q-35 0 -60 -10t-38 -28.5t-13 -43.5q0 -31 23 -55.5t76 -30.5l51 -4q120 -10 192 -65t72 -155q0 -69 -34 -117t-98.5 -73t-156.5 -25zM257 -129v146h131v-146h-131zM253 681v146h131v-146h-131z" />
    <glyph glyph-name="percent" unicode="%" horiz-adv-x="891" 
d="M247 0l266 730h134l-265 -730h-135zM197 329q-59 0 -98.5 26.5t-59 71t-19.5 98.5v26q0 57 20 101t60 69t97 25q58 0 97.5 -25t59.5 -69t20 -101v-26q0 -54 -19.5 -98.5t-58.5 -71t-99 -26.5zM197 436q31 0 45.5 22.5t14.5 78.5q0 59 -15 81t-45 22t-45 -22t-15 -80
q0 -56 15 -79t45 -23zM694 -17q-60 0 -99 26t-58.5 70.5t-19.5 98.5v26q0 58 20 102t59.5 69t97.5 25t97 -25t59 -69t20 -102v-26q0 -54 -19.5 -98.5t-58 -70.5t-98.5 -26zM694 89q31 0 45.5 22.5t14.5 78.5q0 60 -15 81.5t-45 21.5t-45.5 -21.5t-15.5 -80.5q0 -56 15 -79
t46 -23z" />
    <glyph glyph-name="ampersand" unicode="&#x26;" horiz-adv-x="731" 
d="M532 0l-279 301q-46 50 -73 87.5t-39 72.5t-12 76q0 62 27 107t83.5 70.5t146.5 25.5q37 0 75.5 -3.5t67.5 -8.5v-132q-20 3 -49 6t-57.5 4.5t-46.5 1.5q-59 0 -79 -21t-20 -58q0 -34 16.5 -65.5t54.5 -72.5l361 -391h-177zM293 -21q-81 0 -141.5 31.5t-94.5 86
t-34 121.5v14q0 73 41 130t106 86l65 -84q-27 -18 -45.5 -51.5t-18.5 -78.5q0 -35 14.5 -63.5t43.5 -44t73 -15.5q58 0 106.5 31t78 98t29.5 175h140q0 -106 -28.5 -187t-79 -136.5t-116.5 -84t-139 -28.5zM422 394v117h284v-117h-284z" />
    <glyph glyph-name="quotesingle" unicode="'" horiz-adv-x="268" 
d="M62 421v309h145v-309h-145z" />
    <glyph glyph-name="parenleft" unicode="(" horiz-adv-x="393" 
d="M204 -182q-47 61 -82.5 131.5t-54.5 157.5t-19 196t20.5 194.5t56.5 153.5t83 125h178q-51 -65 -92 -137.5t-64 -155.5t-23 -180t18 -181.5t58 -159.5t103 -144h-182z" />
    <glyph glyph-name="parenright" unicode=")" horiz-adv-x="393" 
d="M189 -182q47 61 82.5 131.5t54.5 157.5t19 196t-20.5 194.5t-56.5 153.5t-83 125h-178q51 -65 92 -137.5t64 -155.5t23 -180t-18 -181.5t-58 -159.5t-103 -144h182z" />
    <glyph glyph-name="asterisk" unicode="*" horiz-adv-x="570" 
d="M472 363l-152 111v114l152 111l60 -106l-122 -50v-24l122 -49zM329 784l-20 -187l-99 -57l-172 76l62 104l104 -80l21 12l-18 130zM38 447l172 76l99 -57l20 -187l-122 1l18 130l-21 12l-103 -80z" />
    <glyph glyph-name="plus" unicode="+" horiz-adv-x="596" 
d="M227 93v503h142v-503h-142zM50 279v130h497v-130h-497z" />
    <glyph glyph-name="comma" unicode="," horiz-adv-x="273" 
d="M130 -171l-123 48l105 306l136 -50z" />
    <glyph glyph-name="hyphen" unicode="-" horiz-adv-x="509" 
d="M44 212v142h421v-142h-421z" />
    <glyph glyph-name="period" unicode="." horiz-adv-x="273" 
d="M48 0v179h176v-179h-176z" />
    <glyph glyph-name="slash" unicode="/" horiz-adv-x="407" 
d="M18 -60l207 840h164l-207 -840h-164z" />
    <glyph glyph-name="zero" unicode="0" horiz-adv-x="763" 
d="M382 -19q-87 0 -149 28.5t-100.5 77.5t-57 113.5t-18.5 136.5v57q0 100 35 181t107 129t183 48t182.5 -48t106.5 -129t35 -181v-57q0 -72 -18.5 -136.5t-57 -113.5t-100 -77.5t-148.5 -28.5zM382 132q81 0 120.5 56.5t39.5 175.5q0 126 -40.5 181.5t-119.5 55.5
q-81 0 -121 -55.5t-40 -179.5q0 -120 39.5 -177t121.5 -57z" />
    <glyph glyph-name="one" unicode="1" horiz-adv-x="428" 
d="M176 0v622l44 -34h-187v142h306v-730h-163z" />
    <glyph glyph-name="two" unicode="2" horiz-adv-x="632" 
d="M60 0v150q0 47 15.5 82t49.5 62.5t90 51.5l118 51q45 19 66.5 47t21.5 71q0 44 -27 72t-79 28t-79 -29t-27 -78h-159q0 69 30 124.5t89 87.5t146 32t145.5 -31t89 -83t30.5 -117v-12q0 -84 -46 -138.5t-142 -96.5l-117 -51q-30 -13 -42.5 -27t-12.5 -38v-50l-39 33h400
v-141h-521z" />
    <glyph glyph-name="three" unicode="3" horiz-adv-x="632" 
d="M310 -19q-85 0 -147.5 31.5t-95.5 85.5t-33 122h158q0 -46 31 -74.5t87 -28.5q37 0 63 14t40 38.5t14 55.5q0 48 -30.5 79t-86.5 31q-30 0 -52.5 -9t-38.5 -22l-74 125l221 144l-9 17h-293v140h492v-152l-255 -162l-80 22q20 6 42.5 9.5t48.5 3.5q85 0 146 -28
t94.5 -78.5t33.5 -117.5v-12q0 -67 -33.5 -120t-95 -83.5t-147.5 -30.5z" />
    <glyph glyph-name="four" unicode="4" horiz-adv-x="672" 
d="M33 140v171l277 440l127 -83l-237 -377l14 -21h437v-130h-618zM416 0v526h151v-526h-151z" />
    <glyph glyph-name="five" unicode="5" horiz-adv-x="644" 
d="M326 -19q-87 0 -150 33.5t-96.5 90.5t-33.5 126h158q0 -34 15.5 -59.5t43.5 -40t64 -14.5q40 0 67.5 16.5t42.5 45t15 64.5q0 37 -14.5 65.5t-42 45.5t-66.5 17q-36 0 -65 -15t-43 -38h-154l37 412h443v-140h-378l63 42l-22 -237l-38 10q30 36 72.5 60.5t111.5 24.5
q80 0 136.5 -32.5t87 -87t30.5 -121.5v-13q0 -67 -33 -125t-96.5 -94t-154.5 -36z" />
    <glyph glyph-name="six" unicode="6" horiz-adv-x="687" 
d="M359 -21q-81 0 -139 26.5t-94.5 75t-54 111.5t-17.5 135v42q0 182 93 274.5t274 92.5q37 0 73 -2t70 -6v-137q-33 3 -71 5.5t-78 2.5q-80 0 -126 -26.5t-65 -79.5t-19 -131v-76l-36 -24q1 75 30.5 125.5t81.5 75.5t120 25q77 0 133 -30.5t86 -85.5t30 -130
q0 -79 -36 -138.5t-101.5 -92t-153.5 -32.5zM354 115q44 0 74.5 16t47 43.5t16.5 64.5q0 38 -16 65.5t-45.5 43t-72.5 15.5q-39 0 -71.5 -13.5t-51.5 -41t-19 -69.5q0 -36 15.5 -64t46.5 -44t76 -16z" />
    <glyph glyph-name="seven" unicode="7" horiz-adv-x="607" 
d="M143 0l256 581l-11 15h-355v134h553v-104l-269 -626h-174zM33 478v252h133v-252h-133z" />
    <glyph glyph-name="eight" unicode="8" horiz-adv-x="667" 
d="M333 -21q-88 0 -153.5 26t-102 76t-36.5 122q0 46 15 81.5t42.5 60.5t64.5 39v13q-28 12 -51 32.5t-36 50.5t-13 70q0 68 35.5 112t97 66.5t137.5 22.5q78 0 139 -22.5t96 -66.5t35 -112q0 -40 -12.5 -70t-35.5 -50.5t-52 -32.5v-13q37 -14 65 -39t43 -60.5t15 -81.5
q0 -72 -36.5 -122t-102 -76t-154.5 -26zM333 114q41 0 71 12t47 36.5t17 59.5t-16.5 58.5t-47 36t-71.5 12.5q-40 0 -70.5 -12.5t-46.5 -36t-16 -58.5t16 -59.5t46.5 -36.5t70.5 -12zM333 450q52 0 82 21.5t30 62.5t-30 62t-82 21t-82 -21.5t-30 -61.5q0 -41 30.5 -62.5
t81.5 -21.5z" />
    <glyph glyph-name="nine" unicode="9" horiz-adv-x="687" 
d="M328 751q81 0 139 -26.5t94.5 -75t54 -111.5t17.5 -135v-42q0 -182 -93 -274.5t-274 -92.5q-37 0 -73 2t-70 6v137q33 -3 71 -5.5t78 -2.5q80 0 126 26.5t65 79.5t19 131v76l36 24q-1 -75 -30.5 -125.5t-81.5 -75.5t-120 -25q-77 0 -133 30.5t-86 85.5t-30 130
q0 79 36 138.5t101.5 92t153.5 32.5zM333 615q-44 0 -74.5 -16t-47 -43.5t-16.5 -64.5q0 -38 16 -65.5t45.5 -43t72.5 -15.5q39 0 71.5 13.5t51.5 41t19 69.5q0 36 -15.5 64t-46.5 44t-76 16z" />
    <glyph glyph-name="colon" unicode=":" horiz-adv-x="273" 
d="M48 0v179h176v-179h-176zM48 333v179h176v-179h-176z" />
    <glyph glyph-name="semicolon" unicode=";" horiz-adv-x="273" 
d="M131 -171l-123 48l105 306l136 -50zM54 333v179h176v-179h-176z" />
    <glyph glyph-name="less" unicode="&#x3c;" horiz-adv-x="596" 
d="M526 577v-135l-456 -140v130zM70 357l456 -139v-138l-456 145v132zM185 368v-82h-30v82h30z" />
    <glyph glyph-name="equal" unicode="=" horiz-adv-x="590" 
d="M50 373v130h491v-130h-491zM50 157v130h491v-130h-491z" />
    <glyph glyph-name="greater" unicode="&#x3e;" horiz-adv-x="596" 
d="M70 80v135l456 140v-130zM526 300l-456 139v138l456 -145v-132zM411 289v82h30v-82h-30z" />
    <glyph glyph-name="question" unicode="?" horiz-adv-x="563" 
d="M178 245v174h93q53 0 79 28.5t26 69.5q0 29 -11.5 50.5t-33 34t-51.5 12.5q-32 0 -54 -13.5t-34 -35.5t-12 -50h-153q0 66 29.5 119.5t87.5 85.5t140 32q76 0 131 -28.5t85 -78.5t30 -115v-12q0 -64 -30.5 -112.5t-88.5 -76t-141 -29.5l69 55l-2 -110h-159zM166 0v161
h182v-161h-182z" />
    <glyph glyph-name="at" unicode="@" horiz-adv-x="1127" 
d="M567 -246q-111 0 -205.5 35t-164.5 99.5t-108.5 156.5t-38.5 206q0 112 36 203.5t105 158t165.5 102t215.5 35.5q102 0 192.5 -29t159.5 -86.5t108.5 -141.5t39.5 -194q0 -87 -27 -155t-77.5 -106.5t-122.5 -38.5q-51 0 -89 20.5t-58 58.5t-20 91v55h32q-3 -71 -28 -120
t-68 -74t-100 -25q-62 0 -112 30t-79 83.5t-29 125.5v16q0 72 28 124t77 80.5t110 28.5q59 0 103 -26t70 -72.5t29 -111.5h-21v192h114v-296q0 -21 6 -35t17 -21t27 -7q29 0 49.5 21.5t32 62t11.5 95.5q0 88 -30 151.5t-82 105t-119.5 61.5t-142.5 20q-93 0 -167 -27
t-125.5 -77t-78.5 -120.5t-27 -157.5q0 -117 50 -201.5t138.5 -130t203.5 -45.5q32 0 68 3.5t67 10.5v-121q-30 -6 -66.5 -9.5t-68.5 -3.5zM543 122q33 0 58.5 14t40.5 42t15 67v20q0 35 -15.5 60t-41 38.5t-57.5 13.5q-34 0 -60 -16t-39.5 -44t-13.5 -65t13.5 -66.5
t38.5 -46.5t61 -17z" />
    <glyph glyph-name="A" unicode="A" horiz-adv-x="782" 
d="M13 0l241 730h265l250 -730h-170l-202 617l52 -21h-129l54 21l-197 -617h-164zM196 181l50 136h286l51 -136h-387z" />
    <glyph glyph-name="B" unicode="B" horiz-adv-x="692" 
d="M222 -5v128h171q46 0 69 24t23 68t-23 67.5t-69 23.5h-171v99h163q76 0 135 -18.5t93 -59.5t34 -111v-14q0 -65 -30 -111.5t-88 -71t-144 -24.5h-163zM82 -5v741h160v-741h-160zM222 332v98h144q47 0 68 24t21 64q0 42 -21 66t-68 24h-144v128h134q126 0 193.5 -53
t67.5 -151v-15q0 -68 -34.5 -109t-93 -58.5t-133.5 -17.5h-134z" />
    <glyph glyph-name="C" unicode="C" horiz-adv-x="800" 
d="M417 -19q-99 0 -170 34.5t-116 91t-66.5 122t-21.5 127.5v22q0 68 22 134.5t67.5 120.5t115 86.5t164.5 32.5q99 0 175 -37t121.5 -102.5t53.5 -153.5h-165q-7 44 -32 75t-64.5 48t-88.5 17t-87 -17t-63.5 -48t-39 -73.5t-13.5 -94.5q0 -51 13.5 -93.5t40 -74t65.5 -48
t89 -16.5q76 0 128.5 37t63.5 102h164q-9 -80 -53.5 -146.5t-121 -106t-181.5 -39.5z" />
    <glyph glyph-name="D" unicode="D" horiz-adv-x="781" 
d="M226 -4v153h136q51 0 92 15.5t70 44t44 69t15 89.5q0 51 -15 91t-44 68t-70 42.5t-92 14.5h-136v153h127q99 0 173 -29t124 -79t74.5 -114.5t24.5 -135.5v-22q0 -66 -24.5 -130.5t-74.5 -116t-124 -82.5t-173 -31h-127zM82 -4v740h164v-740h-164z" />
    <glyph glyph-name="E" unicode="E" horiz-adv-x="594" 
d="M82 0v730h160v-730h-160zM222 0v136h319v-136h-319zM222 303v136h296v-136h-296zM222 594v136h312v-136h-312z" />
    <glyph glyph-name="F" unicode="F" horiz-adv-x="560" 
d="M82 0v730h164v-730h-164zM226 294v136h282v-136h-282zM226 594v136h294v-136h-294z" />
    <glyph glyph-name="G" unicode="G" horiz-adv-x="833" 
d="M428 -19q-98 0 -171 32.5t-120.5 87.5t-70.5 122t-23 134v22q0 69 23 135t69.5 120t116 86t160.5 32q99 0 175 -36.5t122 -101t53 -149.5h-164q-6 40 -31.5 70t-65 47t-89.5 17q-48 0 -85.5 -17t-64 -48t-40 -73.5t-13.5 -93.5q0 -53 14.5 -96.5t42.5 -75t69.5 -48.5
t92.5 -17q68 0 118 28t72 74l-20 -112v174h151v-156q-47 -76 -129.5 -116.5t-191.5 -40.5zM407 262v118h402v-118h-402z" />
    <glyph glyph-name="H" unicode="H" horiz-adv-x="800" 
d="M554 0v730h164v-730h-164zM82 0v730h164v-730h-164zM217 295v144h366v-144h-366z" />
    <glyph glyph-name="I" unicode="I" horiz-adv-x="332" 
d="M84 0v730h164v-730h-164z" />
    <glyph glyph-name="J" unicode="J" horiz-adv-x="643" 
d="M303 -19q-83 0 -143.5 31.5t-93 91.5t-32.5 146v37h162v-46q0 -48 28.5 -77.5t78.5 -29.5q49 0 77.5 29.5t28.5 77.5v366h164v-357q0 -86 -32.5 -146t-93 -91.5t-144.5 -31.5zM119 587v143h454v-143h-454z" />
    <glyph glyph-name="K" unicode="K" horiz-adv-x="752" 
d="M562 0l-252 341h-101l306 389h188l-275 -349l-2 71l334 -452h-198zM82 0v730h164v-730h-164z" />
    <glyph glyph-name="L" unicode="L" horiz-adv-x="558" 
d="M82 0v730h164v-730h-164zM226 0v144h306v-144h-306z" />
    <glyph glyph-name="M" unicode="M" horiz-adv-x="971" 
d="M82 0v730h226l167 -410h19l165 410h230v-730h-162v623l23 -2l-193 -473h-156l-194 473l25 2v-623h-150z" />
    <glyph glyph-name="N" unicode="N" horiz-adv-x="876" 
d="M82 0v730h269l275 -597h34l-20 -18v615h154v-730h-271l-275 597h-34l20 18v-615h-152z" />
    <glyph glyph-name="O" unicode="O" horiz-adv-x="864" 
d="M432 -19q-99 0 -172.5 34.5t-121.5 91t-71.5 122.5t-23.5 127v22q0 68 24.5 134.5t73.5 120.5t122 86.5t169 32.5t169 -32.5t122 -86.5t74 -120.5t25 -134.5v-22q0 -61 -24 -127t-72 -122.5t-121.5 -91t-172.5 -34.5zM432 134q52 0 93.5 18t71 50t44.5 74t15 90
q0 51 -15.5 93.5t-45 74t-70.5 48.5t-93 17t-93 -17t-70.5 -48.5t-44.5 -74t-15 -93.5q0 -48 15 -90t44.5 -74t70.5 -50t93 -18z" />
    <glyph glyph-name="P" unicode="P" horiz-adv-x="667" 
d="M226 209v142h131q38 0 65.5 15t42.5 42.5t15 63.5q0 38 -15 65.5t-42.5 42t-65.5 14.5h-131v142h123q93 0 159.5 -31t102 -88t35.5 -137v-16q0 -78 -35.5 -135.5t-102 -88.5t-159.5 -31h-123zM82 0v736h164v-736h-164z" />
    <glyph glyph-name="Q" unicode="Q" horiz-adv-x="864" 
d="M575 -218q-68 0 -117.5 16t-77 58t-27.5 120v112h153v-119q0 -29 16.5 -44.5t45.5 -15.5h109v-127h-102zM432 -19q-99 0 -172.5 34.5t-121.5 91t-71.5 122.5t-23.5 127v22q0 68 24.5 134.5t73.5 120.5t122 86.5t169 32.5t169 -32.5t122 -86.5t74 -120.5t25 -134.5v-22
q0 -61 -24 -127t-72 -122.5t-121.5 -91t-172.5 -34.5zM432 134q52 0 93.5 18t71 50t44.5 74t15 90q0 51 -15.5 93.5t-45 74t-70.5 48.5t-93 17t-93 -17t-70.5 -48.5t-44.5 -74t-15 -93.5q0 -48 15 -90t44.5 -74t70.5 -50t93 -18z" />
    <glyph glyph-name="R" unicode="R" horiz-adv-x="730" 
d="M82 0v736h164v-736h-164zM525 0l-214 314h180l224 -314h-190zM202 234v129h180q36 0 62.5 14.5t41 41t14.5 61.5t-14.5 61.5t-41 41t-62.5 14.5h-180v139h167q91 0 158 -27.5t103 -81.5t36 -136v-16q0 -81 -36.5 -134.5t-103 -80t-157.5 -26.5h-167z" />
    <glyph glyph-name="S" unicode="S" horiz-adv-x="667" 
d="M336 -19q-99 0 -167 31.5t-103 86t-35 125.5h159q0 -28 15.5 -52t47.5 -38.5t83 -14.5q46 0 77 12t47 33.5t16 49.5q0 35 -30 55.5t-97 26.5l-55 5q-109 9 -174 68t-65 156q0 70 33.5 121t93.5 78.5t142 27.5q86 0 147.5 -29.5t94.5 -83t33 -125.5h-160q0 27 -13 49.5
t-38.5 36.5t-63.5 14q-36 0 -60.5 -12t-36.5 -32.5t-12 -44.5q0 -31 22 -54t72 -27l56 -5q80 -7 141 -34.5t95.5 -75t34.5 -115.5q0 -70 -36.5 -122.5t-103.5 -81.5t-160 -29z" />
    <glyph glyph-name="T" unicode="T" horiz-adv-x="618" 
d="M227 0v607h164v-607h-164zM22 587v143h575v-143h-575z" />
    <glyph glyph-name="U" unicode="U" horiz-adv-x="776" 
d="M388 -19q-103 0 -174.5 38.5t-108.5 109.5t-37 168v433h164v-439q0 -48 18.5 -83.5t53 -54.5t84.5 -19q51 0 85.5 19t52.5 54t18 84v439h164v-433q0 -97 -37 -168t-108 -109.5t-175 -38.5z" />
    <glyph glyph-name="V" unicode="V" horiz-adv-x="740" 
d="M243 0l-222 730h169l176 -616l-38 19h102l-40 -19l163 616h164l-207 -730h-267z" />
    <glyph glyph-name="W" unicode="W" horiz-adv-x="1071" 
d="M201 0l-180 730h169l141 -620l-35 23h91l-39 -23l109 593h136l-143 -703h-249zM636 0l-154 703h143l126 -593l-38 23h87l-33 -23l123 620h160l-160 -730h-254z" />
    <glyph glyph-name="X" unicode="X" horiz-adv-x="722" 
d="M9 0l249 389l2 -17l-230 358h180l142 -228h23l140 228h175l-231 -360l-3 16l257 -386h-181l-166 258h-24l-158 -258h-175z" />
    <glyph glyph-name="Y" unicode="Y" horiz-adv-x="657" 
d="M220 277l-213 453h168l153 -339l-29 9h84l-31 -9l138 339h159l-196 -453h-233zM256 0v300h161v-300h-161z" />
    <glyph glyph-name="Z" unicode="Z" horiz-adv-x="647" 
d="M38 0v123l380 468l3 -20l-32 42l22 -17h-360v134h561v-123l-381 -468l-4 22l34 -45l-24 19h375v-135h-574z" />
    <glyph glyph-name="bracketleft" unicode="[" horiz-adv-x="393" 
d="M86 -182v958h154v-958h-154zM192 -182v133h159v-133h-159zM192 643v133h159v-133h-159z" />
    <glyph glyph-name="backslash" unicode="\" horiz-adv-x="407" 
d="M232 -60l-219 840h162l219 -840h-162z" />
    <glyph glyph-name="bracketright" unicode="]" horiz-adv-x="393" 
d="M307 -182v958h-154v-958h154zM201 -182v133h-159v-133h159zM201 643v133h-159v-133h159z" />
    <glyph glyph-name="asciicircum" unicode="^" horiz-adv-x="617" 
d="M50 311l162 427h194l162 -427h-135l-110 312h-25l-110 -312h-138z" />
    <glyph glyph-name="underscore" unicode="_" horiz-adv-x="590" 
d="M0 -171v120h590v-120h-590z" />
    <glyph glyph-name="grave" unicode="`" horiz-adv-x="300" 
d="M113 612l-113 209h169l88 -209h-144z" />
    <glyph glyph-name="a" unicode="a" horiz-adv-x="594" 
d="M404 0v162h-27v176q0 42 -20 63t-64 21q-22 0 -58 -1t-74 -3t-69 -4v135q23 2 54 4t64 3t62 1q84 0 141.5 -24t87.5 -72.5t30 -124.5v-336h-127zM229 -14q-59 0 -103.5 21t-69.5 60.5t-25 94.5q0 60 31 98.5t87 57t129 18.5h117v-89h-118q-42 0 -64.5 -20.5t-22.5 -55.5
q0 -33 22.5 -53.5t64.5 -20.5q27 0 48.5 9.5t35.5 32.5t16 64l38 -40q-5 -57 -27.5 -96t-62 -60t-96.5 -21z" />
    <glyph glyph-name="b" unicode="b" horiz-adv-x="703" 
d="M410 -18q-67 0 -118 28.5t-80 82.5t-31 132h19v-225h-127v730h160v-371l-38 -48q3 83 31.5 139.5t78.5 85t114 28.5q56 0 101.5 -20.5t77.5 -58t49.5 -88.5t17.5 -111v-22q0 -60 -17.5 -111t-51 -89.5t-80.5 -60t-106 -21.5zM368 116q41 0 71.5 20t47.5 56.5t17 82.5
q0 47 -17 82t-47.5 54.5t-71.5 19.5q-36 0 -68 -17t-51.5 -48.5t-19.5 -76.5v-37q0 -43 20.5 -73.5t52.5 -46.5t66 -16z" />
    <glyph glyph-name="c" unicode="c" horiz-adv-x="611" 
d="M319 -19q-71 0 -123.5 23.5t-87.5 63.5t-52 90.5t-17 104.5v19q0 56 18 107.5t53 91.5t87.5 63t120.5 23q74 0 131 -28.5t91 -79.5t38 -117h-157q-4 37 -29.5 62.5t-73.5 25.5q-40 0 -66.5 -20t-39.5 -55t-13 -83q0 -44 12 -79.5t38.5 -55t69.5 -19.5q32 0 54.5 11.5
t36 32t16.5 47.5h156q-3 -68 -38 -119.5t-93 -80t-132 -28.5z" />
    <glyph glyph-name="d" unicode="d" horiz-adv-x="703" 
d="M299 -18q-58 0 -105.5 21t-82.5 58.5t-53.5 88.5t-18.5 110v23q0 59 17.5 110t51 89.5t80.5 60t105 21.5q66 0 114 -28.5t75 -84t30 -136.5l-42 39v376h161v-730h-127v227h22q-3 -78 -32.5 -133t-79.5 -83.5t-115 -28.5zM339 116q37 0 67.5 16.5t49 48.5t18.5 77v37
q0 44 -19 74t-50 46t-67 16q-40 0 -71.5 -20.5t-49.5 -56t-18 -82.5q0 -48 18 -83t50 -54t72 -19z" />
    <glyph glyph-name="e" unicode="e" horiz-adv-x="624" 
d="M324 -19q-70 0 -123.5 24t-89 64.5t-54 91t-18.5 103.5v20q0 55 18.5 105.5t53.5 90.5t87.5 63.5t119.5 23.5q88 0 148.5 -39.5t92.5 -103t32 -138.5v-54h-485v91h388l-52 -42q0 49 -14 84t-41.5 53.5t-68.5 18.5q-42 0 -71 -19t-44 -55.5t-15 -89.5q0 -49 14 -85.5
t44 -56.5t78 -20q44 0 72 17t38 42h147q-12 -55 -47 -98t-88 -67t-122 -24z" />
    <glyph glyph-name="f" unicode="f" horiz-adv-x="382" 
d="M85 0v553q0 95 54 141t159 46h70v-120h-77q-27 0 -42 -15t-15 -42v-563h-149zM20 420v117h356v-117h-356z" />
    <glyph glyph-name="g" unicode="g" horiz-adv-x="686" 
d="M289 -218q-40 0 -82 3t-77 8v135q35 -5 77.5 -8.5t77.5 -3.5q65 0 105.5 15t59.5 45.5t19 78.5v109l29 64q-2 -73 -28.5 -125t-73.5 -79.5t-112 -27.5q-56 0 -101.5 20.5t-77.5 57.5t-49 86.5t-17 107.5v23q0 58 18 108t52 87t81 57.5t104 20.5q66 0 114.5 -29t76.5 -85
t30 -135l-22 -6v239h127v-483q0 -101 -36 -163t-109.5 -91t-185.5 -29zM334 131q37 0 67 16.5t47.5 47.5t17.5 75v29q0 43 -18.5 72.5t-48.5 45t-64 15.5q-40 0 -71 -19t-48 -53t-17 -80q0 -47 17.5 -80.5t48 -51t69.5 -17.5z" />
    <glyph glyph-name="h" unicode="h" horiz-adv-x="652" 
d="M73 0v730h160v-421h-24q0 83 21 140t62 86.5t103 29.5h7q91 0 139 -64.5t48 -188.5v-312h-160v322q0 45 -26.5 72.5t-69.5 27.5q-45 0 -72.5 -29t-27.5 -77v-316h-160z" />
    <glyph glyph-name="i" unicode="i" horiz-adv-x="334" 
d="M99 0v548h160v-548h-160zM26 430v118h233v-118h-233zM161 602q-45 0 -66.5 23.5t-21.5 59.5q0 37 21.5 60.5t66.5 23.5t66.5 -23.5t21.5 -60.5q0 -36 -21.5 -59.5t-66.5 -23.5z" />
    <glyph glyph-name="j" unicode="j" horiz-adv-x="339" 
d="M4 -205v135h35q37 0 56 19.5t19 55.5v543h155v-538q0 -79 -24.5 -126t-77 -68t-134.5 -21h-29zM38 430v118h231v-118h-231zM171 604q-45 0 -66.5 23.5t-21.5 59.5q0 37 21.5 60.5t66.5 23.5q46 0 67 -23.5t21 -60.5q0 -36 -21 -59.5t-67 -23.5z" />
    <glyph glyph-name="k" unicode="k" horiz-adv-x="639" 
d="M459 0l-173 256h-77l223 292h168l-210 -272l2 78l247 -354h-180zM73 0v730h160v-730h-160z" />
    <glyph glyph-name="l" unicode="l" horiz-adv-x="315" 
d="M80 0v730h161v-730h-161zM15 612v118h226v-118h-226z" />
    <glyph glyph-name="m" unicode="m" horiz-adv-x="983" 
d="M73 0v548h127v-236h-9q0 84 21 140t63 84.5t103 28.5h7q62 0 103.5 -28.5t63 -84.5t21.5 -140h-39q0 84 21.5 140t63.5 84.5t103 28.5h7q62 0 104.5 -28.5t64.5 -84.5t22 -140v-312h-160v321q0 45 -23.5 73t-66.5 28t-68 -28.5t-25 -75.5v-318h-161v321q0 45 -23.5 73
t-65.5 28q-44 0 -69 -28.5t-25 -75.5v-318h-160z" />
    <glyph glyph-name="n" unicode="n" horiz-adv-x="652" 
d="M73 0v548h127v-235h-9q0 84 21.5 140t65.5 84t107 28h7q96 0 146.5 -62.5t50.5 -189.5v-313h-160v322q0 44 -26 72t-70 28q-45 0 -72.5 -28.5t-27.5 -74.5v-319h-160z" />
    <glyph glyph-name="o" unicode="o" horiz-adv-x="681" 
d="M340 -19q-72 0 -128 22.5t-94.5 61.5t-58.5 89.5t-20 106.5v23q0 57 20.5 108.5t60 90.5t95.5 61.5t125 22.5q71 0 126.5 -22.5t94.5 -61.5t60 -90.5t21 -108.5v-23q0 -56 -20 -106.5t-58.5 -89.5t-94.5 -61.5t-129 -22.5zM340 116q47 0 78 20t47.5 56t16.5 80
q0 47 -17 82.5t-48.5 56.5t-76.5 21q-44 0 -76 -21t-48.5 -56.5t-16.5 -82.5q0 -44 16 -80t48 -56t77 -20z" />
    <glyph glyph-name="p" unicode="p" horiz-adv-x="703" 
d="M73 -200v748h127v-237l-17 1q4 82 34 138.5t81 85t115 28.5q57 0 103.5 -21t80 -58.5t51 -88t17.5 -110.5v-23q0 -59 -17 -110.5t-49.5 -89.5t-79 -59.5t-106.5 -21.5q-62 0 -111.5 25.5t-79.5 78t-33 133.5l44 -60v-359h-160zM368 116q41 0 71.5 20t47.5 56t17 83
t-17 82t-47 54.5t-72 19.5q-36 0 -68 -17t-51.5 -48.5t-19.5 -76.5v-37q0 -43 20.5 -73.5t52.5 -46.5t66 -16z" />
    <glyph glyph-name="q" unicode="q" horiz-adv-x="703" 
d="M470 -200v362l43 58q-2 -74 -29.5 -127.5t-76.5 -82t-115 -28.5q-57 0 -104 21.5t-80.5 59t-51 88.5t-17.5 110v23q0 59 18.5 110t53 89t82 59.5t105.5 21.5q68 0 117.5 -29.5t77.5 -85t30 -135.5h-19v234h127v-748h-161zM339 117q37 0 67.5 16.5t49 48.5t18.5 77v37
q0 44 -19 74t-50 46t-66 16q-41 0 -72.5 -20.5t-49.5 -56t-18 -83.5q0 -47 18 -82t49.5 -54t72.5 -19z" />
    <glyph glyph-name="r" unicode="r" horiz-adv-x="421" 
d="M73 0v548h127v-235h-3q0 116 49.5 179t143.5 63h21v-138h-40q-66 0 -102 -35.5t-36 -102.5v-279h-160z" />
    <glyph glyph-name="s" unicode="s" horiz-adv-x="556" 
d="M281 -17q-117 0 -183 48t-70 135h142q4 -26 31.5 -46.5t82.5 -20.5q42 0 69.5 14.5t27.5 41.5q0 24 -21 38.5t-75 20.5l-43 4q-99 10 -148.5 55t-49.5 115q0 58 29 97t80.5 59t117.5 20q106 0 171 -46.5t68 -134.5h-142q-4 27 -28 45.5t-71 18.5q-37 0 -59 -14t-22 -38
q0 -23 19 -35t62 -17l43 -4q101 -11 157 -56t56 -121q0 -55 -30 -95.5t-85 -62t-129 -21.5z" />
    <glyph glyph-name="t" unicode="t" horiz-adv-x="434" 
d="M322 -7q-83 0 -134 20.5t-74.5 69t-23.5 131.5v482h149v-488q0 -39 20.5 -59.5t58.5 -20.5h81v-135h-77zM7 431v117h392v-117h-392z" />
    <glyph glyph-name="u" unicode="u" horiz-adv-x="645" 
d="M258 -17q-95 0 -146 61.5t-51 185.5v318h160v-326q0 -44 25 -70t67 -26q43 0 70 27t27 73v322h160v-548h-127v231h11q0 -83 -21.5 -138.5t-63.5 -82.5t-104 -27h-7z" />
    <glyph glyph-name="v" unicode="v" horiz-adv-x="597" 
d="M179 0l-164 548h165l154 -548h-155zM229 0v133h161v-133h-161zM288 0l133 548h154l-142 -548h-145z" />
    <glyph glyph-name="w" unicode="w" horiz-adv-x="922" 
d="M274 0l100 530h175l116 -530h-124l-119 526h71l-107 -526h-112zM236 0l-1 133h110l1 -133h-110zM164 0l-147 548h157l137 -548h-147zM582 0l1 133h110v-133h-111zM627 0l122 548h147l-132 -548h-137z" />
    <glyph glyph-name="x" unicode="x" horiz-adv-x="601" 
d="M12 0l170 294l-4 -25l-160 279h173l99 -186h16l93 186h163l-153 -281l4 21l180 -288h-174l-118 199h-16l-111 -199h-162z" />
    <glyph glyph-name="y" unicode="y" horiz-adv-x="570" 
d="M67 -217v136h114q26 0 44 6.5t29 21.5t18 41l135 560h152l-153 -592q-16 -64 -44.5 -102t-76 -54.5t-120.5 -16.5h-98zM239 12v125h116v-125h-116zM173 12l-168 536h161l159 -536h-152z" />
    <glyph glyph-name="z" unicode="z" horiz-adv-x="502" 
d="M37 0v112l257 308v-16l-24 30l18 -9h-250v123h431v-112l-257 -308v15l24 -30l-18 10h259v-123h-440z" />
    <glyph glyph-name="braceleft" unicode="{" horiz-adv-x="393" 
d="M332 -182q-98 0 -156 47t-58 149v153q0 31 -19 46t-56 15v142q37 0 56 15t19 46v150q0 102 58 148.5t156 46.5h25v-133h-25q-33 0 -47.5 -16t-14.5 -47v-154q0 -59 -26 -87t-77 -33v-14q51 -4 77 -32t26 -87v-159q0 -30 14.5 -46.5t47.5 -16.5h25v-133h-25z" />
    <glyph glyph-name="bar" unicode="|" horiz-adv-x="376" 
d="M120 -200v930l136 1v-930z" />
    <glyph glyph-name="braceright" unicode="}" horiz-adv-x="393" 
d="M61 -182q98 0 156 47t58 149v153q0 31 19 46t56 15v142q-37 0 -56 15t-19 46v150q0 102 -58 148.5t-156 46.5h-25v-133h25q33 0 47.5 -16t14.5 -47v-154q0 -59 26 -87t77 -33v-14q-51 -4 -77 -32t-26 -87v-159q0 -30 -14.5 -46.5t-47.5 -16.5h-25v-133h25z" />
    <glyph glyph-name="asciitilde" unicode="~" horiz-adv-x="543" 
d="M373 216q-36 0 -65 13t-53 30t-45.5 30t-41.5 13t-34.5 -15t-20.5 -50l-93 -1q3 67 25.5 109t56 62t68.5 20q36 0 65 -13.5t53 -30.5t45.5 -30t42.5 -13q20 0 34.5 15.5t19.5 49.5h93q-2 -67 -24.5 -109t-56 -61t-69.5 -19z" />
    <glyph glyph-name="uni00A0" unicode="&#xa0;" horiz-adv-x="210" 
 />
    <glyph glyph-name="exclamdown" unicode="&#xa1;" horiz-adv-x="317" 
d="M77 301v-483h164v483h-164zM65 548v-161h188v161h-188z" />
    <glyph glyph-name="cent" unicode="&#xa2;" horiz-adv-x="611" 
d="M316 93q-67 0 -118.5 21t-87 57t-53.5 83.5t-18 99.5v20q0 55 18 103t54 84t87.5 56.5t117.5 20.5q74 0 130.5 -26t90 -74.5t38.5 -115.5h-152q-5 36 -33.5 59.5t-73.5 23.5q-37 0 -64.5 -17t-42.5 -48.5t-15 -75.5q0 -42 13.5 -73t41 -48t67.5 -17q47 0 76.5 24t34.5 63
h152q-4 -67 -38 -116.5t-91.5 -76.5t-133.5 -27zM253 0v146h131v-146h-131zM253 577v146h131v-146h-131z" />
    <glyph glyph-name="sterling" unicode="&#xa3;" horiz-adv-x="636" 
d="M109 0v486q0 125 76.5 190t209.5 65q23 0 54 -1.5t61.5 -4t49.5 -4.5v-130q-19 2 -50.5 4.5t-63 4t-51.5 1.5q-50 0 -81 -14.5t-45 -44.5t-14 -73v-479h-146zM41 0v124h476v-124h-476zM47 313v107h444v-107h-444zM481 0v212h125v-212h-125z" />
    <glyph glyph-name="currency" unicode="&#xa4;" horiz-adv-x="683" 
d="M341 135q-74 0 -129 32t-85 83t-30 107v16q0 57 30 108t85 83t129 32q75 0 130 -32t85 -83t30 -108v-16q0 -56 -30 -107t-85 -83t-130 -32zM123 65l-91 93l110 110l91 -92zM142 460l-110 111l91 92l110 -110zM341 257q36 0 59.5 13.5t36 38t12.5 56.5q0 34 -13 58
t-36.5 37.5t-58.5 13.5q-33 0 -57 -13.5t-37 -37.5t-13 -58q0 -32 12.5 -56.5t36.5 -38t58 -13.5zM560 65l-110 111l91 92l110 -110zM541 460l-91 93l110 110l91 -92z" />
    <glyph glyph-name="yen" unicode="&#xa5;" horiz-adv-x="666" 
d="M234 298l-217 432h167l152 -320l-28 9h77l-31 -9l138 320h157l-200 -432h-215zM267 0v321h150v-321h-150zM61 146v81h558v-81h-558zM61 298v81h558v-81h-558z" />
    <glyph glyph-name="brokenbar" unicode="&#xa6;" horiz-adv-x="376" 
d="M120 327v403h136v-403h-136zM120 -200v401h136v-401h-136z" />
    <glyph glyph-name="section" unicode="&#xa7;" horiz-adv-x="598" 
d="M287 -98q-115 0 -181.5 50.5t-70.5 143.5h142q4 -31 31.5 -54t79.5 -23q42 0 65 16.5t23 42.5q0 21 -17.5 34.5t-46 24.5t-62.5 21q-36 11 -73.5 25t-69 34t-51 50t-19.5 73q0 51 24 89t62 61.5t79 30.5l105 -54q-41 -5 -69.5 -20.5t-42.5 -35.5t-14 -41q0 -28 19 -45.5
t50.5 -29.5t67.5 -23q35 -11 70 -24.5t64.5 -33t47 -49t17.5 -73.5q0 -87 -61 -138.5t-169 -51.5zM369 162l-76 77q64 13 94.5 42t30.5 65q0 24 -18.5 40t-49.5 28t-67 23q-36 12 -74 26.5t-69.5 35.5t-51 51.5t-19.5 75.5q0 52 28 92.5t77.5 64t113.5 23.5q105 0 166 -47
t62 -134h-139q-1 30 -23 48t-66 18q-38 0 -56.5 -16.5t-18.5 -42.5q0 -20 17.5 -34.5t46.5 -25t63 -21.5q38 -11 77 -25.5t72 -35t53 -52t20 -77.5q0 -49 -21 -86.5t-63.5 -65.5t-108.5 -47z" />
    <glyph glyph-name="dieresis" unicode="&#xa8;" horiz-adv-x="300" 
d="M85 631q-45 0 -65 24t-20 59q0 36 20 60t65 24q44 0 64 -24t20 -60q0 -35 -20 -59t-64 -24zM300 631q-45 0 -65 24t-20 59q0 36 20 60t65 24q44 0 64 -24t20 -60q0 -35 -20 -59t-64 -24z" />
    <glyph glyph-name="copyright" unicode="&#xa9;" horiz-adv-x="713" 
d="M357 109q-82 0 -142 28t-97.5 74t-56 100.5t-18.5 106.5v18q0 54 19 108.5t57 99.5t97.5 72t140.5 27q80 0 139.5 -27t97.5 -72t57.5 -99.5t19.5 -108.5v-18q0 -52 -18.5 -106.5t-56.5 -100.5t-97.5 -74t-141.5 -28zM357 163q78 0 135 36.5t88 96.5t31 130
q0 73 -31 132.5t-88 95t-135 35.5q-79 0 -136 -35.5t-87.5 -95t-30.5 -132.5q0 -70 30.5 -130t87.5 -96.5t136 -36.5zM359 237q-61 0 -101 25.5t-60 67t-20 87.5v13q0 50 20.5 91t61 66t99.5 25q74 0 121 -40t51 -107h-107q-2 24 -17.5 39.5t-44.5 15.5q-39 0 -55.5 -25
t-16.5 -71q0 -29 6.5 -50.5t22.5 -33t42 -11.5q30 0 46 16t20 43h107q-3 -68 -52 -109.5t-123 -41.5z" />
    <glyph glyph-name="ordfeminine" unicode="&#xaa;" horiz-adv-x="439" 
d="M280 348v111h-24v114q0 21 -8 31.5t-31 10.5q-11 0 -36.5 -0.5t-56.5 -1.5t-57 -3v119q18 2 43 3t50.5 2t44.5 1q60 0 102 -18.5t64.5 -54t22.5 -87.5v-227h-114zM163 338q-59 0 -97.5 32.5t-38.5 88.5q0 45 24 71t65.5 38.5t93.5 12.5h63v-73h-62q-20 0 -31 -10.5
t-11 -27.5q0 -16 10.5 -26t31.5 -10q14 0 23.5 5t15 17t6.5 32l33 -30q-6 -57 -36.5 -88.5t-89.5 -31.5z" />
    <glyph glyph-name="guillemotleft" unicode="&#xab;" horiz-adv-x="650" 
d="M151 39l-132 196v48l138 200h178l-142 -205v-33l142 -206h-184zM439 39l-132 196v48l138 200h178l-142 -205v-33l142 -206h-184z" />
    <glyph glyph-name="logicalnot" unicode="&#xac;" horiz-adv-x="627" 
d="M50 257v130h527v-315l-123 -1v258l73 -72h-477z" />
    <glyph glyph-name="uni00AD" unicode="&#xad;" horiz-adv-x="431" 
d="M39 212v142h353v-142h-353z" />
    <glyph glyph-name="registered" unicode="&#xae;" horiz-adv-x="678" 
d="M339 176q-70 0 -123.5 24.5t-89.5 65t-54 89.5t-18 98v16q0 51 18.5 99.5t55 88.5t89.5 63.5t122 23.5t122 -23.5t89.5 -63.5t55 -88.5t18.5 -99.5v-16q0 -49 -18 -98t-54 -89.5t-89.5 -65t-123.5 -24.5zM339 228q69 0 120.5 31.5t80 84t28.5 116.5q0 66 -28.5 118.5
t-80 83t-120.5 30.5t-120.5 -30.5t-80 -83t-28.5 -118.5q0 -64 28.5 -116.5t80 -84t120.5 -31.5zM218 309v315h83v-315h-83zM401 309l-74 122h87l78 -122h-91zM257 400v69h87q26 0 37.5 11t11.5 31q0 21 -11.5 32t-37.5 11h-87v70h83q66 0 101 -28.5t35 -83.5t-35 -83.5
t-101 -28.5h-83z" />
    <glyph glyph-name="macron" unicode="&#xaf;" horiz-adv-x="300" 
d="M0 648v112h340v-112h-340z" />
    <glyph glyph-name="degree" unicode="&#xb0;" horiz-adv-x="424" 
d="M212 356q-56 0 -99.5 25.5t-67.5 68t-24 93.5q0 52 24 94t67.5 67.5t99.5 25.5q58 0 100.5 -25.5t67 -67.5t24.5 -94q0 -51 -24.5 -93.5t-67.5 -68t-100 -25.5zM212 466q35 0 55 22.5t20 55.5q0 31 -20 53.5t-55 22.5t-55 -22.5t-20 -53.5q0 -33 20 -55.5t55 -22.5z" />
    <glyph glyph-name="plusminus" unicode="&#xb1;" horiz-adv-x="610" 
d="M64 28v121h482v-121h-482zM238 209v455h134v-455h-134zM64 376v122h482v-122h-482z" />
    <glyph glyph-name="uni00B2" unicode="&#xb2;" horiz-adv-x="379" 
d="M39 420v84q0 40 21 67t71 47l61 25q22 9 34.5 21.5t12.5 35.5q0 18 -13 30.5t-38 12.5t-37 -12.5t-12 -33.5h-106q0 58 38.5 97.5t116.5 39.5q77 0 116.5 -38t39.5 -91v-7q0 -44 -24.5 -75.5t-87.5 -56.5l-61 -25q-15 -5 -23.5 -11.5t-8.5 -18.5v-21l-25 20h228v-90h-303
z" />
    <glyph glyph-name="uni00B3" unicode="&#xb3;" horiz-adv-x="381" 
d="M187 409q-75 0 -118 38.5t-43 94.5h106q0 -19 14.5 -30.5t40.5 -11.5t40 13.5t14 32.5q0 20 -14 34t-40 14q-16 0 -28.5 -5t-21.5 -13l-48 82l112 60l-6 10h-151v94h286v-98l-135 -74l-56 16q12 2 25 3t24 1q74 0 117 -33t43 -90v-7q0 -56 -42.5 -93.5t-118.5 -37.5z" />
    <glyph glyph-name="acute" unicode="&#xb4;" horiz-adv-x="300" 
d="M0 612l90 209h164l-114 -209h-140z" />
    <glyph glyph-name="uni00B5" unicode="&#xb5;" horiz-adv-x="680" 
d="M61 -200v748h160v-326q0 -44 25 -70t67 -26q29 0 50.5 12.5t34 34.5t12.5 53v322h160v-376q0 -16 9 -25t26 -9h49v-138h-62q-63 0 -100.5 20t-54 60.5t-16.5 100.5l22 50h11q0 -83 -22 -138.5t-61 -82.5t-93 -27h-5q-35 0 -68.5 17.5t-55 48.5t-22.5 71l45 13
q0 -34 9 -68t17.5 -71t8.5 -78v-116h-146z" />
    <glyph glyph-name="paragraph" unicode="&#xb6;" horiz-adv-x="641" 
d="M202 371q-100 0 -146.5 48t-46.5 128v11q0 80 46.5 128t146.5 48h106v-363h-106zM272 0v734h112v-734h-112zM450 0v734h110v-734h-110z" />
    <glyph glyph-name="periodcentered" unicode="&#xb7;" horiz-adv-x="273" 
d="M48 194v179h176v-179h-176z" />
    <glyph glyph-name="cedilla" unicode="&#xb8;" horiz-adv-x="300" 
d="M119 -270q-23 0 -45 4t-35 8v98q14 -5 33.5 -8.5t40.5 -3.5q28 0 42 7.5t14 20.5q0 11 -9.5 17t-32.5 6h-53v134h97v-99l-56 43h13q69 0 107.5 -26.5t38.5 -77.5q0 -52 -39.5 -87.5t-115.5 -35.5z" />
    <glyph glyph-name="uni00B9" unicode="&#xb9;" horiz-adv-x="264" 
d="M102 420v329l29 -22h-105v95h186v-402h-110z" />
    <glyph glyph-name="ordmasculine" unicode="&#xba;" horiz-adv-x="482" 
d="M241 333q-65 0 -112 26t-72 70t-25 98v18q0 56 26 100.5t73 70t110 25.5q64 0 111 -25.5t72.5 -70t25.5 -100.5v-18q0 -54 -24.5 -98t-71.5 -70t-113 -26zM241 452q22 0 36.5 10.5t21.5 29.5t7 44t-7.5 44.5t-21.5 30.5t-36 11q-20 0 -35 -11t-22.5 -30t-7.5 -45
q0 -25 7 -44t22 -29.5t36 -10.5z" />
    <glyph glyph-name="guillemotright" unicode="&#xbb;" horiz-adv-x="650" 
d="M499 483l132 -196v-48l-138 -200h-178l142 205v33l-142 206h184zM211 483l132 -196v-48l-138 -200h-178l142 205v33l-142 206h184z" />
    <glyph glyph-name="onequarter" unicode="&#xbc;" horiz-adv-x="854" 
d="M102 255v329l29 -22h-105v95h186v-402h-110zM129 -22l405 702h111l-406 -702h-110zM472 68v113l155 247l84 -51l-130 -209l8 -13h245v-87h-362zM688 0v292h101v-292h-101z" />
    <glyph glyph-name="onehalf" unicode="&#xbd;" horiz-adv-x="870" 
d="M102 255v329l29 -22h-105v95h186v-402h-110zM129 -22l405 702h111l-406 -702h-110zM530 0v84q0 40 21 67t71 47l61 25q22 9 34.5 21.5t12.5 35.5q0 18 -13 30.5t-38 12.5t-37 -12.5t-12 -33.5h-106q0 58 38.5 97.5t116.5 39.5q77 0 116.5 -38t39.5 -91v-7
q0 -44 -24.5 -75.5t-87.5 -56.5l-61 -25q-15 -5 -23.5 -11.5t-8.5 -18.5v-21l-25 20h228v-90h-303z" />
    <glyph glyph-name="threequarters" unicode="&#xbe;" horiz-adv-x="953" 
d="M187 244q-75 0 -118 38.5t-43 94.5h106q0 -19 14.5 -30.5t40.5 -11.5t40 13.5t14 32.5q0 20 -14 34t-40 14q-16 0 -28.5 -5t-21.5 -13l-48 82l112 60l-6 10h-151v94h286v-98l-135 -74l-56 16q12 2 25 3t24 1q74 0 117 -33t43 -90v-7q0 -56 -42.5 -93.5t-118.5 -37.5z
M228 -22l405 702h111l-406 -702h-110zM571 68v113l155 247l84 -51l-130 -209l8 -13h245v-87h-362zM787 0v292h101v-292h-101z" />
    <glyph glyph-name="questiondown" unicode="&#xbf;" horiz-adv-x="563" 
d="M385 303v-174h-93q-53 0 -79 -28.5t-26 -69.5q0 -29 11.5 -50.5t33 -34t51.5 -12.5q32 0 54 13.5t34 35.5t12 50h153q0 -66 -29.5 -119.5t-87.5 -85.5t-140 -32q-76 0 -131 28.5t-85 78.5t-30 115v12q0 64 30.5 112.5t88.5 76t141 29.5l-69 -55l2 110h159zM397 548v-161
h-182v161h182z" />
    <glyph glyph-name="Agrave" unicode="&#xc0;" horiz-adv-x="782" 
d="M13 0l241 730h265l250 -730h-170l-202 617l52 -21h-129l54 21l-197 -617h-164zM196 181l50 136h286l51 -136h-387zM311 785l-128 179h174l108 -179h-154z" />
    <glyph glyph-name="Aacute" unicode="&#xc1;" horiz-adv-x="782" 
d="M13 0l241 730h265l250 -730h-170l-202 617l52 -21h-129l54 21l-197 -617h-164zM196 181l50 136h286l51 -136h-387zM301 785l125 179h172l-144 -179h-153z" />
    <glyph glyph-name="Acircumflex" unicode="&#xc2;" horiz-adv-x="782" 
d="M13 0l241 730h265l250 -730h-170l-202 617l52 -21h-129l54 21l-197 -617h-164zM196 181l50 136h286l51 -136h-387zM164 785l130 179h189l132 -179h-147l-73 103h-17l-71 -103h-143z" />
    <glyph glyph-name="Atilde" unicode="&#xc3;" horiz-adv-x="782" 
d="M13 0l241 730h265l250 -730h-170l-202 617l52 -21h-129l54 21l-197 -617h-164zM196 181l50 136h286l51 -136h-387zM476 786q-31 0 -53.5 8t-40 18.5t-36.5 18.5t-44 8q-32 0 -55.5 -11.5t-37.5 -28.5l-24 108q17 21 46 35.5t71 14.5q32 0 54 -8t40 -18.5t37 -18.5t44 -8
q32 0 55.5 12t37.5 29l24 -109q-17 -21 -46 -35.5t-72 -14.5z" />
    <glyph glyph-name="Adieresis" unicode="&#xc4;" horiz-adv-x="782" 
d="M13 0l241 730h265l250 -730h-170l-202 617l52 -21h-129l54 21l-197 -617h-164zM196 181l50 136h286l51 -136h-387zM275 796q-44 0 -66 23t-22 59q0 37 22 60t66 23q46 0 67.5 -23t21.5 -60q0 -36 -21.5 -59t-67.5 -23zM499 796q-44 0 -66 23t-22 59q0 37 22 60t66 23
q46 0 67.5 -23t21.5 -60q0 -36 -21.5 -59t-67.5 -23z" />
    <glyph glyph-name="Aring" unicode="&#xc5;" horiz-adv-x="782" 
d="M13 0l241 730h265l250 -730h-170l-202 617l52 -21h-129l54 21l-197 -617h-164zM196 181l50 136h286l51 -136h-387zM387 762q-58 0 -94 31.5t-36 81.5t36 81t94 31q59 0 95 -31t36 -81t-36 -81.5t-95 -31.5zM387 834q21 0 33 11.5t12 29.5q0 17 -12 28.5t-33 11.5
t-32.5 -11.5t-11.5 -28.5q0 -18 11.5 -29.5t32.5 -11.5z" />
    <glyph glyph-name="AE" unicode="&#xc6;" horiz-adv-x="983" 
d="M-3 0l288 730h210v-134h-141l50 21l-243 -617h-164zM207 196l51 137h237v-137h-288zM474 0v730h157v-730h-157zM610 0v136h320v-136h-320zM610 303v136h297v-136h-297zM610 594v136h313v-136h-313z" />
    <glyph glyph-name="Ccedilla" unicode="&#xc7;" horiz-adv-x="800" 
d="M417 -19q-99 0 -170 34.5t-116 91t-66.5 122t-21.5 127.5v22q0 68 22 134.5t67.5 120.5t115 86.5t164.5 32.5q99 0 175 -37t121.5 -102.5t53.5 -153.5h-165q-7 44 -32 75t-64.5 48t-88.5 17t-87 -17t-63.5 -48t-39 -73.5t-13.5 -94.5q0 -51 13.5 -93.5t40 -74t65.5 -48
t89 -16.5q76 0 128.5 37t63.5 102h164q-9 -80 -53.5 -146.5t-121 -106t-181.5 -39.5zM412 -276q-25 0 -48.5 3.5t-37.5 8.5v102q15 -4 35.5 -8t43.5 -4q30 0 45 7t15 21q0 11 -11 17t-35 6h-53v136h103v-99l-62 43h14q70 0 110.5 -26.5t40.5 -79.5t-41.5 -90t-118.5 -37z
" />
    <glyph glyph-name="Egrave" unicode="&#xc8;" horiz-adv-x="594" 
d="M82 0v730h160v-730h-160zM222 0v136h319v-136h-319zM222 303v136h296v-136h-296zM222 594v136h312v-136h-312zM233 785l-128 179h174l108 -179h-154z" />
    <glyph glyph-name="Eacute" unicode="&#xc9;" horiz-adv-x="594" 
d="M82 0v730h160v-730h-160zM222 0v136h319v-136h-319zM222 303v136h296v-136h-296zM222 594v136h312v-136h-312zM223 785l125 179h172l-144 -179h-153z" />
    <glyph glyph-name="Ecircumflex" unicode="&#xca;" horiz-adv-x="594" 
d="M82 0v730h160v-730h-160zM222 0v136h319v-136h-319zM222 303v136h296v-136h-296zM222 594v136h312v-136h-312zM86 785l130 179h189l132 -179h-147l-73 103h-17l-71 -103h-143z" />
    <glyph glyph-name="Edieresis" unicode="&#xcb;" horiz-adv-x="594" 
d="M82 0v730h160v-730h-160zM222 0v136h319v-136h-319zM222 303v136h296v-136h-296zM222 594v136h312v-136h-312zM197 796q-44 0 -66 23t-22 59q0 37 22 60t66 23q46 0 67.5 -23t21.5 -60q0 -36 -21.5 -59t-67.5 -23zM421 796q-44 0 -66 23t-22 59q0 37 22 60t66 23
q46 0 67.5 -23t21.5 -60q0 -36 -21.5 -59t-67.5 -23z" />
    <glyph glyph-name="Igrave" unicode="&#xcc;" horiz-adv-x="332" 
d="M84 0v730h164v-730h-164zM90 785l-128 179h174l108 -179h-154z" />
    <glyph glyph-name="Iacute" unicode="&#xcd;" horiz-adv-x="332" 
d="M84 0v730h164v-730h-164zM80 785l125 179h172l-144 -179h-153z" />
    <glyph glyph-name="Icircumflex" unicode="&#xce;" horiz-adv-x="332" 
d="M84 0v730h164v-730h-164zM-56 785l130 179h189l132 -179h-147l-73 103h-17l-71 -103h-143z" />
    <glyph glyph-name="Idieresis" unicode="&#xcf;" horiz-adv-x="332" 
d="M84 0v730h164v-730h-164zM54 796q-44 0 -66 23t-22 59q0 37 22 60t66 23q46 0 67.5 -23t21.5 -60q0 -36 -21.5 -59t-67.5 -23zM278 796q-44 0 -66 23t-22 59q0 37 22 60t66 23q46 0 67.5 -23t21.5 -60q0 -36 -21.5 -59t-67.5 -23z" />
    <glyph glyph-name="Eth" unicode="&#xd0;" horiz-adv-x="781" 
d="M226 -4v153h136q51 0 92 15.5t70 44t44 69t15 89.5q0 51 -15 91t-44 68t-70 42.5t-92 14.5h-136v153h127q99 0 173 -29t124 -79t74.5 -114.5t24.5 -135.5v-22q0 -66 -24.5 -130.5t-74.5 -116t-124 -82.5t-173 -31h-127zM82 -4v740h164v-740h-164zM14 298v134h387v-134
h-387z" />
    <glyph glyph-name="Ntilde" unicode="&#xd1;" horiz-adv-x="876" 
d="M82 0v730h269l275 -597h34l-20 -18v615h154v-730h-271l-275 597h-34l20 18v-615h-152zM539 786q-31 0 -53.5 8t-40 18.5t-36.5 18.5t-44 8q-32 0 -55.5 -11.5t-37.5 -28.5l-24 108q17 21 46 35.5t71 14.5q32 0 54 -8t40 -18.5t37 -18.5t44 -8q32 0 55.5 12t37.5 29
l24 -109q-17 -21 -46 -35.5t-72 -14.5z" />
    <glyph glyph-name="Ograve" unicode="&#xd2;" horiz-adv-x="864" 
d="M432 -19q-99 0 -172.5 34.5t-121.5 91t-71.5 122.5t-23.5 127v22q0 68 24.5 134.5t73.5 120.5t122 86.5t169 32.5t169 -32.5t122 -86.5t74 -120.5t25 -134.5v-22q0 -61 -24 -127t-72 -122.5t-121.5 -91t-172.5 -34.5zM432 134q52 0 93.5 18t71 50t44.5 74t15 90
q0 51 -15.5 93.5t-45 74t-70.5 48.5t-93 17t-93 -17t-70.5 -48.5t-44.5 -74t-15 -93.5q0 -48 15 -90t44.5 -74t70.5 -50t93 -18zM356 785l-128 179h174l108 -179h-154z" />
    <glyph glyph-name="Oacute" unicode="&#xd3;" horiz-adv-x="864" 
d="M432 -19q-99 0 -172.5 34.5t-121.5 91t-71.5 122.5t-23.5 127v22q0 68 24.5 134.5t73.5 120.5t122 86.5t169 32.5t169 -32.5t122 -86.5t74 -120.5t25 -134.5v-22q0 -61 -24 -127t-72 -122.5t-121.5 -91t-172.5 -34.5zM432 134q52 0 93.5 18t71 50t44.5 74t15 90
q0 51 -15.5 93.5t-45 74t-70.5 48.5t-93 17t-93 -17t-70.5 -48.5t-44.5 -74t-15 -93.5q0 -48 15 -90t44.5 -74t70.5 -50t93 -18zM347 785l125 179h172l-144 -179h-153z" />
    <glyph glyph-name="Ocircumflex" unicode="&#xd4;" horiz-adv-x="864" 
d="M432 -19q-99 0 -172.5 34.5t-121.5 91t-71.5 122.5t-23.5 127v22q0 68 24.5 134.5t73.5 120.5t122 86.5t169 32.5t169 -32.5t122 -86.5t74 -120.5t25 -134.5v-22q0 -61 -24 -127t-72 -122.5t-121.5 -91t-172.5 -34.5zM432 134q52 0 93.5 18t71 50t44.5 74t15 90
q0 51 -15.5 93.5t-45 74t-70.5 48.5t-93 17t-93 -17t-70.5 -48.5t-44.5 -74t-15 -93.5q0 -48 15 -90t44.5 -74t70.5 -50t93 -18zM210 785l130 179h189l132 -179h-147l-73 103h-17l-71 -103h-143z" />
    <glyph glyph-name="Otilde" unicode="&#xd5;" horiz-adv-x="864" 
d="M432 -19q-99 0 -172.5 34.5t-121.5 91t-71.5 122.5t-23.5 127v22q0 68 24.5 134.5t73.5 120.5t122 86.5t169 32.5t169 -32.5t122 -86.5t74 -120.5t25 -134.5v-22q0 -61 -24 -127t-72 -122.5t-121.5 -91t-172.5 -34.5zM432 134q52 0 93.5 18t71 50t44.5 74t15 90
q0 51 -15.5 93.5t-45 74t-70.5 48.5t-93 17t-93 -17t-70.5 -48.5t-44.5 -74t-15 -93.5q0 -48 15 -90t44.5 -74t70.5 -50t93 -18zM521 786q-31 0 -53.5 8t-40 18.5t-36.5 18.5t-44 8q-32 0 -55.5 -11.5t-37.5 -28.5l-24 108q17 21 46 35.5t71 14.5q32 0 54 -8t40 -18.5
t37 -18.5t44 -8q32 0 55.5 12t37.5 29l24 -109q-17 -21 -46 -35.5t-72 -14.5z" />
    <glyph glyph-name="Odieresis" unicode="&#xd6;" horiz-adv-x="864" 
d="M432 -19q-99 0 -172.5 34.5t-121.5 91t-71.5 122.5t-23.5 127v22q0 68 24.5 134.5t73.5 120.5t122 86.5t169 32.5t169 -32.5t122 -86.5t74 -120.5t25 -134.5v-22q0 -61 -24 -127t-72 -122.5t-121.5 -91t-172.5 -34.5zM432 134q52 0 93.5 18t71 50t44.5 74t15 90
q0 51 -15.5 93.5t-45 74t-70.5 48.5t-93 17t-93 -17t-70.5 -48.5t-44.5 -74t-15 -93.5q0 -48 15 -90t44.5 -74t70.5 -50t93 -18zM320 796q-44 0 -66 23t-22 59q0 37 22 60t66 23q46 0 67.5 -23t21.5 -60q0 -36 -21.5 -59t-67.5 -23zM544 796q-44 0 -66 23t-22 59q0 37 22 60
t66 23q46 0 67.5 -23t21.5 -60q0 -36 -21.5 -59t-67.5 -23z" />
    <glyph glyph-name="multiply" unicode="&#xd7;" horiz-adv-x="596" 
d="M458 93l93 93l-412 411l-93 -93zM135 93l416 415l-89 89l-416 -415z" />
    <glyph glyph-name="Oslash" unicode="&#xd8;" horiz-adv-x="864" 
d="M83 -65l572 851h126l-572 -851h-126zM432 -19q-99 0 -172.5 34.5t-121.5 91t-71.5 122.5t-23.5 127v22q0 68 24.5 134.5t73.5 120.5t122 86.5t169 32.5t169 -32.5t122 -86.5t74 -120.5t25 -134.5v-22q0 -61 -24 -127t-72 -122.5t-121.5 -91t-172.5 -34.5zM432 134
q52 0 93.5 18t71 50t44.5 74t15 90q0 51 -15.5 93.5t-45 74t-70.5 48.5t-93 17t-93 -17t-70.5 -48.5t-44.5 -74t-15 -93.5q0 -48 15 -90t44.5 -74t70.5 -50t93 -18z" />
    <glyph glyph-name="Ugrave" unicode="&#xd9;" horiz-adv-x="776" 
d="M388 -19q-103 0 -174.5 38.5t-108.5 109.5t-37 168v433h164v-439q0 -48 18.5 -83.5t53 -54.5t84.5 -19q51 0 85.5 19t52.5 54t18 84v439h164v-433q0 -97 -37 -168t-108 -109.5t-175 -38.5zM312 785l-128 179h174l108 -179h-154z" />
    <glyph glyph-name="Uacute" unicode="&#xda;" horiz-adv-x="776" 
d="M388 -19q-103 0 -174.5 38.5t-108.5 109.5t-37 168v433h164v-439q0 -48 18.5 -83.5t53 -54.5t84.5 -19q51 0 85.5 19t52.5 54t18 84v439h164v-433q0 -97 -37 -168t-108 -109.5t-175 -38.5zM303 785l125 179h172l-144 -179h-153z" />
    <glyph glyph-name="Ucircumflex" unicode="&#xdb;" horiz-adv-x="776" 
d="M388 -19q-103 0 -174.5 38.5t-108.5 109.5t-37 168v433h164v-439q0 -48 18.5 -83.5t53 -54.5t84.5 -19q51 0 85.5 19t52.5 54t18 84v439h164v-433q0 -97 -37 -168t-108 -109.5t-175 -38.5zM166 785l130 179h189l132 -179h-147l-73 103h-17l-71 -103h-143z" />
    <glyph glyph-name="Udieresis" unicode="&#xdc;" horiz-adv-x="776" 
d="M388 -19q-103 0 -174.5 38.5t-108.5 109.5t-37 168v433h164v-439q0 -48 18.5 -83.5t53 -54.5t84.5 -19q51 0 85.5 19t52.5 54t18 84v439h164v-433q0 -97 -37 -168t-108 -109.5t-175 -38.5zM276 796q-44 0 -66 23t-22 59q0 37 22 60t66 23q46 0 67.5 -23t21.5 -60
q0 -36 -21.5 -59t-67.5 -23zM500 796q-44 0 -66 23t-22 59q0 37 22 60t66 23q46 0 67.5 -23t21.5 -60q0 -36 -21.5 -59t-67.5 -23z" />
    <glyph glyph-name="Yacute" unicode="&#xdd;" horiz-adv-x="657" 
d="M220 277l-213 453h168l153 -339l-29 9h84l-31 -9l138 339h159l-196 -453h-233zM256 0v300h161v-300h-161zM246 785l125 179h172l-144 -179h-153z" />
    <glyph glyph-name="Thorn" unicode="&#xde;" horiz-adv-x="652" 
d="M226 113v143h123q37 0 62.5 13.5t39.5 40t14 61.5q0 36 -14 62t-39.5 40.5t-62.5 14.5h-123v141h115q91 0 156 -30.5t99.5 -86.5t34.5 -133v-16q0 -76 -34.5 -132.5t-99.5 -87t-156 -30.5h-115zM82 0v730h164v-730h-164z" />
    <glyph glyph-name="germandbls" unicode="&#xdf;" horiz-adv-x="675" 
d="M391 -13q-27 0 -52.5 3t-43.5 9v130q18 -5 40 -8.5t41 -3.5q50 0 79.5 26t29.5 74q0 30 -13.5 56t-41.5 41t-72 15h-42v118h30q26 0 43.5 11t26.5 30t9 41q0 25 -10.5 45t-30 31.5t-46.5 11.5q-28 0 -49.5 -13t-34 -37.5t-12.5 -60.5v-506h-161v498q0 119 68.5 184
t186.5 65h4q75 0 130 -27t85 -73.5t30 -107.5q0 -48 -21.5 -86t-65.5 -59.5t-112 -21.5l2 41q84 0 141 -25.5t86.5 -72.5t29.5 -111q0 -73 -34.5 -121.5t-91.5 -72t-128 -23.5zM21 406v118h90v-118h-90z" />
    <glyph glyph-name="agrave" unicode="&#xe0;" horiz-adv-x="594" 
d="M404 0v162h-27v176q0 42 -20 63t-64 21q-22 0 -58 -1t-74 -3t-69 -4v135q23 2 54 4t64 3t62 1q84 0 141.5 -24t87.5 -72.5t30 -124.5v-336h-127zM229 -14q-59 0 -103.5 21t-69.5 60.5t-25 94.5q0 60 31 98.5t87 57t129 18.5h117v-89h-118q-42 0 -64.5 -20.5t-22.5 -55.5
q0 -33 22.5 -53.5t64.5 -20.5q27 0 48.5 9.5t35.5 32.5t16 64l38 -40q-5 -57 -27.5 -96t-62 -60t-96.5 -21zM222 612l-113 209h169l88 -209h-144z" />
    <glyph glyph-name="aacute" unicode="&#xe1;" horiz-adv-x="594" 
d="M404 0v162h-27v176q0 42 -20 63t-64 21q-22 0 -58 -1t-74 -3t-69 -4v135q23 2 54 4t64 3t62 1q84 0 141.5 -24t87.5 -72.5t30 -124.5v-336h-127zM229 -14q-59 0 -103.5 21t-69.5 60.5t-25 94.5q0 60 31 98.5t87 57t129 18.5h117v-89h-118q-42 0 -64.5 -20.5t-22.5 -55.5
q0 -33 22.5 -53.5t64.5 -20.5q27 0 48.5 9.5t35.5 32.5t16 64l38 -40q-5 -57 -27.5 -96t-62 -60t-96.5 -21zM211 612l90 209h164l-114 -209h-140z" />
    <glyph glyph-name="acircumflex" unicode="&#xe2;" horiz-adv-x="594" 
d="M404 0v162h-27v176q0 42 -20 63t-64 21q-22 0 -58 -1t-74 -3t-69 -4v135q23 2 54 4t64 3t62 1q84 0 141.5 -24t87.5 -72.5t30 -124.5v-336h-127zM229 -14q-59 0 -103.5 21t-69.5 60.5t-25 94.5q0 60 31 98.5t87 57t129 18.5h117v-89h-118q-42 0 -64.5 -20.5t-22.5 -55.5
q0 -33 22.5 -53.5t64.5 -20.5q27 0 48.5 9.5t35.5 32.5t16 64l38 -40q-5 -57 -27.5 -96t-62 -60t-96.5 -21zM90 612l103 209h195l105 -209h-135l-62 134h-13l-61 -134h-132z" />
    <glyph glyph-name="atilde" unicode="&#xe3;" horiz-adv-x="594" 
d="M404 0v162h-27v176q0 42 -20 63t-64 21q-22 0 -58 -1t-74 -3t-69 -4v135q23 2 54 4t64 3t62 1q84 0 141.5 -24t87.5 -72.5t30 -124.5v-336h-127zM229 -14q-59 0 -103.5 21t-69.5 60.5t-25 94.5q0 60 31 98.5t87 57t129 18.5h117v-89h-118q-42 0 -64.5 -20.5t-22.5 -55.5
q0 -33 22.5 -53.5t64.5 -20.5q27 0 48.5 9.5t35.5 32.5t16 64l38 -40q-5 -57 -27.5 -96t-62 -60t-96.5 -21zM369 624q-30 0 -50 8t-36.5 18t-33 17.5t-39.5 7.5q-26 0 -46.5 -10.5t-34.5 -25.5l-24 109q17 19 42.5 32t63.5 13q30 0 50 -7.5t36 -17.5t33 -18t39 -8
q27 0 47.5 10.5t35.5 25.5l23 -109q-17 -18 -43 -31.5t-63 -13.5z" />
    <glyph glyph-name="adieresis" unicode="&#xe4;" horiz-adv-x="594" 
d="M404 0v162h-27v176q0 42 -20 63t-64 21q-22 0 -58 -1t-74 -3t-69 -4v135q23 2 54 4t64 3t62 1q84 0 141.5 -24t87.5 -72.5t30 -124.5v-336h-127zM229 -14q-59 0 -103.5 21t-69.5 60.5t-25 94.5q0 60 31 98.5t87 57t129 18.5h117v-89h-118q-42 0 -64.5 -20.5t-22.5 -55.5
q0 -33 22.5 -53.5t64.5 -20.5q27 0 48.5 9.5t35.5 32.5t16 64l38 -40q-5 -57 -27.5 -96t-62 -60t-96.5 -21zM183 631q-45 0 -65 24t-20 59q0 36 20 60t65 24q44 0 64 -24t20 -60q0 -35 -20 -59t-64 -24zM398 631q-45 0 -65 24t-20 59q0 36 20 60t65 24q44 0 64 -24t20 -60
q0 -35 -20 -59t-64 -24z" />
    <glyph glyph-name="aring" unicode="&#xe5;" horiz-adv-x="594" 
d="M404 0v162h-27v176q0 42 -20 63t-64 21q-22 0 -58 -1t-74 -3t-69 -4v135q23 2 54 4t64 3t62 1q84 0 141.5 -24t87.5 -72.5t30 -124.5v-336h-127zM229 -14q-59 0 -103.5 21t-69.5 60.5t-25 94.5q0 60 31 98.5t87 57t129 18.5h117v-89h-118q-42 0 -64.5 -20.5t-22.5 -55.5
q0 -33 22.5 -53.5t64.5 -20.5q27 0 48.5 9.5t35.5 32.5t16 64l38 -40q-5 -57 -27.5 -96t-62 -60t-96.5 -21zM291 601q-57 0 -92.5 34.5t-35.5 87.5t35.5 87.5t92.5 34.5t92.5 -34.5t35.5 -87.5t-35.5 -87.5t-92.5 -34.5zM291 678q21 0 32.5 12.5t11.5 32.5q0 19 -11.5 32
t-32.5 13t-33 -12.5t-12 -32.5q0 -19 12 -32t33 -13z" />
    <glyph glyph-name="ae" unicode="&#xe6;" horiz-adv-x="957" 
d="M659 -19q-55 0 -97 15t-73 40.5t-51 58.5t-31 69h46q-5 -57 -34.5 -97t-77 -61t-107.5 -21q-61 0 -106.5 21t-71 60.5t-25.5 94.5q0 61 31 99t87 56.5t129 18.5h117v-88h-118q-42 0 -64.5 -21t-22.5 -55t22.5 -54.5t64.5 -20.5q27 0 49.5 10t36.5 34t14 66v131
q0 42 -20 63t-64 21q-22 0 -58 -1t-74 -3t-69 -4v135q23 2 54 4t63.5 3t60.5 1q83 0 134.5 -24.5t76 -71.5t26.5 -119h-101q11 60 40 111t80.5 82t127.5 31q87 0 147 -39.5t91.5 -103.5t31.5 -138v-51h-419v88h323l-53 -41q0 50 -14 84t-41.5 52t-68.5 18t-70 -19t-44.5 -55
t-15.5 -89q0 -48 14 -84t44.5 -55.5t77.5 -19.5q43 0 72 16t38 42h147q-12 -56 -46.5 -98.5t-88 -66.5t-120.5 -24z" />
    <glyph glyph-name="ccedilla" unicode="&#xe7;" horiz-adv-x="611" 
d="M319 -19q-71 0 -123.5 23.5t-87.5 63.5t-52 90.5t-17 104.5v19q0 56 18 107.5t53 91.5t87.5 63t120.5 23q74 0 131 -28.5t91 -79.5t38 -117h-157q-4 37 -29.5 62.5t-73.5 25.5q-40 0 -66.5 -20t-39.5 -55t-13 -83q0 -44 12 -79.5t38.5 -55t69.5 -19.5q32 0 54.5 11.5
t36 32t16.5 47.5h156q-3 -68 -38 -119.5t-93 -80t-132 -28.5zM314 -270q-23 0 -45 4t-35 8v98q14 -5 33.5 -8.5t40.5 -3.5q28 0 42 7.5t14 20.5q0 11 -9.5 17t-32.5 6h-53v134h97v-99l-56 43h13q69 0 107.5 -26.5t38.5 -77.5q0 -52 -39.5 -87.5t-115.5 -35.5z" />
    <glyph glyph-name="egrave" unicode="&#xe8;" horiz-adv-x="624" 
d="M324 -19q-70 0 -123.5 24t-89 64.5t-54 91t-18.5 103.5v20q0 55 18.5 105.5t53.5 90.5t87.5 63.5t119.5 23.5q88 0 148.5 -39.5t92.5 -103t32 -138.5v-54h-485v91h388l-52 -42q0 49 -14 84t-41.5 53.5t-68.5 18.5q-42 0 -71 -19t-44 -55.5t-15 -89.5q0 -49 14 -85.5
t44 -56.5t78 -20q44 0 72 17t38 42h147q-12 -55 -47 -98t-88 -67t-122 -24zM249 612l-113 209h169l88 -209h-144z" />
    <glyph glyph-name="eacute" unicode="&#xe9;" horiz-adv-x="624" 
d="M324 -19q-70 0 -123.5 24t-89 64.5t-54 91t-18.5 103.5v20q0 55 18.5 105.5t53.5 90.5t87.5 63.5t119.5 23.5q88 0 148.5 -39.5t92.5 -103t32 -138.5v-54h-485v91h388l-52 -42q0 49 -14 84t-41.5 53.5t-68.5 18.5q-42 0 -71 -19t-44 -55.5t-15 -89.5q0 -49 14 -85.5
t44 -56.5t78 -20q44 0 72 17t38 42h147q-12 -55 -47 -98t-88 -67t-122 -24zM239 612l90 209h164l-114 -209h-140z" />
    <glyph glyph-name="ecircumflex" unicode="&#xea;" horiz-adv-x="624" 
d="M324 -19q-70 0 -123.5 24t-89 64.5t-54 91t-18.5 103.5v20q0 55 18.5 105.5t53.5 90.5t87.5 63.5t119.5 23.5q88 0 148.5 -39.5t92.5 -103t32 -138.5v-54h-485v91h388l-52 -42q0 49 -14 84t-41.5 53.5t-68.5 18.5q-42 0 -71 -19t-44 -55.5t-15 -89.5q0 -49 14 -85.5
t44 -56.5t78 -20q44 0 72 17t38 42h147q-12 -55 -47 -98t-88 -67t-122 -24zM118 612l103 209h195l105 -209h-135l-62 134h-13l-61 -134h-132z" />
    <glyph glyph-name="edieresis" unicode="&#xeb;" horiz-adv-x="624" 
d="M324 -19q-70 0 -123.5 24t-89 64.5t-54 91t-18.5 103.5v20q0 55 18.5 105.5t53.5 90.5t87.5 63.5t119.5 23.5q88 0 148.5 -39.5t92.5 -103t32 -138.5v-54h-485v91h388l-52 -42q0 49 -14 84t-41.5 53.5t-68.5 18.5q-42 0 -71 -19t-44 -55.5t-15 -89.5q0 -49 14 -85.5
t44 -56.5t78 -20q44 0 72 17t38 42h147q-12 -55 -47 -98t-88 -67t-122 -24zM211 631q-45 0 -65 24t-20 59q0 36 20 60t65 24q44 0 64 -24t20 -60q0 -35 -20 -59t-64 -24zM426 631q-45 0 -65 24t-20 59q0 36 20 60t65 24q44 0 64 -24t20 -60q0 -35 -20 -59t-64 -24z" />
    <glyph glyph-name="igrave" unicode="&#xec;" horiz-adv-x="334" 
d="M99 0v548h160v-548h-160zM26 430v118h233v-118h-233zM84 612l-113 209h169l88 -209h-144z" />
    <glyph glyph-name="iacute" unicode="&#xed;" horiz-adv-x="334" 
d="M99 0v548h160v-548h-160zM26 430v118h233v-118h-233zM74 612l90 209h164l-114 -209h-140z" />
    <glyph glyph-name="icircumflex" unicode="&#xee;" horiz-adv-x="334" 
d="M99 0v548h160v-548h-160zM26 430v118h233v-118h-233zM-47 612l103 209h195l105 -209h-135l-62 134h-13l-61 -134h-132z" />
    <glyph glyph-name="idieresis" unicode="&#xef;" horiz-adv-x="334" 
d="M99 0v548h160v-548h-160zM26 430v118h233v-118h-233zM46 631q-45 0 -65 24t-20 59q0 36 20 60t65 24q44 0 64 -24t20 -60q0 -35 -20 -59t-64 -24zM261 631q-45 0 -65 24t-20 59q0 36 20 60t65 24q44 0 64 -24t20 -60q0 -35 -20 -59t-64 -24z" />
    <glyph glyph-name="eth" unicode="&#xf0;" horiz-adv-x="674" 
d="M338 -18q-72 0 -127.5 20.5t-93.5 56.5t-58 83.5t-20 100.5v17q0 75 33.5 131t93 87t134.5 31q56 0 102 -18t76.5 -51.5t37.5 -81.5h-12q-1 98 -22.5 156t-53.5 81q-20 16 -52.5 24t-75.5 8q-33 0 -65.5 -3.5t-63.5 -7.5v121q32 5 64.5 8t63.5 3q118 0 191.5 -46
t108 -135t34.5 -218v-26q0 -105 -33.5 -182t-99 -118t-162.5 -41zM339 117q44 0 75 16t47.5 46t16.5 73t-17 74t-48.5 47t-74.5 16q-42 0 -73.5 -16t-48.5 -47t-17 -74t16.5 -73t48 -46t75.5 -16zM381 512l-55 58l229 220l56 -59z" />
    <glyph glyph-name="ntilde" unicode="&#xf1;" horiz-adv-x="652" 
d="M73 0v548h127v-235h-9q0 84 21.5 140t65.5 84t107 28h7q96 0 146.5 -62.5t50.5 -189.5v-313h-160v322q0 44 -26 72t-70 28q-45 0 -72.5 -28.5t-27.5 -74.5v-319h-160zM412 624q-30 0 -50 8t-36.5 18t-33 17.5t-39.5 7.5q-26 0 -46.5 -10.5t-34.5 -25.5l-24 109
q17 19 42.5 32t63.5 13q30 0 50 -7.5t36 -17.5t33 -18t39 -8q27 0 47.5 10.5t35.5 25.5l23 -109q-17 -18 -43 -31.5t-63 -13.5z" />
    <glyph glyph-name="ograve" unicode="&#xf2;" horiz-adv-x="681" 
d="M340 -19q-72 0 -128 22.5t-94.5 61.5t-58.5 89.5t-20 106.5v23q0 57 20.5 108.5t60 90.5t95.5 61.5t125 22.5q71 0 126.5 -22.5t94.5 -61.5t60 -90.5t21 -108.5v-23q0 -56 -20 -106.5t-58.5 -89.5t-94.5 -61.5t-129 -22.5zM340 116q47 0 78 20t47.5 56t16.5 80
q0 47 -17 82.5t-48.5 56.5t-76.5 21q-44 0 -76 -21t-48.5 -56.5t-16.5 -82.5q0 -44 16 -80t48 -56t77 -20zM272 612l-113 209h169l88 -209h-144z" />
    <glyph glyph-name="oacute" unicode="&#xf3;" horiz-adv-x="681" 
d="M340 -19q-72 0 -128 22.5t-94.5 61.5t-58.5 89.5t-20 106.5v23q0 57 20.5 108.5t60 90.5t95.5 61.5t125 22.5q71 0 126.5 -22.5t94.5 -61.5t60 -90.5t21 -108.5v-23q0 -56 -20 -106.5t-58.5 -89.5t-94.5 -61.5t-129 -22.5zM340 116q47 0 78 20t47.5 56t16.5 80
q0 47 -17 82.5t-48.5 56.5t-76.5 21q-44 0 -76 -21t-48.5 -56.5t-16.5 -82.5q0 -44 16 -80t48 -56t77 -20zM261 612l90 209h164l-114 -209h-140z" />
    <glyph glyph-name="ocircumflex" unicode="&#xf4;" horiz-adv-x="681" 
d="M340 -19q-72 0 -128 22.5t-94.5 61.5t-58.5 89.5t-20 106.5v23q0 57 20.5 108.5t60 90.5t95.5 61.5t125 22.5q71 0 126.5 -22.5t94.5 -61.5t60 -90.5t21 -108.5v-23q0 -56 -20 -106.5t-58.5 -89.5t-94.5 -61.5t-129 -22.5zM340 116q47 0 78 20t47.5 56t16.5 80
q0 47 -17 82.5t-48.5 56.5t-76.5 21q-44 0 -76 -21t-48.5 -56.5t-16.5 -82.5q0 -44 16 -80t48 -56t77 -20zM140 612l103 209h195l105 -209h-135l-62 134h-13l-61 -134h-132z" />
    <glyph glyph-name="otilde" unicode="&#xf5;" horiz-adv-x="681" 
d="M340 -19q-72 0 -128 22.5t-94.5 61.5t-58.5 89.5t-20 106.5v23q0 57 20.5 108.5t60 90.5t95.5 61.5t125 22.5q71 0 126.5 -22.5t94.5 -61.5t60 -90.5t21 -108.5v-23q0 -56 -20 -106.5t-58.5 -89.5t-94.5 -61.5t-129 -22.5zM340 116q47 0 78 20t47.5 56t16.5 80
q0 47 -17 82.5t-48.5 56.5t-76.5 21q-44 0 -76 -21t-48.5 -56.5t-16.5 -82.5q0 -44 16 -80t48 -56t77 -20zM419 624q-30 0 -50 8t-36.5 18t-33 17.5t-39.5 7.5q-26 0 -46.5 -10.5t-34.5 -25.5l-24 109q17 19 42.5 32t63.5 13q30 0 50 -7.5t36 -17.5t33 -18t39 -8
q27 0 47.5 10.5t35.5 25.5l23 -109q-17 -18 -43 -31.5t-63 -13.5z" />
    <glyph glyph-name="odieresis" unicode="&#xf6;" horiz-adv-x="681" 
d="M340 -19q-72 0 -128 22.5t-94.5 61.5t-58.5 89.5t-20 106.5v23q0 57 20.5 108.5t60 90.5t95.5 61.5t125 22.5q71 0 126.5 -22.5t94.5 -61.5t60 -90.5t21 -108.5v-23q0 -56 -20 -106.5t-58.5 -89.5t-94.5 -61.5t-129 -22.5zM340 116q47 0 78 20t47.5 56t16.5 80
q0 47 -17 82.5t-48.5 56.5t-76.5 21q-44 0 -76 -21t-48.5 -56.5t-16.5 -82.5q0 -44 16 -80t48 -56t77 -20zM233 631q-45 0 -65 24t-20 59q0 36 20 60t65 24q44 0 64 -24t20 -60q0 -35 -20 -59t-64 -24zM448 631q-45 0 -65 24t-20 59q0 36 20 60t65 24q44 0 64 -24t20 -60
q0 -35 -20 -59t-64 -24z" />
    <glyph glyph-name="divide" unicode="&#xf7;" horiz-adv-x="596" 
d="M50 279v130h497v-130h-497zM224 60v146h149v-146h-149zM224 482v147h149v-147h-149z" />
    <glyph glyph-name="oslash" unicode="&#xf8;" horiz-adv-x="681" 
d="M70 -62l442 659h99l-443 -659h-98zM340 -19q-72 0 -128 22.5t-94.5 61.5t-58.5 89.5t-20 106.5v23q0 57 20.5 108.5t60 90.5t95.5 61.5t125 22.5q71 0 126.5 -22.5t94.5 -61.5t60 -90.5t21 -108.5v-23q0 -56 -20 -106.5t-58.5 -89.5t-94.5 -61.5t-129 -22.5zM340 116
q47 0 78 20t47.5 56t16.5 80q0 47 -17 82.5t-48.5 56.5t-76.5 21q-44 0 -76 -21t-48.5 -56.5t-16.5 -82.5q0 -44 16 -80t48 -56t77 -20z" />
    <glyph glyph-name="ugrave" unicode="&#xf9;" horiz-adv-x="645" 
d="M258 -17q-95 0 -146 61.5t-51 185.5v318h160v-326q0 -44 25 -70t67 -26q43 0 70 27t27 73v322h160v-548h-127v231h11q0 -83 -21.5 -138.5t-63.5 -82.5t-104 -27h-7zM247 612l-113 209h169l88 -209h-144z" />
    <glyph glyph-name="uacute" unicode="&#xfa;" horiz-adv-x="645" 
d="M258 -17q-95 0 -146 61.5t-51 185.5v318h160v-326q0 -44 25 -70t67 -26q43 0 70 27t27 73v322h160v-548h-127v231h11q0 -83 -21.5 -138.5t-63.5 -82.5t-104 -27h-7zM236 612l90 209h164l-114 -209h-140z" />
    <glyph glyph-name="ucircumflex" unicode="&#xfb;" horiz-adv-x="645" 
d="M258 -17q-95 0 -146 61.5t-51 185.5v318h160v-326q0 -44 25 -70t67 -26q43 0 70 27t27 73v322h160v-548h-127v231h11q0 -83 -21.5 -138.5t-63.5 -82.5t-104 -27h-7zM115 612l103 209h195l105 -209h-135l-62 134h-13l-61 -134h-132z" />
    <glyph glyph-name="udieresis" unicode="&#xfc;" horiz-adv-x="645" 
d="M258 -17q-95 0 -146 61.5t-51 185.5v318h160v-326q0 -44 25 -70t67 -26q43 0 70 27t27 73v322h160v-548h-127v231h11q0 -83 -21.5 -138.5t-63.5 -82.5t-104 -27h-7zM208 631q-45 0 -65 24t-20 59q0 36 20 60t65 24q44 0 64 -24t20 -60q0 -35 -20 -59t-64 -24zM423 631
q-45 0 -65 24t-20 59q0 36 20 60t65 24q44 0 64 -24t20 -60q0 -35 -20 -59t-64 -24z" />
    <glyph glyph-name="yacute" unicode="&#xfd;" horiz-adv-x="570" 
d="M67 -217v136h114q26 0 44 6.5t29 21.5t18 41l135 560h152l-153 -592q-16 -64 -44.5 -102t-76 -54.5t-120.5 -16.5h-98zM239 12v125h116v-125h-116zM173 12l-168 536h161l159 -536h-152zM208 612l90 209h164l-114 -209h-140z" />
    <glyph glyph-name="thorn" unicode="&#xfe;" horiz-adv-x="703" 
d="M73 -200v930h160v-385l-26 -12q3 71 30.5 122t75.5 79t113 28q55 0 99.5 -20.5t75.5 -57t47.5 -87.5t16.5 -112v-23q0 -61 -17 -111.5t-49.5 -88.5t-79 -58.5t-105.5 -20.5q-63 0 -113 25t-79.5 77t-32.5 133l44 -60v-358h-160zM368 116q41 0 71.5 20t47.5 56t17 82
q0 47 -17 81.5t-47.5 53.5t-71.5 19q-36 0 -68 -16t-51.5 -47.5t-19.5 -76.5v-37q0 -43 20.5 -73t52.5 -46t66 -16z" />
    <glyph glyph-name="ydieresis" unicode="&#xff;" horiz-adv-x="570" 
d="M67 -217v136h114q26 0 44 6.5t29 21.5t18 41l135 560h152l-153 -592q-16 -64 -44.5 -102t-76 -54.5t-120.5 -16.5h-98zM239 12v125h116v-125h-116zM173 12l-168 536h161l159 -536h-152zM180 631q-45 0 -65 24t-20 59q0 36 20 60t65 24q44 0 64 -24t20 -60q0 -35 -20 -59
t-64 -24zM395 631q-45 0 -65 24t-20 59q0 36 20 60t65 24q44 0 64 -24t20 -60q0 -35 -20 -59t-64 -24z" />
    <glyph glyph-name="Amacron" unicode="&#x100;" horiz-adv-x="782" 
d="M13 0l241 730h265l250 -730h-170l-202 617l52 -21h-129l54 21l-197 -617h-164zM196 181l50 136h286l51 -136h-387zM192 810v112h391v-112h-391z" />
    <glyph glyph-name="amacron" unicode="&#x101;" horiz-adv-x="594" 
d="M404 0v162h-27v176q0 42 -20 63t-64 21q-22 0 -58 -1t-74 -3t-69 -4v135q23 2 54 4t64 3t62 1q84 0 141.5 -24t87.5 -72.5t30 -124.5v-336h-127zM229 -14q-59 0 -103.5 21t-69.5 60.5t-25 94.5q0 60 31 98.5t87 57t129 18.5h117v-89h-118q-42 0 -64.5 -20.5t-22.5 -55.5
q0 -33 22.5 -53.5t64.5 -20.5q27 0 48.5 9.5t35.5 32.5t16 64l38 -40q-5 -57 -27.5 -96t-62 -60t-96.5 -21zM121 648v112h340v-112h-340z" />
    <glyph glyph-name="Abreve" unicode="&#x102;" horiz-adv-x="782" 
d="M13 0l241 730h265l250 -730h-170l-202 617l52 -21h-129l54 21l-197 -617h-164zM196 181l50 136h286l51 -136h-387zM387 775q-62 0 -104 23.5t-64 66t-24 99.5h115q2 -38 19.5 -60t57.5 -22q41 0 60.5 22t20.5 60h110q-2 -57 -23.5 -99.5t-63 -66t-104.5 -23.5z" />
    <glyph glyph-name="abreve" unicode="&#x103;" horiz-adv-x="594" 
d="M404 0v162h-27v176q0 42 -20 63t-64 21q-22 0 -58 -1t-74 -3t-69 -4v135q23 2 54 4t64 3t62 1q84 0 141.5 -24t87.5 -72.5t30 -124.5v-336h-127zM229 -14q-59 0 -103.5 21t-69.5 60.5t-25 94.5q0 60 31 98.5t87 57t129 18.5h117v-89h-118q-42 0 -64.5 -20.5t-22.5 -55.5
q0 -33 22.5 -53.5t64.5 -20.5q27 0 48.5 9.5t35.5 32.5t16 64l38 -40q-5 -57 -27.5 -96t-62 -60t-96.5 -21zM291 606q-86 0 -132.5 53t-49.5 162h117q2 -56 18 -79.5t47 -23.5t48.5 23.5t19.5 79.5h113q-3 -109 -49 -162t-132 -53z" />
    <glyph glyph-name="Aogonek" unicode="&#x104;" horiz-adv-x="782" 
d="M13 0l241 730h265l250 -730h-170l-202 617l52 -21h-129l54 21l-197 -617h-164zM196 181l50 136h286l51 -136h-387zM690 -257q-64 0 -105.5 38t-41.5 98q0 49 24 90t71 78l30 26l68 -73l-30 -27q-20 -16 -31.5 -34.5t-11.5 -37.5t12.5 -31t34.5 -12q13 0 25 2.5t20 6.5
v-116q-10 -4 -28.5 -6t-36.5 -2z" />
    <glyph glyph-name="aogonek" unicode="&#x105;" horiz-adv-x="594" 
d="M404 0v162h-27v176q0 42 -20 63t-64 21q-22 0 -58 -1t-74 -3t-69 -4v135q23 2 54 4t64 3t62 1q84 0 141.5 -24t87.5 -72.5t30 -124.5v-336h-127zM229 -14q-59 0 -103.5 21t-69.5 60.5t-25 94.5q0 60 31 98.5t87 57t129 18.5h117v-89h-118q-42 0 -64.5 -20.5t-22.5 -55.5
q0 -33 22.5 -53.5t64.5 -20.5q27 0 48.5 9.5t35.5 32.5t16 64l38 -40q-5 -57 -27.5 -96t-62 -60t-96.5 -21zM485 -242q-62 0 -99.5 33t-37.5 91q0 46 20.5 81.5t62.5 75.5l32 31l67 -70l-32 -33q-17 -16 -26.5 -30.5t-9.5 -30.5q0 -17 11.5 -26t30.5 -9q26 0 45 8v-113
q-11 -4 -29 -6t-35 -2z" />
    <glyph glyph-name="Cacute" unicode="&#x106;" horiz-adv-x="800" 
d="M417 -19q-99 0 -170 34.5t-116 91t-66.5 122t-21.5 127.5v22q0 68 22 134.5t67.5 120.5t115 86.5t164.5 32.5q99 0 175 -37t121.5 -102.5t53.5 -153.5h-165q-7 44 -32 75t-64.5 48t-88.5 17t-87 -17t-63.5 -48t-39 -73.5t-13.5 -94.5q0 -51 13.5 -93.5t40 -74t65.5 -48
t89 -16.5q76 0 128.5 37t63.5 102h164q-9 -80 -53.5 -146.5t-121 -106t-181.5 -39.5zM328 785l125 179h172l-144 -179h-153z" />
    <glyph glyph-name="cacute" unicode="&#x107;" horiz-adv-x="611" 
d="M319 -19q-71 0 -123.5 23.5t-87.5 63.5t-52 90.5t-17 104.5v19q0 56 18 107.5t53 91.5t87.5 63t120.5 23q74 0 131 -28.5t91 -79.5t38 -117h-157q-4 37 -29.5 62.5t-73.5 25.5q-40 0 -66.5 -20t-39.5 -55t-13 -83q0 -44 12 -79.5t38.5 -55t69.5 -19.5q32 0 54.5 11.5
t36 32t16.5 47.5h156q-3 -68 -38 -119.5t-93 -80t-132 -28.5zM239 612l90 209h164l-114 -209h-140z" />
    <glyph glyph-name="Ccircumflex" unicode="&#x108;" horiz-adv-x="800" 
d="M417 -19q-99 0 -170 34.5t-116 91t-66.5 122t-21.5 127.5v22q0 68 22 134.5t67.5 120.5t115 86.5t164.5 32.5q99 0 175 -37t121.5 -102.5t53.5 -153.5h-165q-7 44 -32 75t-64.5 48t-88.5 17t-87 -17t-63.5 -48t-39 -73.5t-13.5 -94.5q0 -51 13.5 -93.5t40 -74t65.5 -48
t89 -16.5q76 0 128.5 37t63.5 102h164q-9 -80 -53.5 -146.5t-121 -106t-181.5 -39.5zM191 785l130 179h189l132 -179h-147l-73 103h-17l-71 -103h-143z" />
    <glyph glyph-name="ccircumflex" unicode="&#x109;" horiz-adv-x="611" 
d="M319 -19q-71 0 -123.5 23.5t-87.5 63.5t-52 90.5t-17 104.5v19q0 56 18 107.5t53 91.5t87.5 63t120.5 23q74 0 131 -28.5t91 -79.5t38 -117h-157q-4 37 -29.5 62.5t-73.5 25.5q-40 0 -66.5 -20t-39.5 -55t-13 -83q0 -44 12 -79.5t38.5 -55t69.5 -19.5q32 0 54.5 11.5
t36 32t16.5 47.5h156q-3 -68 -38 -119.5t-93 -80t-132 -28.5zM118 612l103 209h195l105 -209h-135l-62 134h-13l-61 -134h-132z" />
    <glyph glyph-name="Cdotaccent" unicode="&#x10a;" horiz-adv-x="800" 
d="M417 -19q-99 0 -170 34.5t-116 91t-66.5 122t-21.5 127.5v22q0 68 22 134.5t67.5 120.5t115 86.5t164.5 32.5q99 0 175 -37t121.5 -102.5t53.5 -153.5h-165q-7 44 -32 75t-64.5 48t-88.5 17t-87 -17t-63.5 -48t-39 -73.5t-13.5 -94.5q0 -51 13.5 -93.5t40 -74t65.5 -48
t89 -16.5q76 0 128.5 37t63.5 102h164q-9 -80 -53.5 -146.5t-121 -106t-181.5 -39.5zM413 796q-44 0 -66 23t-22 59q0 37 22 60t66 23q46 0 67.5 -23t21.5 -60q0 -36 -21.5 -59t-67.5 -23z" />
    <glyph glyph-name="cdotaccent" unicode="&#x10b;" horiz-adv-x="611" 
d="M319 -19q-71 0 -123.5 23.5t-87.5 63.5t-52 90.5t-17 104.5v19q0 56 18 107.5t53 91.5t87.5 63t120.5 23q74 0 131 -28.5t91 -79.5t38 -117h-157q-4 37 -29.5 62.5t-73.5 25.5q-40 0 -66.5 -20t-39.5 -55t-13 -83q0 -44 12 -79.5t38.5 -55t69.5 -19.5q32 0 54.5 11.5
t36 32t16.5 47.5h156q-3 -68 -38 -119.5t-93 -80t-132 -28.5zM319 631q-45 0 -65 24t-20 59q0 36 20 60t65 24q44 0 64 -24t20 -60q0 -35 -20 -59t-64 -24z" />
    <glyph glyph-name="Ccaron" unicode="&#x10c;" horiz-adv-x="800" 
d="M417 -19q-99 0 -170 34.5t-116 91t-66.5 122t-21.5 127.5v22q0 68 22 134.5t67.5 120.5t115 86.5t164.5 32.5q99 0 175 -37t121.5 -102.5t53.5 -153.5h-165q-7 44 -32 75t-64.5 48t-88.5 17t-87 -17t-63.5 -48t-39 -73.5t-13.5 -94.5q0 -51 13.5 -93.5t40 -74t65.5 -48
t89 -16.5q76 0 128.5 37t63.5 102h164q-9 -80 -53.5 -146.5t-121 -106t-181.5 -39.5zM318 785l-132 179h147l72 -102h18l68 102h143l-128 -179h-188z" />
    <glyph glyph-name="ccaron" unicode="&#x10d;" horiz-adv-x="611" 
d="M319 -19q-71 0 -123.5 23.5t-87.5 63.5t-52 90.5t-17 104.5v19q0 56 18 107.5t53 91.5t87.5 63t120.5 23q74 0 131 -28.5t91 -79.5t38 -117h-157q-4 37 -29.5 62.5t-73.5 25.5q-40 0 -66.5 -20t-39.5 -55t-13 -83q0 -44 12 -79.5t38.5 -55t69.5 -19.5q32 0 54.5 11.5
t36 32t16.5 47.5h156q-3 -68 -38 -119.5t-93 -80t-132 -28.5zM214 612l-103 209h135l63 -134h12l55 134h131l-95 -209h-198z" />
    <glyph glyph-name="Dcaron" unicode="&#x10e;" horiz-adv-x="781" 
d="M226 -4v153h136q51 0 92 15.5t70 44t44 69t15 89.5q0 51 -15 91t-44 68t-70 42.5t-92 14.5h-136v153h127q99 0 173 -29t124 -79t74.5 -114.5t24.5 -135.5v-22q0 -66 -24.5 -130.5t-74.5 -116t-124 -82.5t-173 -31h-127zM82 -4v740h164v-740h-164zM284 785l-132 179h147
l72 -102h18l68 102h143l-128 -179h-188z" />
    <glyph glyph-name="dcaron" unicode="&#x10f;" horiz-adv-x="703" 
d="M299 -18q-58 0 -105.5 21t-82.5 58.5t-53.5 88.5t-18.5 110v23q0 59 17.5 110t51 89.5t80.5 60t105 21.5q66 0 114 -28.5t75 -84t30 -136.5l-42 39v376h161v-730h-127v227h22q-3 -78 -32.5 -133t-79.5 -83.5t-115 -28.5zM339 116q37 0 67.5 16.5t49 48.5t18.5 77v37
q0 44 -19 74t-50 46t-67 16q-40 0 -71.5 -20.5t-49.5 -56t-18 -82.5q0 -48 18 -83t50 -54t72 -19zM678 562v258h137l-17 -258h-120z" />
    <glyph glyph-name="Dcroat" unicode="&#x110;" horiz-adv-x="781" 
d="M226 -4v153h136q51 0 92 15.5t70 44t44 69t15 89.5q0 51 -15 91t-44 68t-70 42.5t-92 14.5h-136v153h127q99 0 173 -29t124 -79t74.5 -114.5t24.5 -135.5v-22q0 -66 -24.5 -130.5t-74.5 -116t-124 -82.5t-173 -31h-127zM82 -4v740h164v-740h-164zM14 298v134h387v-134
h-387z" />
    <glyph glyph-name="dcroat" unicode="&#x111;" horiz-adv-x="703" 
d="M299 -18q-58 0 -105.5 21t-82.5 58.5t-53.5 88.5t-18.5 110v23q0 59 17.5 110t51 89.5t80.5 60t105 21.5q66 0 114 -28.5t75 -84t30 -136.5l-42 39v376h161v-730h-127v227h22q-3 -78 -32.5 -133t-79.5 -83.5t-115 -28.5zM339 116q37 0 67.5 16.5t49 48.5t18.5 77v37
q0 44 -19 74t-50 46t-67 16q-40 0 -71.5 -20.5t-49.5 -56t-18 -82.5q0 -48 18 -83t50 -54t72 -19zM323 596v86h366v-86h-366z" />
    <glyph glyph-name="Emacron" unicode="&#x112;" horiz-adv-x="594" 
d="M82 0v730h160v-730h-160zM222 0v136h319v-136h-319zM222 303v136h296v-136h-296zM222 594v136h312v-136h-312zM114 810v112h391v-112h-391z" />
    <glyph glyph-name="emacron" unicode="&#x113;" horiz-adv-x="624" 
d="M324 -19q-70 0 -123.5 24t-89 64.5t-54 91t-18.5 103.5v20q0 55 18.5 105.5t53.5 90.5t87.5 63.5t119.5 23.5q88 0 148.5 -39.5t92.5 -103t32 -138.5v-54h-485v91h388l-52 -42q0 49 -14 84t-41.5 53.5t-68.5 18.5q-42 0 -71 -19t-44 -55.5t-15 -89.5q0 -49 14 -85.5
t44 -56.5t78 -20q44 0 72 17t38 42h147q-12 -55 -47 -98t-88 -67t-122 -24zM148 648v112h340v-112h-340z" />
    <glyph glyph-name="Ebreve" unicode="&#x114;" horiz-adv-x="594" 
d="M82 0v730h160v-730h-160zM222 0v136h319v-136h-319zM222 303v136h296v-136h-296zM222 594v136h312v-136h-312zM309 775q-62 0 -104 23.5t-64 66t-24 99.5h115q2 -38 19.5 -60t57.5 -22q41 0 60.5 22t20.5 60h110q-2 -57 -23.5 -99.5t-63 -66t-104.5 -23.5z" />
    <glyph glyph-name="ebreve" unicode="&#x115;" horiz-adv-x="624" 
d="M324 -19q-70 0 -123.5 24t-89 64.5t-54 91t-18.5 103.5v20q0 55 18.5 105.5t53.5 90.5t87.5 63.5t119.5 23.5q88 0 148.5 -39.5t92.5 -103t32 -138.5v-54h-485v91h388l-52 -42q0 49 -14 84t-41.5 53.5t-68.5 18.5q-42 0 -71 -19t-44 -55.5t-15 -89.5q0 -49 14 -85.5
t44 -56.5t78 -20q44 0 72 17t38 42h147q-12 -55 -47 -98t-88 -67t-122 -24zM319 606q-86 0 -132.5 53t-49.5 162h117q2 -56 18 -79.5t47 -23.5t48.5 23.5t19.5 79.5h113q-3 -109 -49 -162t-132 -53z" />
    <glyph glyph-name="Edotaccent" unicode="&#x116;" horiz-adv-x="594" 
d="M82 0v730h160v-730h-160zM222 0v136h319v-136h-319zM222 303v136h296v-136h-296zM222 594v136h312v-136h-312zM309 796q-44 0 -66 23t-22 59q0 37 22 60t66 23q46 0 67.5 -23t21.5 -60q0 -36 -21.5 -59t-67.5 -23z" />
    <glyph glyph-name="edotaccent" unicode="&#x117;" horiz-adv-x="624" 
d="M324 -19q-70 0 -123.5 24t-89 64.5t-54 91t-18.5 103.5v20q0 55 18.5 105.5t53.5 90.5t87.5 63.5t119.5 23.5q88 0 148.5 -39.5t92.5 -103t32 -138.5v-54h-485v91h388l-52 -42q0 49 -14 84t-41.5 53.5t-68.5 18.5q-42 0 -71 -19t-44 -55.5t-15 -89.5q0 -49 14 -85.5
t44 -56.5t78 -20q44 0 72 17t38 42h147q-12 -55 -47 -98t-88 -67t-122 -24zM318 631q-45 0 -65 24t-20 59q0 36 20 60t65 24q44 0 64 -24t20 -60q0 -35 -20 -59t-64 -24z" />
    <glyph glyph-name="Eogonek" unicode="&#x118;" horiz-adv-x="594" 
d="M82 0v730h160v-730h-160zM222 0v136h319v-136h-319zM222 303v136h296v-136h-296zM222 594v136h312v-136h-312zM495 -257q-64 0 -105.5 38t-41.5 98q0 49 24 90t71 78l30 26l68 -73l-30 -27q-20 -16 -31.5 -34.5t-11.5 -37.5t12.5 -31t34.5 -12q13 0 25 2.5t20 6.5v-116
q-10 -4 -28.5 -6t-36.5 -2z" />
    <glyph glyph-name="eogonek" unicode="&#x119;" horiz-adv-x="624" 
d="M324 -19q-70 0 -123.5 24t-89 64.5t-54 91t-18.5 103.5v20q0 55 18.5 105.5t53.5 90.5t87.5 63.5t119.5 23.5q88 0 148.5 -39.5t92.5 -103t32 -138.5v-54h-485v91h388l-52 -42q0 49 -14 84t-41.5 53.5t-68.5 18.5q-42 0 -71 -19t-44 -55.5t-15 -89.5q0 -49 14 -85.5
t44 -56.5t78 -20q44 0 72 17t38 42h147q-12 -55 -47 -98t-88 -67t-122 -24zM474 -189q-62 0 -99.5 33t-37.5 91q0 46 20.5 81.5t62.5 75.5l32 31l67 -70l-32 -33q-17 -16 -26.5 -30.5t-9.5 -30.5q0 -17 11.5 -26t30.5 -9q26 0 45 8v-113q-11 -4 -29 -6t-35 -2z" />
    <glyph glyph-name="Ecaron" unicode="&#x11a;" horiz-adv-x="594" 
d="M82 0v730h160v-730h-160zM222 0v136h319v-136h-319zM222 303v136h296v-136h-296zM222 594v136h312v-136h-312zM213 785l-132 179h147l72 -102h18l68 102h143l-128 -179h-188z" />
    <glyph glyph-name="ecaron" unicode="&#x11b;" horiz-adv-x="624" 
d="M324 -19q-70 0 -123.5 24t-89 64.5t-54 91t-18.5 103.5v20q0 55 18.5 105.5t53.5 90.5t87.5 63.5t119.5 23.5q88 0 148.5 -39.5t92.5 -103t32 -138.5v-54h-485v91h388l-52 -42q0 49 -14 84t-41.5 53.5t-68.5 18.5q-42 0 -71 -19t-44 -55.5t-15 -89.5q0 -49 14 -85.5
t44 -56.5t78 -20q44 0 72 17t38 42h147q-12 -55 -47 -98t-88 -67t-122 -24zM213 612l-103 209h135l63 -134h12l55 134h131l-95 -209h-198z" />
    <glyph glyph-name="Gcircumflex" unicode="&#x11c;" horiz-adv-x="833" 
d="M428 -19q-98 0 -171 32.5t-120.5 87.5t-70.5 122t-23 134v22q0 69 23 135t69.5 120t116 86t160.5 32q99 0 175 -36.5t122 -101t53 -149.5h-164q-6 40 -31.5 70t-65 47t-89.5 17q-48 0 -85.5 -17t-64 -48t-40 -73.5t-13.5 -93.5q0 -53 14.5 -96.5t42.5 -75t69.5 -48.5
t92.5 -17q68 0 118 28t72 74l-20 -112v174h151v-156q-47 -76 -129.5 -116.5t-191.5 -40.5zM407 262v118h402v-118h-402zM188 785l130 179h189l132 -179h-147l-73 103h-17l-71 -103h-143z" />
    <glyph glyph-name="gcircumflex" unicode="&#x11d;" horiz-adv-x="686" 
d="M289 -218q-40 0 -82 3t-77 8v135q35 -5 77.5 -8.5t77.5 -3.5q65 0 105.5 15t59.5 45.5t19 78.5v109l29 64q-2 -73 -28.5 -125t-73.5 -79.5t-112 -27.5q-56 0 -101.5 20.5t-77.5 57.5t-49 86.5t-17 107.5v23q0 58 18 108t52 87t81 57.5t104 20.5q66 0 114.5 -29t76.5 -85
t30 -135l-22 -6v239h127v-483q0 -101 -36 -163t-109.5 -91t-185.5 -29zM334 131q37 0 67 16.5t47.5 47.5t17.5 75v29q0 43 -18.5 72.5t-48.5 45t-64 15.5q-40 0 -71 -19t-48 -53t-17 -80q0 -47 17.5 -80.5t48 -51t69.5 -17.5zM129 612l103 209h195l105 -209h-135l-62 134
h-13l-61 -134h-132z" />
    <glyph glyph-name="Gbreve" unicode="&#x11e;" horiz-adv-x="833" 
d="M428 -19q-98 0 -171 32.5t-120.5 87.5t-70.5 122t-23 134v22q0 69 23 135t69.5 120t116 86t160.5 32q99 0 175 -36.5t122 -101t53 -149.5h-164q-6 40 -31.5 70t-65 47t-89.5 17q-48 0 -85.5 -17t-64 -48t-40 -73.5t-13.5 -93.5q0 -53 14.5 -96.5t42.5 -75t69.5 -48.5
t92.5 -17q68 0 118 28t72 74l-20 -112v174h151v-156q-47 -76 -129.5 -116.5t-191.5 -40.5zM407 262v118h402v-118h-402zM410 775q-62 0 -104 23.5t-64 66t-24 99.5h115q2 -38 19.5 -60t57.5 -22q41 0 60.5 22t20.5 60h110q-2 -57 -23.5 -99.5t-63 -66t-104.5 -23.5z" />
    <glyph glyph-name="gbreve" unicode="&#x11f;" horiz-adv-x="686" 
d="M289 -218q-40 0 -82 3t-77 8v135q35 -5 77.5 -8.5t77.5 -3.5q65 0 105.5 15t59.5 45.5t19 78.5v109l29 64q-2 -73 -28.5 -125t-73.5 -79.5t-112 -27.5q-56 0 -101.5 20.5t-77.5 57.5t-49 86.5t-17 107.5v23q0 58 18 108t52 87t81 57.5t104 20.5q66 0 114.5 -29t76.5 -85
t30 -135l-22 -6v239h127v-483q0 -101 -36 -163t-109.5 -91t-185.5 -29zM334 131q37 0 67 16.5t47.5 47.5t17.5 75v29q0 43 -18.5 72.5t-48.5 45t-64 15.5q-40 0 -71 -19t-48 -53t-17 -80q0 -47 17.5 -80.5t48 -51t69.5 -17.5zM330 606q-86 0 -132.5 53t-49.5 162h117
q2 -56 18 -79.5t47 -23.5t48.5 23.5t19.5 79.5h113q-3 -109 -49 -162t-132 -53z" />
    <glyph glyph-name="Gdotaccent" unicode="&#x120;" horiz-adv-x="833" 
d="M428 -19q-98 0 -171 32.5t-120.5 87.5t-70.5 122t-23 134v22q0 69 23 135t69.5 120t116 86t160.5 32q99 0 175 -36.5t122 -101t53 -149.5h-164q-6 40 -31.5 70t-65 47t-89.5 17q-48 0 -85.5 -17t-64 -48t-40 -73.5t-13.5 -93.5q0 -53 14.5 -96.5t42.5 -75t69.5 -48.5
t92.5 -17q68 0 118 28t72 74l-20 -112v174h151v-156q-47 -76 -129.5 -116.5t-191.5 -40.5zM407 262v118h402v-118h-402zM410 796q-44 0 -66 23t-22 59q0 37 22 60t66 23q46 0 67.5 -23t21.5 -60q0 -36 -21.5 -59t-67.5 -23z" />
    <glyph glyph-name="gdotaccent" unicode="&#x121;" horiz-adv-x="686" 
d="M289 -218q-40 0 -82 3t-77 8v135q35 -5 77.5 -8.5t77.5 -3.5q65 0 105.5 15t59.5 45.5t19 78.5v109l29 64q-2 -73 -28.5 -125t-73.5 -79.5t-112 -27.5q-56 0 -101.5 20.5t-77.5 57.5t-49 86.5t-17 107.5v23q0 58 18 108t52 87t81 57.5t104 20.5q66 0 114.5 -29t76.5 -85
t30 -135l-22 -6v239h127v-483q0 -101 -36 -163t-109.5 -91t-185.5 -29zM334 131q37 0 67 16.5t47.5 47.5t17.5 75v29q0 43 -18.5 72.5t-48.5 45t-64 15.5q-40 0 -71 -19t-48 -53t-17 -80q0 -47 17.5 -80.5t48 -51t69.5 -17.5zM329 631q-45 0 -65 24t-20 59q0 36 20 60t65 24
q44 0 64 -24t20 -60q0 -35 -20 -59t-64 -24z" />
    <glyph glyph-name="uni0122" unicode="&#x122;" horiz-adv-x="833" 
d="M428 -19q-98 0 -171 32.5t-120.5 87.5t-70.5 122t-23 134v22q0 69 23 135t69.5 120t116 86t160.5 32q99 0 175 -36.5t122 -101t53 -149.5h-164q-6 40 -31.5 70t-65 47t-89.5 17q-48 0 -85.5 -17t-64 -48t-40 -73.5t-13.5 -93.5q0 -53 14.5 -96.5t42.5 -75t69.5 -48.5
t92.5 -17q68 0 118 28t72 74l-20 -112v174h151v-156q-47 -76 -129.5 -116.5t-191.5 -40.5zM407 262v118h402v-118h-402zM357 -306v78h27q33 0 47 15t14 40v27l23 -4q-6 -12 -19.5 -21t-34.5 -9q-26 0 -44.5 16.5t-18.5 47.5q0 38 24.5 54.5t56.5 16.5q45 0 71 -30.5
t26 -85.5v-6q0 -68 -40 -103.5t-107 -35.5h-25z" />
    <glyph glyph-name="uni0123" unicode="&#x123;" horiz-adv-x="686" 
d="M289 -218q-40 0 -82 3t-77 8v135q35 -5 77.5 -8.5t77.5 -3.5q65 0 105.5 15t59.5 45.5t19 78.5v109l29 64q-2 -73 -28.5 -125t-73.5 -79.5t-112 -27.5q-56 0 -101.5 20.5t-77.5 57.5t-49 86.5t-17 107.5v23q0 58 18 108t52 87t81 57.5t104 20.5q66 0 114.5 -29t76.5 -85
t30 -135l-22 -6v239h127v-483q0 -101 -36 -163t-109.5 -91t-185.5 -29zM334 131q37 0 67 16.5t47.5 47.5t17.5 75v29q0 43 -18.5 72.5t-48.5 45t-64 15.5q-40 0 -71 -19t-48 -53t-17 -80q0 -47 17.5 -80.5t48 -51t69.5 -17.5zM335 596q-44 0 -69 30.5t-25 85.5v6
q0 67 39 102t105 35h23v-77h-25q-32 0 -45.5 -15.5t-12.5 -37.5v-29l-25 3q5 13 18.5 22t33.5 9q27 0 44 -16.5t17 -47.5q0 -37 -23.5 -53.5t-54.5 -16.5z" />
    <glyph glyph-name="Hbar" unicode="&#x126;" horiz-adv-x="800" 
d="M29 539v113h741v-113h-741zM554 0v730h164v-730h-164zM82 0v730h164v-730h-164zM217 295v144h366v-144h-366z" />
    <glyph glyph-name="hbar" unicode="&#x127;" horiz-adv-x="652" 
d="M73 0v730h160v-421h-24q0 83 21 140t62 86.5t103 29.5h7q91 0 139 -64.5t48 -188.5v-312h-160v322q0 45 -26.5 72.5t-69.5 27.5q-45 0 -72.5 -29t-27.5 -77v-316h-160zM15 595v86h366v-86h-366z" />
    <glyph glyph-name="Itilde" unicode="&#x128;" horiz-adv-x="332" 
d="M84 0v730h164v-730h-164zM255 786q-31 0 -53.5 8t-40 18.5t-36.5 18.5t-44 8q-32 0 -55.5 -11.5t-37.5 -28.5l-24 108q17 21 46 35.5t71 14.5q32 0 54 -8t40 -18.5t37 -18.5t44 -8q32 0 55.5 12t37.5 29l24 -109q-17 -21 -46 -35.5t-72 -14.5z" />
    <glyph glyph-name="itilde" unicode="&#x129;" horiz-adv-x="334" 
d="M99 0v548h160v-548h-160zM26 430v118h233v-118h-233zM232 624q-30 0 -50 8t-36.5 18t-33 17.5t-39.5 7.5q-26 0 -46.5 -10.5t-34.5 -25.5l-24 109q17 19 42.5 32t63.5 13q30 0 50 -7.5t36 -17.5t33 -18t39 -8q27 0 47.5 10.5t35.5 25.5l23 -109q-17 -18 -43 -31.5
t-63 -13.5z" />
    <glyph glyph-name="Imacron" unicode="&#x12a;" horiz-adv-x="332" 
d="M84 0v730h164v-730h-164zM-29 810v112h391v-112h-391z" />
    <glyph glyph-name="imacron" unicode="&#x12b;" horiz-adv-x="334" 
d="M99 0v548h160v-548h-160zM26 430v118h233v-118h-233zM-17 648v112h340v-112h-340z" />
    <glyph glyph-name="Ibreve" unicode="&#x12c;" horiz-adv-x="332" 
d="M84 0v730h164v-730h-164zM166 775q-62 0 -104 23.5t-64 66t-24 99.5h115q2 -38 19.5 -60t57.5 -22q41 0 60.5 22t20.5 60h110q-2 -57 -23.5 -99.5t-63 -66t-104.5 -23.5z" />
    <glyph glyph-name="ibreve" unicode="&#x12d;" horiz-adv-x="334" 
d="M99 0v548h160v-548h-160zM26 430v118h233v-118h-233zM154 606q-86 0 -132.5 53t-49.5 162h117q2 -56 18 -79.5t47 -23.5t48.5 23.5t19.5 79.5h113q-3 -109 -49 -162t-132 -53z" />
    <glyph glyph-name="Iogonek" unicode="&#x12e;" horiz-adv-x="332" 
d="M84 0v730h164v-730h-164zM194 -257q-64 0 -105.5 38t-41.5 98q0 49 24 90t71 78l30 26l68 -73l-30 -27q-20 -16 -31.5 -34.5t-11.5 -37.5t12.5 -31t34.5 -12q13 0 25 2.5t20 6.5v-116q-10 -4 -28.5 -6t-36.5 -2z" />
    <glyph glyph-name="iogonek" unicode="&#x12f;" horiz-adv-x="334" 
d="M99 0v548h160v-548h-160zM26 430v118h233v-118h-233zM161 602q-45 0 -66.5 23.5t-21.5 59.5q0 37 21.5 60.5t66.5 23.5t66.5 -23.5t21.5 -60.5q0 -36 -21.5 -59.5t-66.5 -23.5zM200 -242q-62 0 -99.5 33t-37.5 91q0 46 20.5 81.5t62.5 75.5l32 31l67 -70l-32 -33
q-17 -16 -26.5 -30.5t-9.5 -30.5q0 -17 11.5 -26t30.5 -9q26 0 45 8v-113q-11 -4 -29 -6t-35 -2z" />
    <glyph glyph-name="Idotaccent" unicode="&#x130;" horiz-adv-x="332" 
d="M84 0v730h164v-730h-164zM166 796q-44 0 -66 23t-22 59q0 37 22 60t66 23q46 0 67.5 -23t21.5 -60q0 -36 -21.5 -59t-67.5 -23z" />
    <glyph glyph-name="dotlessi" unicode="&#x131;" horiz-adv-x="334" 
d="M99 0v548h160v-548h-160zM26 430v118h233v-118h-233z" />
    <glyph glyph-name="Jcircumflex" unicode="&#x134;" horiz-adv-x="643" 
d="M303 -19q-83 0 -143.5 31.5t-93 91.5t-32.5 146v37h162v-46q0 -48 28.5 -77.5t78.5 -29.5q49 0 77.5 29.5t28.5 77.5v366h164v-357q0 -86 -32.5 -146t-93 -91.5t-144.5 -31.5zM119 587v143h454v-143h-454zM124 785l130 179h189l132 -179h-147l-73 103h-17l-71 -103h-143z
" />
    <glyph glyph-name="jcircumflex" unicode="&#x135;" horiz-adv-x="339" 
d="M4 -205v135h35q37 0 56 19.5t19 55.5v543h155v-538q0 -79 -24.5 -126t-77 -68t-134.5 -21h-29zM38 430v118h231v-118h-231zM-44 612l103 209h195l105 -209h-135l-62 134h-13l-61 -134h-132z" />
    <glyph glyph-name="uni0136" unicode="&#x136;" horiz-adv-x="752" 
d="M562 0l-252 341h-101l306 389h188l-275 -349l-2 71l334 -452h-198zM82 0v730h164v-730h-164zM325 -306v78h27q33 0 47 15t14 40v27l23 -4q-6 -12 -19.5 -21t-34.5 -9q-26 0 -44.5 16.5t-18.5 47.5q0 38 24.5 54.5t56.5 16.5q45 0 71 -30.5t26 -85.5v-6q0 -68 -40 -103.5
t-107 -35.5h-25z" />
    <glyph glyph-name="uni0137" unicode="&#x137;" horiz-adv-x="639" 
d="M459 0l-173 256h-77l223 292h168l-210 -272l2 78l247 -354h-180zM73 0v730h160v-730h-160zM341 -44q44 0 69 -30.5t25 -85.5v-6q0 -67 -39 -102t-105 -35h-23v77h25q32 0 45.5 15.5t12.5 37.5v29l25 -3q-5 -13 -18.5 -22t-33.5 -9q-27 0 -44 16.5t-17 47.5
q0 37 23.5 53.5t54.5 16.5z" />
    <glyph glyph-name="Lacute" unicode="&#x139;" horiz-adv-x="558" 
d="M82 0v730h164v-730h-164zM226 0v144h306v-144h-306zM78 785l125 179h172l-144 -179h-153z" />
    <glyph glyph-name="lacute" unicode="&#x13a;" horiz-adv-x="315" 
d="M80 0v730h161v-730h-161zM15 612v118h226v-118h-226zM48 785l125 179h172l-144 -179h-153z" />
    <glyph glyph-name="uni013B" unicode="&#x13b;" horiz-adv-x="558" 
d="M82 0v730h164v-730h-164zM226 0v144h306v-144h-306zM233 -306v78h27q33 0 47 15t14 40v27l23 -4q-6 -12 -19.5 -21t-34.5 -9q-26 0 -44.5 16.5t-18.5 47.5q0 38 24.5 54.5t56.5 16.5q45 0 71 -30.5t26 -85.5v-6q0 -68 -40 -103.5t-107 -35.5h-25z" />
    <glyph glyph-name="uni013C" unicode="&#x13c;" horiz-adv-x="315" 
d="M80 0v730h161v-730h-161zM15 612v118h226v-118h-226zM161 -44q44 0 69 -30.5t25 -85.5v-6q0 -67 -39 -102t-105 -35h-23v77h25q32 0 45.5 15.5t12.5 37.5v29l25 -3q-5 -13 -18.5 -22t-33.5 -9q-27 0 -44 16.5t-17 47.5q0 37 23.5 53.5t54.5 16.5z" />
    <glyph glyph-name="Lcaron" unicode="&#x13d;" horiz-adv-x="558" 
d="M82 0v730h164v-730h-164zM226 0v144h306v-144h-306zM335 569v258h137l-17 -258h-120z" />
    <glyph glyph-name="lcaron" unicode="&#x13e;" horiz-adv-x="315" 
d="M80 0v730h161v-730h-161zM15 612v118h226v-118h-226zM288 562v258h137l-17 -258h-120z" />
    <glyph glyph-name="Lslash" unicode="&#x141;" horiz-adv-x="558" 
d="M167 282v131l226 130v-130zM21 202v130l116 68v-131zM82 0v730h164v-730h-164zM226 0v144h306v-144h-306z" />
    <glyph glyph-name="lslash" unicode="&#x142;" horiz-adv-x="315" 
d="M12 192v117l120 67v-117zM188 287v117l118 64v-117zM80 0v730h161v-730h-161zM15 612v118h226v-118h-226z" />
    <glyph glyph-name="Nacute" unicode="&#x143;" horiz-adv-x="876" 
d="M82 0v730h269l275 -597h34l-20 -18v615h154v-730h-271l-275 597h-34l20 18v-615h-152zM365 785l125 179h172l-144 -179h-153z" />
    <glyph glyph-name="nacute" unicode="&#x144;" horiz-adv-x="652" 
d="M73 0v548h127v-235h-9q0 84 21.5 140t65.5 84t107 28h7q96 0 146.5 -62.5t50.5 -189.5v-313h-160v322q0 44 -26 72t-70 28q-45 0 -72.5 -28.5t-27.5 -74.5v-319h-160zM254 612l90 209h164l-114 -209h-140z" />
    <glyph glyph-name="uni0145" unicode="&#x145;" horiz-adv-x="876" 
d="M82 0v730h269l275 -597h34l-20 -18v615h154v-730h-271l-275 597h-34l20 18v-615h-152zM358 -306v78h27q33 0 47 15t14 40v27l23 -4q-6 -12 -19.5 -21t-34.5 -9q-26 0 -44.5 16.5t-18.5 47.5q0 38 24.5 54.5t56.5 16.5q45 0 71 -30.5t26 -85.5v-6q0 -68 -40 -103.5
t-107 -35.5h-25z" />
    <glyph glyph-name="uni0146" unicode="&#x146;" horiz-adv-x="652" 
d="M73 0v548h127v-235h-9q0 84 21.5 140t65.5 84t107 28h7q96 0 146.5 -62.5t50.5 -189.5v-313h-160v322q0 44 -26 72t-70 28q-45 0 -72.5 -28.5t-27.5 -74.5v-319h-160zM331 -44q44 0 69 -30.5t25 -85.5v-6q0 -67 -39 -102t-105 -35h-23v77h25q32 0 45.5 15.5t12.5 37.5v29
l25 -3q-5 -13 -18.5 -22t-33.5 -9q-27 0 -44 16.5t-17 47.5q0 37 23.5 53.5t54.5 16.5z" />
    <glyph glyph-name="Ncaron" unicode="&#x147;" horiz-adv-x="876" 
d="M82 0v730h269l275 -597h34l-20 -18v615h154v-730h-271l-275 597h-34l20 18v-615h-152zM355 785l-132 179h147l72 -102h18l68 102h143l-128 -179h-188z" />
    <glyph glyph-name="ncaron" unicode="&#x148;" horiz-adv-x="652" 
d="M73 0v548h127v-235h-9q0 84 21.5 140t65.5 84t107 28h7q96 0 146.5 -62.5t50.5 -189.5v-313h-160v322q0 44 -26 72t-70 28q-45 0 -72.5 -28.5t-27.5 -74.5v-319h-160zM229 612l-103 209h135l63 -134h12l55 134h131l-95 -209h-198z" />
    <glyph glyph-name="Eng" unicode="&#x14a;" horiz-adv-x="876" 
d="M444 -240v143h113q40 0 63 20t23 72v50l30 -28h-157l-268 580h-34l20 18v-615h-152v730h269l269 -582h40l-20 -18v600h154v-728q0 -77 -24.5 -131t-79 -82.5t-144.5 -28.5h-102z" />
    <glyph glyph-name="eng" unicode="&#x14b;" horiz-adv-x="652" 
d="M310 -203v136h52q38 0 52.5 16t14.5 44v37h160v-34q0 -104 -56 -151.5t-177 -47.5h-46zM73 0v548h127v-235h-9q0 84 21.5 140t65.5 84t107 28h7q96 0 146.5 -62.5t50.5 -189.5v-313h-160v322q0 44 -26 72t-70 28q-45 0 -72.5 -28.5t-27.5 -74.5v-319h-160z" />
    <glyph glyph-name="Omacron" unicode="&#x14c;" horiz-adv-x="864" 
d="M432 -19q-99 0 -172.5 34.5t-121.5 91t-71.5 122.5t-23.5 127v22q0 68 24.5 134.5t73.5 120.5t122 86.5t169 32.5t169 -32.5t122 -86.5t74 -120.5t25 -134.5v-22q0 -61 -24 -127t-72 -122.5t-121.5 -91t-172.5 -34.5zM432 134q52 0 93.5 18t71 50t44.5 74t15 90
q0 51 -15.5 93.5t-45 74t-70.5 48.5t-93 17t-93 -17t-70.5 -48.5t-44.5 -74t-15 -93.5q0 -48 15 -90t44.5 -74t70.5 -50t93 -18zM237 810v112h391v-112h-391z" />
    <glyph glyph-name="omacron" unicode="&#x14d;" horiz-adv-x="681" 
d="M340 -19q-72 0 -128 22.5t-94.5 61.5t-58.5 89.5t-20 106.5v23q0 57 20.5 108.5t60 90.5t95.5 61.5t125 22.5q71 0 126.5 -22.5t94.5 -61.5t60 -90.5t21 -108.5v-23q0 -56 -20 -106.5t-58.5 -89.5t-94.5 -61.5t-129 -22.5zM340 116q47 0 78 20t47.5 56t16.5 80
q0 47 -17 82.5t-48.5 56.5t-76.5 21q-44 0 -76 -21t-48.5 -56.5t-16.5 -82.5q0 -44 16 -80t48 -56t77 -20zM171 648v112h340v-112h-340z" />
    <glyph glyph-name="Obreve" unicode="&#x14e;" horiz-adv-x="864" 
d="M432 -19q-99 0 -172.5 34.5t-121.5 91t-71.5 122.5t-23.5 127v22q0 68 24.5 134.5t73.5 120.5t122 86.5t169 32.5t169 -32.5t122 -86.5t74 -120.5t25 -134.5v-22q0 -61 -24 -127t-72 -122.5t-121.5 -91t-172.5 -34.5zM432 134q52 0 93.5 18t71 50t44.5 74t15 90
q0 51 -15.5 93.5t-45 74t-70.5 48.5t-93 17t-93 -17t-70.5 -48.5t-44.5 -74t-15 -93.5q0 -48 15 -90t44.5 -74t70.5 -50t93 -18zM432 775q-62 0 -104 23.5t-64 66t-24 99.5h115q2 -38 19.5 -60t57.5 -22q41 0 60.5 22t20.5 60h110q-2 -57 -23.5 -99.5t-63 -66t-104.5 -23.5z
" />
    <glyph glyph-name="obreve" unicode="&#x14f;" horiz-adv-x="681" 
d="M340 -19q-72 0 -128 22.5t-94.5 61.5t-58.5 89.5t-20 106.5v23q0 57 20.5 108.5t60 90.5t95.5 61.5t125 22.5q71 0 126.5 -22.5t94.5 -61.5t60 -90.5t21 -108.5v-23q0 -56 -20 -106.5t-58.5 -89.5t-94.5 -61.5t-129 -22.5zM340 116q47 0 78 20t47.5 56t16.5 80
q0 47 -17 82.5t-48.5 56.5t-76.5 21q-44 0 -76 -21t-48.5 -56.5t-16.5 -82.5q0 -44 16 -80t48 -56t77 -20zM341 606q-86 0 -132.5 53t-49.5 162h117q2 -56 18 -79.5t47 -23.5t48.5 23.5t19.5 79.5h113q-3 -109 -49 -162t-132 -53z" />
    <glyph glyph-name="Ohungarumlaut" unicode="&#x150;" horiz-adv-x="864" 
d="M432 -19q-99 0 -172.5 34.5t-121.5 91t-71.5 122.5t-23.5 127v22q0 68 24.5 134.5t73.5 120.5t122 86.5t169 32.5t169 -32.5t122 -86.5t74 -120.5t25 -134.5v-22q0 -61 -24 -127t-72 -122.5t-121.5 -91t-172.5 -34.5zM432 134q52 0 93.5 18t71 50t44.5 74t15 90
q0 51 -15.5 93.5t-45 74t-70.5 48.5t-93 17t-93 -17t-70.5 -48.5t-44.5 -74t-15 -93.5q0 -48 15 -90t44.5 -74t70.5 -50t93 -18zM455 785l89 179h133l-102 -179h-120zM274 785l90 179h133l-103 -179h-120z" />
    <glyph glyph-name="ohungarumlaut" unicode="&#x151;" horiz-adv-x="681" 
d="M340 -19q-72 0 -128 22.5t-94.5 61.5t-58.5 89.5t-20 106.5v23q0 57 20.5 108.5t60 90.5t95.5 61.5t125 22.5q71 0 126.5 -22.5t94.5 -61.5t60 -90.5t21 -108.5v-23q0 -56 -20 -106.5t-58.5 -89.5t-94.5 -61.5t-129 -22.5zM340 116q47 0 78 20t47.5 56t16.5 80
q0 47 -17 82.5t-48.5 56.5t-76.5 21q-44 0 -76 -21t-48.5 -56.5t-16.5 -82.5q0 -44 16 -80t48 -56t77 -20zM370 612l80 209h127l-91 -209h-116zM188 612l81 209h126l-91 -209h-116z" />
    <glyph glyph-name="OE" unicode="&#x152;" horiz-adv-x="1045" 
d="M434 -21q-81 0 -144.5 23t-110 62t-77 88t-45 101.5t-14.5 101.5v22q0 68 24 134.5t73 120.5t122.5 87t171.5 33q39 0 73.5 -6t61.5 -16h124v-730h-124q-25 -10 -58.5 -15.5t-76.5 -5.5zM434 131q31 0 62.5 7t53.5 18l-17 -27v469l17 -23q-23 11 -53.5 17.5t-62.5 6.5
q-69 0 -119.5 -30.5t-78 -82.5t-27.5 -121q0 -48 15.5 -90.5t45 -75t71 -50.5t93.5 -18zM673 0v136h319v-136h-319zM673 303v136h297v-136h-297zM673 594v136h312v-136h-312z" />
    <glyph glyph-name="oe" unicode="&#x153;" horiz-adv-x="1066" 
d="M336 -18q-73 0 -128 23t-93 61.5t-57 89t-19 106.5v22q0 58 20 109t58.5 90.5t93.5 61.5t125 22q71 0 122.5 -22.5t86 -61.5t51 -90t16.5 -108h-102q0 54 14.5 104.5t45.5 90.5t79 63.5t115 23.5q88 0 147.5 -39.5t90.5 -103.5t31 -138v-53h-411v89h314l-52 -40
q0 50 -14 84t-41.5 52t-68.5 18t-70.5 -19t-44.5 -55.5t-15 -88.5q0 -48 14 -84.5t44 -56.5t78 -20q44 0 72 16t38 42h147q-18 -85 -84 -137t-169 -52q-70 0 -120 24.5t-80.5 65t-45 90.5t-14.5 102h102q-1 -55 -17 -105.5t-49 -90t-85 -62.5t-125 -23zM340 118
q47 0 78 20.5t47 55.5t16 79q0 46 -16.5 81.5t-48 56.5t-76.5 21q-44 0 -76 -21t-48.5 -56.5t-16.5 -81.5q0 -44 16 -79.5t48 -55.5t77 -20z" />
    <glyph glyph-name="Racute" unicode="&#x154;" horiz-adv-x="730" 
d="M82 0v736h164v-736h-164zM525 0l-214 314h180l224 -314h-190zM202 234v129h180q36 0 62.5 14.5t41 41t14.5 61.5t-14.5 61.5t-41 41t-62.5 14.5h-180v139h167q91 0 158 -27.5t103 -81.5t36 -136v-16q0 -81 -36.5 -134.5t-103 -80t-157.5 -26.5h-167zM261 785l125 179h172
l-144 -179h-153z" />
    <glyph glyph-name="racute" unicode="&#x155;" horiz-adv-x="421" 
d="M73 0v548h127v-235h-3q0 116 49.5 179t143.5 63h21v-138h-40q-66 0 -102 -35.5t-36 -102.5v-279h-160zM157 612l90 209h164l-114 -209h-140z" />
    <glyph glyph-name="uni0156" unicode="&#x156;" horiz-adv-x="730" 
d="M82 0v736h164v-736h-164zM525 0l-214 314h180l224 -314h-190zM202 234v129h180q36 0 62.5 14.5t41 41t14.5 61.5t-14.5 61.5t-41 41t-62.5 14.5h-180v139h167q91 0 158 -27.5t103 -81.5t36 -136v-16q0 -81 -36.5 -134.5t-103 -80t-157.5 -26.5h-167zM304 -306v78h27
q33 0 47 15t14 40v27l23 -4q-6 -12 -19.5 -21t-34.5 -9q-26 0 -44.5 16.5t-18.5 47.5q0 38 24.5 54.5t56.5 16.5q45 0 71 -30.5t26 -85.5v-6q0 -68 -40 -103.5t-107 -35.5h-25z" />
    <glyph glyph-name="uni0157" unicode="&#x157;" horiz-adv-x="421" 
d="M73 0v548h127v-235h-3q0 116 49.5 179t143.5 63h21v-138h-40q-66 0 -102 -35.5t-36 -102.5v-279h-160zM153 -44q44 0 69 -30.5t25 -85.5v-6q0 -67 -39 -102t-105 -35h-23v77h25q32 0 45.5 15.5t12.5 37.5v29l25 -3q-5 -13 -18.5 -22t-33.5 -9q-27 0 -44 16.5t-17 47.5
q0 37 23.5 53.5t54.5 16.5z" />
    <glyph glyph-name="Rcaron" unicode="&#x158;" horiz-adv-x="730" 
d="M82 0v736h164v-736h-164zM525 0l-214 314h180l224 -314h-190zM202 234v129h180q36 0 62.5 14.5t41 41t14.5 61.5t-14.5 61.5t-41 41t-62.5 14.5h-180v139h167q91 0 158 -27.5t103 -81.5t36 -136v-16q0 -81 -36.5 -134.5t-103 -80t-157.5 -26.5h-167zM251 785l-132 179
h147l72 -102h18l68 102h143l-128 -179h-188z" />
    <glyph glyph-name="rcaron" unicode="&#x159;" horiz-adv-x="421" 
d="M73 0v548h127v-235h-3q0 116 49.5 179t143.5 63h21v-138h-40q-66 0 -102 -35.5t-36 -102.5v-279h-160zM132 612l-103 209h135l63 -134h12l55 134h131l-95 -209h-198z" />
    <glyph glyph-name="Sacute" unicode="&#x15a;" horiz-adv-x="667" 
d="M336 -19q-99 0 -167 31.5t-103 86t-35 125.5h159q0 -28 15.5 -52t47.5 -38.5t83 -14.5q46 0 77 12t47 33.5t16 49.5q0 35 -30 55.5t-97 26.5l-55 5q-109 9 -174 68t-65 156q0 70 33.5 121t93.5 78.5t142 27.5q86 0 147.5 -29.5t94.5 -83t33 -125.5h-160q0 27 -13 49.5
t-38.5 36.5t-63.5 14q-36 0 -60.5 -12t-36.5 -32.5t-12 -44.5q0 -31 22 -54t72 -27l56 -5q80 -7 141 -34.5t95.5 -75t34.5 -115.5q0 -70 -36.5 -122.5t-103.5 -81.5t-160 -29zM238 785l125 179h172l-144 -179h-153z" />
    <glyph glyph-name="sacute" unicode="&#x15b;" horiz-adv-x="556" 
d="M281 -17q-117 0 -183 48t-70 135h142q4 -26 31.5 -46.5t82.5 -20.5q42 0 69.5 14.5t27.5 41.5q0 24 -21 38.5t-75 20.5l-43 4q-99 10 -148.5 55t-49.5 115q0 58 29 97t80.5 59t117.5 20q106 0 171 -46.5t68 -134.5h-142q-4 27 -28 45.5t-71 18.5q-37 0 -59 -14t-22 -38
q0 -23 19 -35t62 -17l43 -4q101 -11 157 -56t56 -121q0 -55 -30 -95.5t-85 -62t-129 -21.5zM193 612l90 209h164l-114 -209h-140z" />
    <glyph glyph-name="Scircumflex" unicode="&#x15c;" horiz-adv-x="667" 
d="M336 -19q-99 0 -167 31.5t-103 86t-35 125.5h159q0 -28 15.5 -52t47.5 -38.5t83 -14.5q46 0 77 12t47 33.5t16 49.5q0 35 -30 55.5t-97 26.5l-55 5q-109 9 -174 68t-65 156q0 70 33.5 121t93.5 78.5t142 27.5q86 0 147.5 -29.5t94.5 -83t33 -125.5h-160q0 27 -13 49.5
t-38.5 36.5t-63.5 14q-36 0 -60.5 -12t-36.5 -32.5t-12 -44.5q0 -31 22 -54t72 -27l56 -5q80 -7 141 -34.5t95.5 -75t34.5 -115.5q0 -70 -36.5 -122.5t-103.5 -81.5t-160 -29zM101 785l130 179h189l132 -179h-147l-73 103h-17l-71 -103h-143z" />
    <glyph glyph-name="scircumflex" unicode="&#x15d;" horiz-adv-x="556" 
d="M281 -17q-117 0 -183 48t-70 135h142q4 -26 31.5 -46.5t82.5 -20.5q42 0 69.5 14.5t27.5 41.5q0 24 -21 38.5t-75 20.5l-43 4q-99 10 -148.5 55t-49.5 115q0 58 29 97t80.5 59t117.5 20q106 0 171 -46.5t68 -134.5h-142q-4 27 -28 45.5t-71 18.5q-37 0 -59 -14t-22 -38
q0 -23 19 -35t62 -17l43 -4q101 -11 157 -56t56 -121q0 -55 -30 -95.5t-85 -62t-129 -21.5zM72 612l103 209h195l105 -209h-135l-62 134h-13l-61 -134h-132z" />
    <glyph glyph-name="Scedilla" unicode="&#x15e;" horiz-adv-x="667" 
d="M336 -19q-99 0 -167 31.5t-103 86t-35 125.5h159q0 -28 15.5 -52t47.5 -38.5t83 -14.5q46 0 77 12t47 33.5t16 49.5q0 35 -30 55.5t-97 26.5l-55 5q-109 9 -174 68t-65 156q0 70 33.5 121t93.5 78.5t142 27.5q86 0 147.5 -29.5t94.5 -83t33 -125.5h-160q0 27 -13 49.5
t-38.5 36.5t-63.5 14q-36 0 -60.5 -12t-36.5 -32.5t-12 -44.5q0 -31 22 -54t72 -27l56 -5q80 -7 141 -34.5t95.5 -75t34.5 -115.5q0 -70 -36.5 -122.5t-103.5 -81.5t-160 -29zM330 -276q-25 0 -48.5 3.5t-37.5 8.5v102q15 -4 35.5 -8t43.5 -4q30 0 45 7t15 21q0 11 -11 17
t-35 6h-53v136h103v-99l-62 43h14q70 0 110.5 -26.5t40.5 -79.5t-41.5 -90t-118.5 -37z" />
    <glyph glyph-name="scedilla" unicode="&#x15f;" horiz-adv-x="556" 
d="M281 -17q-117 0 -183 48t-70 135h142q4 -26 31.5 -46.5t82.5 -20.5q42 0 69.5 14.5t27.5 41.5q0 24 -21 38.5t-75 20.5l-43 4q-99 10 -148.5 55t-49.5 115q0 58 29 97t80.5 59t117.5 20q106 0 171 -46.5t68 -134.5h-142q-4 27 -28 45.5t-71 18.5q-37 0 -59 -14t-22 -38
q0 -23 19 -35t62 -17l43 -4q101 -11 157 -56t56 -121q0 -55 -30 -95.5t-85 -62t-129 -21.5zM275 -270q-23 0 -45 4t-35 8v98q14 -5 33.5 -8.5t40.5 -3.5q28 0 42 7.5t14 20.5q0 11 -9.5 17t-32.5 6h-53v134h97v-99l-56 43h13q69 0 107.5 -26.5t38.5 -77.5q0 -52 -39.5 -87.5
t-115.5 -35.5z" />
    <glyph glyph-name="Scaron" unicode="&#x160;" horiz-adv-x="667" 
d="M336 -19q-99 0 -167 31.5t-103 86t-35 125.5h159q0 -28 15.5 -52t47.5 -38.5t83 -14.5q46 0 77 12t47 33.5t16 49.5q0 35 -30 55.5t-97 26.5l-55 5q-109 9 -174 68t-65 156q0 70 33.5 121t93.5 78.5t142 27.5q86 0 147.5 -29.5t94.5 -83t33 -125.5h-160q0 27 -13 49.5
t-38.5 36.5t-63.5 14q-36 0 -60.5 -12t-36.5 -32.5t-12 -44.5q0 -31 22 -54t72 -27l56 -5q80 -7 141 -34.5t95.5 -75t34.5 -115.5q0 -70 -36.5 -122.5t-103.5 -81.5t-160 -29zM228 785l-132 179h147l72 -102h18l68 102h143l-128 -179h-188z" />
    <glyph glyph-name="scaron" unicode="&#x161;" horiz-adv-x="556" 
d="M281 -17q-117 0 -183 48t-70 135h142q4 -26 31.5 -46.5t82.5 -20.5q42 0 69.5 14.5t27.5 41.5q0 24 -21 38.5t-75 20.5l-43 4q-99 10 -148.5 55t-49.5 115q0 58 29 97t80.5 59t117.5 20q106 0 171 -46.5t68 -134.5h-142q-4 27 -28 45.5t-71 18.5q-37 0 -59 -14t-22 -38
q0 -23 19 -35t62 -17l43 -4q101 -11 157 -56t56 -121q0 -55 -30 -95.5t-85 -62t-129 -21.5zM168 612l-103 209h135l63 -134h12l55 134h131l-95 -209h-198z" />
    <glyph glyph-name="uni0162" unicode="&#x162;" horiz-adv-x="618" 
d="M227 0v607h164v-607h-164zM22 587v143h575v-143h-575zM304 -276q-25 0 -48.5 3.5t-37.5 8.5v102q15 -4 35.5 -8t43.5 -4q30 0 45 7t15 21q0 11 -11 17t-35 6h-53v136h103v-99l-62 43h14q70 0 110.5 -26.5t40.5 -79.5t-41.5 -90t-118.5 -37z" />
    <glyph glyph-name="uni0163" unicode="&#x163;" horiz-adv-x="434" 
d="M322 -7q-83 0 -134 20.5t-74.5 69t-23.5 131.5v482h149v-488q0 -39 20.5 -59.5t58.5 -20.5h81v-135h-77zM7 431v117h392v-117h-392zM241 -270q-23 0 -45 4t-35 8v98q14 -5 33.5 -8.5t40.5 -3.5q28 0 42 7.5t14 20.5q0 11 -9.5 17t-32.5 6h-53v134h97v-99l-56 43h13
q69 0 107.5 -26.5t38.5 -77.5q0 -52 -39.5 -87.5t-115.5 -35.5z" />
    <glyph glyph-name="Tcaron" unicode="&#x164;" horiz-adv-x="618" 
d="M227 0v607h164v-607h-164zM22 587v143h575v-143h-575zM213 785l-132 179h147l72 -102h18l68 102h143l-128 -179h-188z" />
    <glyph glyph-name="tcaron" unicode="&#x165;" horiz-adv-x="434" 
d="M322 -7q-83 0 -134 20.5t-74.5 69t-23.5 131.5v482h149v-488q0 -39 20.5 -59.5t58.5 -20.5h81v-135h-77zM7 431v117h392v-117h-392zM292 604v258h137l-17 -258h-120z" />
    <glyph glyph-name="Tbar" unicode="&#x166;" horiz-adv-x="618" 
d="M83 295v113h452v-113h-452zM227 0v607h164v-607h-164zM22 587v143h575v-143h-575z" />
    <glyph glyph-name="tbar" unicode="&#x167;" horiz-adv-x="434" 
d="M322 -7q-83 0 -134 20.5t-74.5 69t-23.5 131.5v482h149v-488q0 -39 20.5 -59.5t58.5 -20.5h81v-135h-77zM7 431v117h392v-117h-392zM17 247v86h366v-86h-366z" />
    <glyph glyph-name="Utilde" unicode="&#x168;" horiz-adv-x="776" 
d="M388 -19q-103 0 -174.5 38.5t-108.5 109.5t-37 168v433h164v-439q0 -48 18.5 -83.5t53 -54.5t84.5 -19q51 0 85.5 19t52.5 54t18 84v439h164v-433q0 -97 -37 -168t-108 -109.5t-175 -38.5zM477 786q-31 0 -53.5 8t-40 18.5t-36.5 18.5t-44 8q-32 0 -55.5 -11.5
t-37.5 -28.5l-24 108q17 21 46 35.5t71 14.5q32 0 54 -8t40 -18.5t37 -18.5t44 -8q32 0 55.5 12t37.5 29l24 -109q-17 -21 -46 -35.5t-72 -14.5z" />
    <glyph glyph-name="utilde" unicode="&#x169;" horiz-adv-x="645" 
d="M258 -17q-95 0 -146 61.5t-51 185.5v318h160v-326q0 -44 25 -70t67 -26q43 0 70 27t27 73v322h160v-548h-127v231h11q0 -83 -21.5 -138.5t-63.5 -82.5t-104 -27h-7zM394 624q-30 0 -50 8t-36.5 18t-33 17.5t-39.5 7.5q-26 0 -46.5 -10.5t-34.5 -25.5l-24 109
q17 19 42.5 32t63.5 13q30 0 50 -7.5t36 -17.5t33 -18t39 -8q27 0 47.5 10.5t35.5 25.5l23 -109q-17 -18 -43 -31.5t-63 -13.5z" />
    <glyph glyph-name="Umacron" unicode="&#x16a;" horiz-adv-x="776" 
d="M388 -19q-103 0 -174.5 38.5t-108.5 109.5t-37 168v433h164v-439q0 -48 18.5 -83.5t53 -54.5t84.5 -19q51 0 85.5 19t52.5 54t18 84v439h164v-433q0 -97 -37 -168t-108 -109.5t-175 -38.5zM193 810v112h391v-112h-391z" />
    <glyph glyph-name="umacron" unicode="&#x16b;" horiz-adv-x="645" 
d="M258 -17q-95 0 -146 61.5t-51 185.5v318h160v-326q0 -44 25 -70t67 -26q43 0 70 27t27 73v322h160v-548h-127v231h11q0 -83 -21.5 -138.5t-63.5 -82.5t-104 -27h-7zM146 648v112h340v-112h-340z" />
    <glyph glyph-name="Ubreve" unicode="&#x16c;" horiz-adv-x="776" 
d="M388 -19q-103 0 -174.5 38.5t-108.5 109.5t-37 168v433h164v-439q0 -48 18.5 -83.5t53 -54.5t84.5 -19q51 0 85.5 19t52.5 54t18 84v439h164v-433q0 -97 -37 -168t-108 -109.5t-175 -38.5zM388 775q-62 0 -104 23.5t-64 66t-24 99.5h115q2 -38 19.5 -60t57.5 -22
q41 0 60.5 22t20.5 60h110q-2 -57 -23.5 -99.5t-63 -66t-104.5 -23.5z" />
    <glyph glyph-name="ubreve" unicode="&#x16d;" horiz-adv-x="645" 
d="M258 -17q-95 0 -146 61.5t-51 185.5v318h160v-326q0 -44 25 -70t67 -26q43 0 70 27t27 73v322h160v-548h-127v231h11q0 -83 -21.5 -138.5t-63.5 -82.5t-104 -27h-7zM316 606q-86 0 -132.5 53t-49.5 162h117q2 -56 18 -79.5t47 -23.5t48.5 23.5t19.5 79.5h113
q-3 -109 -49 -162t-132 -53z" />
    <glyph glyph-name="Uring" unicode="&#x16e;" horiz-adv-x="776" 
d="M388 -19q-103 0 -174.5 38.5t-108.5 109.5t-37 168v433h164v-439q0 -48 18.5 -83.5t53 -54.5t84.5 -19q51 0 85.5 19t52.5 54t18 84v439h164v-433q0 -97 -37 -168t-108 -109.5t-175 -38.5zM388 762q-58 0 -94 31.5t-36 81.5t36 81t94 31q59 0 95 -31t36 -81t-36 -81.5
t-95 -31.5zM388 834q21 0 33 11.5t12 29.5q0 17 -12 28.5t-33 11.5t-32.5 -11.5t-11.5 -28.5q0 -18 11.5 -29.5t32.5 -11.5z" />
    <glyph glyph-name="uring" unicode="&#x16f;" horiz-adv-x="645" 
d="M258 -17q-95 0 -146 61.5t-51 185.5v318h160v-326q0 -44 25 -70t67 -26q43 0 70 27t27 73v322h160v-548h-127v231h11q0 -83 -21.5 -138.5t-63.5 -82.5t-104 -27h-7zM316 601q-57 0 -92.5 34.5t-35.5 87.5t35.5 87.5t92.5 34.5t92.5 -34.5t35.5 -87.5t-35.5 -87.5
t-92.5 -34.5zM316 678q21 0 32.5 12.5t11.5 32.5q0 19 -11.5 32t-32.5 13t-33 -12.5t-12 -32.5q0 -19 12 -32t33 -13z" />
    <glyph glyph-name="Uhungarumlaut" unicode="&#x170;" horiz-adv-x="776" 
d="M388 -19q-103 0 -174.5 38.5t-108.5 109.5t-37 168v433h164v-439q0 -48 18.5 -83.5t53 -54.5t84.5 -19q51 0 85.5 19t52.5 54t18 84v439h164v-433q0 -97 -37 -168t-108 -109.5t-175 -38.5zM411 785l89 179h133l-102 -179h-120zM230 785l90 179h133l-103 -179h-120z" />
    <glyph glyph-name="uhungarumlaut" unicode="&#x171;" horiz-adv-x="645" 
d="M258 -17q-95 0 -146 61.5t-51 185.5v318h160v-326q0 -44 25 -70t67 -26q43 0 70 27t27 73v322h160v-548h-127v231h11q0 -83 -21.5 -138.5t-63.5 -82.5t-104 -27h-7zM345 612l80 209h127l-91 -209h-116zM163 612l81 209h126l-91 -209h-116z" />
    <glyph glyph-name="Uogonek" unicode="&#x172;" horiz-adv-x="776" 
d="M388 -19q-103 0 -174.5 38.5t-108.5 109.5t-37 168v433h164v-439q0 -48 18.5 -83.5t53 -54.5t84.5 -19q51 0 85.5 19t52.5 54t18 84v439h164v-433q0 -97 -37 -168t-108 -109.5t-175 -38.5zM491 -252q-64 0 -105.5 38t-41.5 98q0 49 24 90t71 78l30 26l68 -73l-30 -27
q-20 -16 -31.5 -34.5t-11.5 -37.5t12.5 -31t34.5 -12q13 0 25 2.5t20 6.5v-116q-10 -4 -28.5 -6t-36.5 -2z" />
    <glyph glyph-name="uogonek" unicode="&#x173;" horiz-adv-x="645" 
d="M258 -17q-95 0 -146 61.5t-51 185.5v318h160v-326q0 -44 25 -70t67 -26q43 0 70 27t27 73v322h160v-548h-127v231h11q0 -83 -21.5 -138.5t-63.5 -82.5t-104 -27h-7zM524 -242q-62 0 -99.5 33t-37.5 91q0 46 20.5 81.5t62.5 75.5l32 31l67 -70l-32 -33
q-17 -16 -26.5 -30.5t-9.5 -30.5q0 -17 11.5 -26t30.5 -9q26 0 45 8v-113q-11 -4 -29 -6t-35 -2z" />
    <glyph glyph-name="Wcircumflex" unicode="&#x174;" horiz-adv-x="1071" 
d="M201 0l-180 730h169l141 -620l-35 23h91l-39 -23l109 593h136l-143 -703h-249zM636 0l-154 703h143l126 -593l-38 23h87l-33 -23l123 620h160l-160 -730h-254zM314 785l130 179h189l132 -179h-147l-73 103h-17l-71 -103h-143z" />
    <glyph glyph-name="wcircumflex" unicode="&#x175;" horiz-adv-x="922" 
d="M274 0l100 530h175l116 -530h-124l-119 526h71l-107 -526h-112zM236 0l-1 133h110l1 -133h-110zM164 0l-147 548h157l137 -548h-147zM582 0l1 133h110v-133h-111zM627 0l122 548h147l-132 -548h-137zM261 612l103 209h195l105 -209h-135l-62 134h-13l-61 -134h-132z" />
    <glyph glyph-name="Ycircumflex" unicode="&#x176;" horiz-adv-x="657" 
d="M220 277l-213 453h168l153 -339l-29 9h84l-31 -9l138 339h159l-196 -453h-233zM256 0v300h161v-300h-161zM109 785l130 179h189l132 -179h-147l-73 103h-17l-71 -103h-143z" />
    <glyph glyph-name="ycircumflex" unicode="&#x177;" horiz-adv-x="570" 
d="M67 -217v136h114q26 0 44 6.5t29 21.5t18 41l135 560h152l-153 -592q-16 -64 -44.5 -102t-76 -54.5t-120.5 -16.5h-98zM239 12v125h116v-125h-116zM173 12l-168 536h161l159 -536h-152zM87 612l103 209h195l105 -209h-135l-62 134h-13l-61 -134h-132z" />
    <glyph glyph-name="Ydieresis" unicode="&#x178;" horiz-adv-x="657" 
d="M220 277l-213 453h168l153 -339l-29 9h84l-31 -9l138 339h159l-196 -453h-233zM256 0v300h161v-300h-161zM219 796q-44 0 -66 23t-22 59q0 37 22 60t66 23q46 0 67.5 -23t21.5 -60q0 -36 -21.5 -59t-67.5 -23zM443 796q-44 0 -66 23t-22 59q0 37 22 60t66 23
q46 0 67.5 -23t21.5 -60q0 -36 -21.5 -59t-67.5 -23z" />
    <glyph glyph-name="Zacute" unicode="&#x179;" horiz-adv-x="647" 
d="M38 0v123l380 468l3 -20l-32 42l22 -17h-360v134h561v-123l-381 -468l-4 22l34 -45l-24 19h375v-135h-574zM243 785l125 179h172l-144 -179h-153z" />
    <glyph glyph-name="zacute" unicode="&#x17a;" horiz-adv-x="502" 
d="M37 0v112l257 308v-16l-24 30l18 -9h-250v123h431v-112l-257 -308v15l24 -30l-18 10h259v-123h-440zM172 612l90 209h164l-114 -209h-140z" />
    <glyph glyph-name="Zdotaccent" unicode="&#x17b;" horiz-adv-x="647" 
d="M38 0v123l380 468l3 -20l-32 42l22 -17h-360v134h561v-123l-381 -468l-4 22l34 -45l-24 19h375v-135h-574zM329 796q-44 0 -66 23t-22 59q0 37 22 60t66 23q46 0 67.5 -23t21.5 -60q0 -36 -21.5 -59t-67.5 -23z" />
    <glyph glyph-name="zdotaccent" unicode="&#x17c;" horiz-adv-x="502" 
d="M37 0v112l257 308v-16l-24 30l18 -9h-250v123h431v-112l-257 -308v15l24 -30l-18 10h259v-123h-440zM251 631q-45 0 -65 24t-20 59q0 36 20 60t65 24q44 0 64 -24t20 -60q0 -35 -20 -59t-64 -24z" />
    <glyph glyph-name="Zcaron" unicode="&#x17d;" horiz-adv-x="647" 
d="M38 0v123l380 468l3 -20l-32 42l22 -17h-360v134h561v-123l-381 -468l-4 22l34 -45l-24 19h375v-135h-574zM233 785l-132 179h147l72 -102h18l68 102h143l-128 -179h-188z" />
    <glyph glyph-name="zcaron" unicode="&#x17e;" horiz-adv-x="502" 
d="M37 0v112l257 308v-16l-24 30l18 -9h-250v123h431v-112l-257 -308v15l24 -30l-18 10h259v-123h-440zM146 612l-103 209h135l63 -134h12l55 134h131l-95 -209h-198z" />
    <glyph glyph-name="Aringacute" unicode="&#x1fa;" horiz-adv-x="782" 
d="M13 0l241 730h265l250 -730h-170l-202 617l52 -21h-129l54 21l-197 -617h-164zM196 181l50 136h286l51 -136h-387zM387 762q-58 0 -94 31.5t-36 81.5t36 81t94 31q59 0 95 -31t36 -81t-36 -81.5t-95 -31.5zM387 834q21 0 33 11.5t12 29.5q0 17 -12 28.5t-33 11.5
t-32.5 -11.5t-11.5 -28.5q0 -18 11.5 -29.5t32.5 -11.5zM301 1019l125 179h172l-144 -179h-153z" />
    <glyph glyph-name="uni0218" unicode="&#x218;" horiz-adv-x="667" 
d="M336 -19q-99 0 -167 31.5t-103 86t-35 125.5h159q0 -28 15.5 -52t47.5 -38.5t83 -14.5q46 0 77 12t47 33.5t16 49.5q0 35 -30 55.5t-97 26.5l-55 5q-109 9 -174 68t-65 156q0 70 33.5 121t93.5 78.5t142 27.5q86 0 147.5 -29.5t94.5 -83t33 -125.5h-160q0 27 -13 49.5
t-38.5 36.5t-63.5 14q-36 0 -60.5 -12t-36.5 -32.5t-12 -44.5q0 -31 22 -54t72 -27l56 -5q80 -7 141 -34.5t95.5 -75t34.5 -115.5q0 -70 -36.5 -122.5t-103.5 -81.5t-160 -29zM261 -306v78h27q33 0 47 15t14 40v27l23 -4q-6 -12 -19.5 -21t-34.5 -9q-26 0 -44.5 16.5
t-18.5 47.5q0 38 24.5 54.5t56.5 16.5q45 0 71 -30.5t26 -85.5v-6q0 -68 -40 -103.5t-107 -35.5h-25z" />
    <glyph glyph-name="uni0219" unicode="&#x219;" horiz-adv-x="556" 
d="M281 -17q-117 0 -183 48t-70 135h142q4 -26 31.5 -46.5t82.5 -20.5q42 0 69.5 14.5t27.5 41.5q0 24 -21 38.5t-75 20.5l-43 4q-99 10 -148.5 55t-49.5 115q0 58 29 97t80.5 59t117.5 20q106 0 171 -46.5t68 -134.5h-142q-4 27 -28 45.5t-71 18.5q-37 0 -59 -14t-22 -38
q0 -23 19 -35t62 -17l43 -4q101 -11 157 -56t56 -121q0 -55 -30 -95.5t-85 -62t-129 -21.5zM281 -44q44 0 69 -30.5t25 -85.5v-6q0 -67 -39 -102t-105 -35h-23v77h25q32 0 45.5 15.5t12.5 37.5v29l25 -3q-5 -13 -18.5 -22t-33.5 -9q-27 0 -44 16.5t-17 47.5q0 37 23.5 53.5
t54.5 16.5z" />
    <glyph glyph-name="uni021A" unicode="&#x21a;" horiz-adv-x="618" 
d="M227 0v607h164v-607h-164zM22 587v143h575v-143h-575zM236 -306v78h27q33 0 47 15t14 40v27l23 -4q-6 -12 -19.5 -21t-34.5 -9q-26 0 -44.5 16.5t-18.5 47.5q0 38 24.5 54.5t56.5 16.5q45 0 71 -30.5t26 -85.5v-6q0 -68 -40 -103.5t-107 -35.5h-25z" />
    <glyph glyph-name="uni021B" unicode="&#x21b;" horiz-adv-x="434" 
d="M322 -7q-83 0 -134 20.5t-74.5 69t-23.5 131.5v482h149v-488q0 -39 20.5 -59.5t58.5 -20.5h81v-135h-77zM7 431v117h392v-117h-392zM246 -44q44 0 69 -30.5t25 -85.5v-6q0 -67 -39 -102t-105 -35h-23v77h25q32 0 45.5 15.5t12.5 37.5v29l25 -3q-5 -13 -18.5 -22t-33.5 -9
q-27 0 -44 16.5t-17 47.5q0 37 23.5 53.5t54.5 16.5z" />
    <glyph glyph-name="uni0237" unicode="&#x237;" horiz-adv-x="339" 
d="M4 -205v135h35q37 0 56 19.5t19 55.5v543h155v-538q0 -79 -24.5 -126t-77 -68t-134.5 -21h-29zM38 430v118h231v-118h-231z" />
    <glyph glyph-name="circumflex" unicode="&#x2c6;" horiz-adv-x="300" 
d="M0 612l103 209h195l105 -209h-135l-62 134h-13l-61 -134h-132z" />
    <glyph glyph-name="ring" unicode="&#x2da;" horiz-adv-x="300" 
d="M128 601q-57 0 -92.5 34.5t-35.5 87.5t35.5 87.5t92.5 34.5t92.5 -34.5t35.5 -87.5t-35.5 -87.5t-92.5 -34.5zM128 678q21 0 32.5 12.5t11.5 32.5q0 19 -11.5 32t-32.5 13t-33 -12.5t-12 -32.5q0 -19 12 -32t33 -13z" />
    <glyph glyph-name="tilde" unicode="&#x2dc;" horiz-adv-x="300" 
d="M264 624q-30 0 -50 8t-36.5 18t-33 17.5t-39.5 7.5q-26 0 -46.5 -10.5t-34.5 -25.5l-24 109q17 19 42.5 32t63.5 13q30 0 50 -7.5t36 -17.5t33 -18t39 -8q27 0 47.5 10.5t35.5 25.5l23 -109q-17 -18 -43 -31.5t-63 -13.5z" />
    <glyph glyph-name="gravecomb" unicode="&#x300;" 
d="M113 612l-113 209h169l88 -209h-144z" />
    <glyph glyph-name="acutecomb" unicode="&#x301;" 
d="M0 612l90 209h164l-114 -209h-140z" />
    <glyph glyph-name="uni0302" unicode="&#x302;" 
d="M0 612l103 209h195l105 -209h-135l-62 134h-13l-61 -134h-132z" />
    <glyph glyph-name="tildecomb" unicode="&#x303;" 
d="M264 624q-30 0 -50 8t-36.5 18t-33 17.5t-39.5 7.5q-26 0 -46.5 -10.5t-34.5 -25.5l-24 109q17 19 42.5 32t63.5 13q30 0 50 -7.5t36 -17.5t33 -18t39 -8q27 0 47.5 10.5t35.5 25.5l23 -109q-17 -18 -43 -31.5t-63 -13.5z" />
    <glyph glyph-name="uni0304" unicode="&#x304;" 
d="M0 648v112h340v-112h-340z" />
    <glyph glyph-name="uni0306" unicode="&#x306;" 
d="M184 606q-86 0 -132.5 53t-49.5 162h117q2 -56 18 -79.5t47 -23.5t48.5 23.5t19.5 79.5h113q-3 -109 -49 -162t-132 -53z" />
    <glyph glyph-name="uni0307" unicode="&#x307;" 
d="M85 631q-45 0 -65 24t-20 59q0 36 20 60t65 24q44 0 64 -24t20 -60q0 -35 -20 -59t-64 -24z" />
    <glyph glyph-name="uni0308" unicode="&#x308;" 
d="M85 631q-45 0 -65 24t-20 59q0 36 20 60t65 24q44 0 64 -24t20 -60q0 -35 -20 -59t-64 -24zM300 631q-45 0 -65 24t-20 59q0 36 20 60t65 24q44 0 64 -24t20 -60q0 -35 -20 -59t-64 -24z" />
    <glyph glyph-name="uni030A" unicode="&#x30a;" 
d="M128 601q-57 0 -92.5 34.5t-35.5 87.5t35.5 87.5t92.5 34.5t92.5 -34.5t35.5 -87.5t-35.5 -87.5t-92.5 -34.5zM128 678q21 0 32.5 12.5t11.5 32.5q0 19 -11.5 32t-32.5 13t-33 -12.5t-12 -32.5q0 -19 12 -32t33 -13z" />
    <glyph glyph-name="uni030B" unicode="&#x30b;" 
d="M182 612l80 209h127l-91 -209h-116zM0 612l81 209h126l-91 -209h-116z" />
    <glyph glyph-name="uni030C" unicode="&#x30c;" 
d="M103 612l-103 209h135l63 -134h12l55 134h131l-95 -209h-198z" />
    <glyph glyph-name="uni0312" unicode="&#x312;" 
d="M94 596q-44 0 -69 30.5t-25 85.5v6q0 67 39 102t105 35h23v-77h-25q-32 0 -45.5 -15.5t-12.5 -37.5v-29l-25 3q5 13 18.5 22t33.5 9q27 0 44 -16.5t17 -47.5q0 -37 -23.5 -53.5t-54.5 -16.5z" />
    <glyph glyph-name="uni0326" unicode="&#x326;" 
d="M79 -44q44 0 69 -30.5t25 -85.5v-6q0 -67 -39 -102t-105 -35h-23v77h25q32 0 45.5 15.5t12.5 37.5v29l25 -3q-5 -13 -18.5 -22t-33.5 -9q-27 0 -44 16.5t-17 47.5q0 37 23.5 53.5t54.5 16.5z" />
    <glyph glyph-name="uni0327" unicode="&#x327;" 
d="M119 -270q-23 0 -45 4t-35 8v98q14 -5 33.5 -8.5t40.5 -3.5q28 0 42 7.5t14 20.5q0 11 -9.5 17t-32.5 6h-53v134h97v-99l-56 43h13q69 0 107.5 -26.5t38.5 -77.5q0 -52 -39.5 -87.5t-115.5 -35.5z" />
    <glyph glyph-name="uni0328" unicode="&#x328;" 
d="M192 -242q-62 0 -99.5 33t-37.5 91q0 46 20.5 81.5t62.5 75.5l32 31l67 -70l-32 -33q-17 -16 -26.5 -30.5t-9.5 -30.5q0 -17 11.5 -26t30.5 -9q26 0 45 8v-113q-11 -4 -29 -6t-35 -2z" />
    <glyph glyph-name="uni0335" unicode="&#x335;" 
d="M-33 224v86h366v-86h-366z" />
    <glyph glyph-name="uni0336" unicode="&#x336;" 
d="M-43 293v134h387v-134h-387z" />
    <glyph glyph-name="uni17DB" unicode="&#x17db;" horiz-adv-x="539" 
d="M261 -7q-65 0 -111 17.5t-71 52t-25 83.5t25.5 83.5t74 52.5t119.5 18v-97q-43 0 -66 -13.5t-23 -41.5t21.5 -42.5t53.5 -14.5h41l-35 -38l3 314h124v-374h-131zM128 339v96h373v-96h-373zM268 406v33q0 10 -4 16.5t-14 12.5q-18 12 -44.5 26t-42.5 23q-42 25 -52 66.5
t8 87.5q19 46 53 61t97 15q41 0 81.5 -3.5t80.5 -9.5v-111q-40 6 -79 10t-89 4q-15 0 -21 -3t-8 -10q-3 -7 -2 -13t9 -11q7 -4 22.5 -12.5t34 -18.5t32.5 -19q31 -18 46.5 -42.5t15.5 -68.5v-33h-124z" />
    <glyph glyph-name="Wgrave" unicode="&#x1e80;" horiz-adv-x="1071" 
d="M201 0l-180 730h169l141 -620l-35 23h91l-39 -23l109 593h136l-143 -703h-249zM636 0l-154 703h143l126 -593l-38 23h87l-33 -23l123 620h160l-160 -730h-254zM461 785l-128 179h174l108 -179h-154z" />
    <glyph glyph-name="wgrave" unicode="&#x1e81;" horiz-adv-x="922" 
d="M274 0l100 530h175l116 -530h-124l-119 526h71l-107 -526h-112zM236 0l-1 133h110l1 -133h-110zM164 0l-147 548h157l137 -548h-147zM582 0l1 133h110v-133h-111zM627 0l122 548h147l-132 -548h-137zM393 612l-113 209h169l88 -209h-144z" />
    <glyph glyph-name="Wacute" unicode="&#x1e82;" horiz-adv-x="1071" 
d="M201 0l-180 730h169l141 -620l-35 23h91l-39 -23l109 593h136l-143 -703h-249zM636 0l-154 703h143l126 -593l-38 23h87l-33 -23l123 620h160l-160 -730h-254zM451 785l125 179h172l-144 -179h-153z" />
    <glyph glyph-name="wacute" unicode="&#x1e83;" horiz-adv-x="922" 
d="M274 0l100 530h175l116 -530h-124l-119 526h71l-107 -526h-112zM236 0l-1 133h110l1 -133h-110zM164 0l-147 548h157l137 -548h-147zM582 0l1 133h110v-133h-111zM627 0l122 548h147l-132 -548h-137zM382 612l90 209h164l-114 -209h-140z" />
    <glyph glyph-name="Wdieresis" unicode="&#x1e84;" horiz-adv-x="1071" 
d="M201 0l-180 730h169l141 -620l-35 23h91l-39 -23l109 593h136l-143 -703h-249zM636 0l-154 703h143l126 -593l-38 23h87l-33 -23l123 620h160l-160 -730h-254zM424 796q-44 0 -66 23t-22 59q0 37 22 60t66 23q46 0 67.5 -23t21.5 -60q0 -36 -21.5 -59t-67.5 -23zM648 796
q-44 0 -66 23t-22 59q0 37 22 60t66 23q46 0 67.5 -23t21.5 -60q0 -36 -21.5 -59t-67.5 -23z" />
    <glyph glyph-name="wdieresis" unicode="&#x1e85;" horiz-adv-x="922" 
d="M274 0l100 530h175l116 -530h-124l-119 526h71l-107 -526h-112zM236 0l-1 133h110l1 -133h-110zM164 0l-147 548h157l137 -548h-147zM582 0l1 133h110v-133h-111zM627 0l122 548h147l-132 -548h-137zM354 631q-45 0 -65 24t-20 59q0 36 20 60t65 24q44 0 64 -24t20 -60
q0 -35 -20 -59t-64 -24zM569 631q-45 0 -65 24t-20 59q0 36 20 60t65 24q44 0 64 -24t20 -60q0 -35 -20 -59t-64 -24z" />
    <glyph glyph-name="uni1E9E" unicode="&#x1e9e;" horiz-adv-x="1302" 
d="M332 -20q-97 0 -164.5 31t-102 86t-34.5 127h159q0 -27 14.5 -51t46 -39.5t81.5 -15.5q44 0 74 13t45.5 34.5t15.5 48.5q0 34 -28.5 55t-94.5 27l-54 5q-68 6 -121 32.5t-83.5 74.5t-30.5 115q0 71 33 122t92 78t139 27q85 0 145.5 -29t93 -82t32.5 -125h-159
q0 27 -13 49t-38 35.5t-61 13.5q-35 0 -58 -12t-34.5 -32t-11.5 -45q0 -30 21 -52.5t70 -26.5l53 -5q80 -7 140.5 -34.5t94 -75t33.5 -115.5q0 -70 -35.5 -123t-101.5 -82t-158 -29zM977 -20q-96 0 -163 31t-101.5 86t-34.5 127h159q0 -27 14.5 -51t45.5 -39.5t80 -15.5
q45 0 74.5 13t45 34.5t15.5 48.5q0 35 -29.5 55.5t-94.5 26.5l-54 5q-69 6 -122 32.5t-83 74.5t-30 115q0 71 32.5 122t92 78t139.5 27q85 0 146 -29t93 -82t32 -125h-159q0 27 -13 49t-38 35.5t-61 13.5q-34 0 -57.5 -12t-35.5 -32t-12 -45q0 -30 21 -52.5t70 -26.5l55 -5
q79 -7 139 -34.5t94 -75t34 -115.5q0 -70 -35 -123t-101 -82t-158 -29z" />
    <glyph glyph-name="uni1EBC" unicode="&#x1ebc;" horiz-adv-x="594" 
d="M82 0v730h160v-730h-160zM222 0v136h319v-136h-319zM222 303v136h296v-136h-296zM222 594v136h312v-136h-312zM398 786q-31 0 -53.5 8t-40 18.5t-36.5 18.5t-44 8q-32 0 -55.5 -11.5t-37.5 -28.5l-24 108q17 21 46 35.5t71 14.5q32 0 54 -8t40 -18.5t37 -18.5t44 -8
q32 0 55.5 12t37.5 29l24 -109q-17 -21 -46 -35.5t-72 -14.5z" />
    <glyph glyph-name="uni1EBD" unicode="&#x1ebd;" horiz-adv-x="624" 
d="M324 -19q-70 0 -123.5 24t-89 64.5t-54 91t-18.5 103.5v20q0 55 18.5 105.5t53.5 90.5t87.5 63.5t119.5 23.5q88 0 148.5 -39.5t92.5 -103t32 -138.5v-54h-485v91h388l-52 -42q0 49 -14 84t-41.5 53.5t-68.5 18.5q-42 0 -71 -19t-44 -55.5t-15 -89.5q0 -49 14 -85.5
t44 -56.5t78 -20q44 0 72 17t38 42h147q-12 -55 -47 -98t-88 -67t-122 -24zM397 624q-30 0 -50 8t-36.5 18t-33 17.5t-39.5 7.5q-26 0 -46.5 -10.5t-34.5 -25.5l-24 109q17 19 42.5 32t63.5 13q30 0 50 -7.5t36 -17.5t33 -18t39 -8q27 0 47.5 10.5t35.5 25.5l23 -109
q-17 -18 -43 -31.5t-63 -13.5z" />
    <glyph glyph-name="Ygrave" unicode="&#x1ef2;" horiz-adv-x="657" 
d="M220 277l-213 453h168l153 -339l-29 9h84l-31 -9l138 339h159l-196 -453h-233zM256 0v300h161v-300h-161zM255 785l-128 179h174l108 -179h-154z" />
    <glyph glyph-name="ygrave" unicode="&#x1ef3;" horiz-adv-x="570" 
d="M67 -217v136h114q26 0 44 6.5t29 21.5t18 41l135 560h152l-153 -592q-16 -64 -44.5 -102t-76 -54.5t-120.5 -16.5h-98zM239 12v125h116v-125h-116zM173 12l-168 536h161l159 -536h-152zM218 612l-113 209h169l88 -209h-144z" />
    <glyph glyph-name="endash" unicode="&#x2013;" horiz-adv-x="526" 
d="M18 221v123h490v-123h-490z" />
    <glyph glyph-name="emdash" unicode="&#x2014;" horiz-adv-x="914" 
d="M18 221v123h878v-123h-878z" />
    <glyph glyph-name="quoteleft" unicode="&#x2018;" horiz-adv-x="270" 
d="M231 741v-91h-31q-27 0 -43.5 -8t-24.5 -28.5t-8 -56.5v-73l-30 62q7 6 20 9.5t29 3.5q35 0 59 -21.5t24 -60.5q0 -37 -23 -62.5t-66 -25.5q-28 0 -51.5 13t-38 44t-14.5 84v15q0 71 20.5 114t59.5 62.5t96 19.5h22z" />
    <glyph glyph-name="quoteright" unicode="&#x2019;" horiz-adv-x="270" 
d="M39 389v91h31q27 0 43.5 8t24.5 28.5t8 56.5v73l30 -62q-7 -6 -20 -9.5t-29 -3.5q-35 0 -59 21.5t-24 60.5q0 37 23 62.5t66 25.5q28 0 51.5 -13t38 -44t14.5 -84v-15q0 -71 -20.5 -114t-59.5 -62.5t-96 -19.5h-22z" />
    <glyph glyph-name="quotesinglbase" unicode="&#x201a;" horiz-adv-x="270" 
d="M39 -198v91h31q27 0 43.5 8t24.5 28.5t8 56.5v73l30 -62q-7 -6 -20 -9.5t-29 -3.5q-35 0 -59 21.5t-24 60.5q0 37 23 62.5t66 25.5q28 0 51.5 -13t38 -44t14.5 -84v-15q0 -71 -20.5 -114t-59.5 -62.5t-96 -19.5h-22z" />
    <glyph glyph-name="quotedblleft" unicode="&#x201c;" horiz-adv-x="504" 
d="M465 741v-91h-31q-27 0 -43.5 -8t-24.5 -28.5t-8 -56.5v-73l-30 62q7 6 20 9.5t29 3.5q35 0 59 -21.5t24 -60.5q0 -37 -23 -62.5t-66 -25.5q-28 0 -51.5 13t-38 44t-14.5 84v15q0 71 20.5 114t59.5 62.5t96 19.5h22zM230 741v-91h-31q-27 0 -43.5 -8t-24.5 -28.5
t-8 -56.5v-73l-30 62q7 6 20 9.5t29 3.5q35 0 59 -21.5t24 -60.5q0 -37 -23 -62.5t-66 -25.5q-28 0 -51.5 13t-38 44t-14.5 84v15q0 71 20.5 114t59.5 62.5t96 19.5h22z" />
    <glyph glyph-name="quotedblright" unicode="&#x201d;" horiz-adv-x="504" 
d="M39 389v91h31q27 0 43.5 8t24.5 28.5t8 56.5v73l30 -62q-7 -6 -20 -9.5t-29 -3.5q-35 0 -59 21.5t-24 60.5q0 37 23 62.5t66 25.5q28 0 51.5 -13t38 -44t14.5 -84v-15q0 -71 -20.5 -114t-59.5 -62.5t-96 -19.5h-22zM274 389v91h31q27 0 43.5 8t24.5 28.5t8 56.5v73
l30 -62q-7 -6 -20 -9.5t-29 -3.5q-35 0 -59 21.5t-24 60.5q0 37 23 62.5t66 25.5q28 0 51.5 -13t38 -44t14.5 -84v-15q0 -71 -20.5 -114t-59.5 -62.5t-96 -19.5h-22z" />
    <glyph glyph-name="quotedblbase" unicode="&#x201e;" horiz-adv-x="504" 
d="M39 -198v91h31q27 0 43.5 8t24.5 28.5t8 56.5v73l30 -62q-7 -6 -20 -9.5t-29 -3.5q-35 0 -59 21.5t-24 60.5q0 37 23 62.5t66 25.5q28 0 51.5 -13t38 -44t14.5 -84v-15q0 -71 -20.5 -114t-59.5 -62.5t-96 -19.5h-22zM274 -198v91h31q27 0 43.5 8t24.5 28.5t8 56.5v73
l30 -62q-7 -6 -20 -9.5t-29 -3.5q-35 0 -59 21.5t-24 60.5q0 37 23 62.5t66 25.5q28 0 51.5 -13t38 -44t14.5 -84v-15q0 -71 -20.5 -114t-59.5 -62.5t-96 -19.5h-22z" />
    <glyph glyph-name="dagger" unicode="&#x2020;" horiz-adv-x="588" 
d="M220 -200v555h149v-555h-149zM39 421v122h510v-122h-510zM220 509v221h149v-221h-149z" />
    <glyph glyph-name="daggerdbl" unicode="&#x2021;" horiz-adv-x="588" 
d="M39 421v122h510v-122h-510zM220 -200v221h149v-221h-149zM39 -13v123h510v-123h-510zM220 174v182h149v-182h-149zM220 509v221h149v-221h-149z" />
    <glyph glyph-name="bullet" unicode="&#x2022;" horiz-adv-x="435" 
d="M83 149v280h270v-280h-270z" />
    <glyph glyph-name="ellipsis" unicode="&#x2026;" horiz-adv-x="856" 
d="M57 0v179h176v-179h-176zM340 0v179h176v-179h-176zM622 0v179h176v-179h-176z" />
    <glyph glyph-name="perthousand" unicode="&#x2030;" horiz-adv-x="1282" 
d="M247 0l266 730h134l-265 -730h-135zM197 329q-59 0 -98.5 26.5t-59 71t-19.5 98.5v26q0 57 20 101t60 69t97 25q58 0 97.5 -25t59.5 -69t20 -101v-26q0 -54 -19.5 -98.5t-58.5 -71t-99 -26.5zM197 436q31 0 45.5 22.5t14.5 78.5q0 59 -15 81t-45 22t-45 -22t-15 -80
q0 -56 15 -79t45 -23zM694 -17q-60 0 -99 26t-58.5 70.5t-19.5 98.5v26q0 58 20 102t59.5 69t97.5 25t97 -25t59 -69t20 -102v-26q0 -54 -19.5 -98.5t-58 -70.5t-98.5 -26zM694 89q31 0 45.5 22.5t14.5 78.5q0 60 -15 81.5t-45 21.5t-45.5 -21.5t-15.5 -80.5q0 -56 15 -79
t46 -23zM1085 -17q-59 0 -98 26t-58.5 70.5t-19.5 98.5v26q0 58 20 102t59.5 69t96.5 25q59 0 98 -25t59 -69t20 -102v-26q0 -54 -19.5 -98.5t-58 -70.5t-99.5 -26zM1085 89q31 0 46 22.5t15 78.5q0 60 -15.5 81.5t-45.5 21.5t-45 -21.5t-15 -80.5q0 -56 15 -79t45 -23z" />
    <glyph glyph-name="minute" unicode="&#x2032;" horiz-adv-x="268" 
d="M33 421l57 309h145l-57 -309h-145z" />
    <glyph glyph-name="second" unicode="&#x2033;" horiz-adv-x="495" 
d="M33 421l57 309h145l-57 -309h-145zM260 421l57 309h145l-57 -309h-145z" />
    <glyph glyph-name="guilsinglleft" unicode="&#x2039;" horiz-adv-x="363" 
d="M151 39l-132 196v48l138 200h178l-142 -205v-33l142 -206h-184z" />
    <glyph glyph-name="guilsinglright" unicode="&#x203a;" horiz-adv-x="363" 
d="M212 483l132 -196v-48l-138 -200h-178l142 205v33l-142 206h184z" />
    <glyph glyph-name="fraction" unicode="&#x2044;" horiz-adv-x="218" 
d="M-144 -22l405 702h111l-406 -702h-110z" />
    <glyph glyph-name="uni2074" unicode="&#x2074;" horiz-adv-x="407" 
d="M25 488v113l155 247l84 -51l-130 -209l8 -13h245v-87h-362zM241 420v292h101v-292h-101z" />
    <glyph glyph-name="Euro" unicode="&#x20ac;" horiz-adv-x="712" 
d="M400 -17q-152 0 -232.5 94.5t-80.5 280.5v14q0 187 78.5 281t228.5 94q94 0 155.5 -31.5t93 -86.5t34.5 -128h-141q-4 54 -38.5 85t-103.5 31q-85 0 -124.5 -57.5t-39.5 -194.5q0 -136 41.5 -194t128.5 -58q70 0 104 31.5t38 84.5h141q-3 -72 -34.5 -127.5t-93 -87
t-155.5 -31.5zM12 241v81h434v-81h-434zM30 393v81h434v-81h-434z" />
    <glyph glyph-name="trademark" unicode="&#x2122;" horiz-adv-x="906" 
d="M394 329v401h137l94 -247h5l94 247h137v-401h-101v345l25 -1l-106 -278h-106l-107 278l24 1v-345h-96zM126 329v321h106v-321h-106zM14 640v90h331v-90h-331z" />
    <glyph glyph-name="minus" unicode="&#x2212;" horiz-adv-x="596" 
d="M50 279v130h497v-130h-497z" />
    <glyph glyph-name="uni2215" unicode="&#x2215;" horiz-adv-x="464" 
d="M-13 -66l349 888h143l-349 -888h-143z" />
    <glyph glyph-name="lessequal" unicode="&#x2264;" horiz-adv-x="590" 
d="M70 25v125h456v-125h-456zM526 204l-456 123v116l456 -108v-131zM70 395v114l456 124v-129zM166 375v82h30v-82h-30z" />
    <glyph glyph-name="greaterequal" unicode="&#x2265;" horiz-adv-x="596" 
d="M70 25v125h456v-125h-456zM70 204v129l456 109v-114zM526 394l-456 108v131l456 -123v-116zM401 380v82h30v-82h-30z" />
    <glyph glyph-name="sora" unicode="&#xe000;" horiz-adv-x="838" 
d="M246 0h-178l279 444h145l278 -444h-178l-172 275zM69 444v97h701v-97h-701zM347 489v185h145v-185h-145zM69 633v97h701v-97h-701z" />
    <glyph glyph-name="I.salt" horiz-adv-x="457" 
d="M147 105v521h164v-521h-164zM66 0v125h326v-125h-326zM66 606v124h326v-124h-326z" />
    <glyph glyph-name="Iacute.salt" horiz-adv-x="457" 
d="M147 105v521h164v-521h-164zM66 0v125h326v-125h-326zM66 606v124h326v-124h-326zM144 785l125 179h172l-144 -179h-153z" />
    <glyph glyph-name="Ibreve.salt" horiz-adv-x="457" 
d="M147 105v521h164v-521h-164zM66 0v125h326v-125h-326zM66 606v124h326v-124h-326zM229 775q-62 0 -104 23.5t-64 66t-24 99.5h115q2 -38 19.5 -60t57.5 -22q41 0 60.5 22t20.5 60h110q-2 -57 -23.5 -99.5t-63 -66t-104.5 -23.5z" />
    <glyph glyph-name="Icircumflex.salt" horiz-adv-x="457" 
d="M147 105v521h164v-521h-164zM66 0v125h326v-125h-326zM66 606v124h326v-124h-326zM7 785l130 179h189l132 -179h-147l-73 103h-17l-71 -103h-143z" />
    <glyph glyph-name="Idieresis.salt" horiz-adv-x="457" 
d="M147 105v521h164v-521h-164zM66 0v125h326v-125h-326zM66 606v124h326v-124h-326zM117 796q-44 0 -66 23t-22 59q0 37 22 60t66 23q46 0 67.5 -23t21.5 -60q0 -36 -21.5 -59t-67.5 -23zM341 796q-44 0 -66 23t-22 59q0 37 22 60t66 23q46 0 67.5 -23t21.5 -60
q0 -36 -21.5 -59t-67.5 -23z" />
    <glyph glyph-name="Idotaccent.salt" horiz-adv-x="457" 
d="M147 105v521h164v-521h-164zM66 0v125h326v-125h-326zM66 606v124h326v-124h-326zM229 796q-44 0 -66 23t-22 59q0 37 22 60t66 23q46 0 67.5 -23t21.5 -60q0 -36 -21.5 -59t-67.5 -23z" />
    <glyph glyph-name="Igrave.salt" horiz-adv-x="457" 
d="M147 105v521h164v-521h-164zM66 0v125h326v-125h-326zM66 606v124h326v-124h-326zM153 785l-128 179h174l108 -179h-154z" />
    <glyph glyph-name="Imacron.salt" horiz-adv-x="457" 
d="M147 105v521h164v-521h-164zM66 0v125h326v-125h-326zM66 606v124h326v-124h-326zM34 810v112h391v-112h-391z" />
    <glyph glyph-name="Iogonek.salt" horiz-adv-x="457" 
d="M147 105v521h164v-521h-164zM66 0v125h326v-125h-326zM66 606v124h326v-124h-326zM255 -257q-64 0 -105.5 38t-41.5 98q0 49 24 90t71 78l30 26l68 -73l-30 -27q-20 -16 -31.5 -34.5t-11.5 -37.5t12.5 -31t34.5 -12q13 0 25 2.5t20 6.5v-116q-10 -4 -28.5 -6t-36.5 -2z
" />
    <glyph glyph-name="Itilde.salt" horiz-adv-x="457" 
d="M147 105v521h164v-521h-164zM66 0v125h326v-125h-326zM66 606v124h326v-124h-326zM318 786q-31 0 -53.5 8t-40 18.5t-36.5 18.5t-44 8q-32 0 -55.5 -11.5t-37.5 -28.5l-24 108q17 21 46 35.5t71 14.5q32 0 54 -8t40 -18.5t37 -18.5t44 -8q32 0 55.5 12t37.5 29l24 -109
q-17 -21 -46 -35.5t-72 -14.5z" />
    <glyph glyph-name="J.salt" horiz-adv-x="606" 
d="M282 -21q-81 0 -136.5 30.5t-84.5 88t-29 139.5v95h164v-114q0 -40 23.5 -63t62.5 -23q40 0 63 23t23 63v512h164v-493q0 -82 -28.5 -139.5t-84.5 -88t-137 -30.5z" />
    <glyph glyph-name="Jcircumflex.salt" horiz-adv-x="606" 
d="M282 -21q-81 0 -136.5 30.5t-84.5 88t-29 139.5v95h164v-114q0 -40 23.5 -63t62.5 -23q40 0 63 23t23 63v512h164v-493q0 -82 -28.5 -139.5t-84.5 -88t-137 -30.5zM227 785l130 179h189l132 -179h-147l-73 103h-17l-71 -103h-143z" />
    <glyph glyph-name="P.salt" horiz-adv-x="696" 
d="M226 259v142h186q33 0 54.5 11t32.5 33t11 52q0 32 -11 53.5t-32.5 32.5t-54.5 11h-186v142h177q80 0 142 -26t96.5 -77t34.5 -128v-16q0 -75 -34.5 -126.5t-96 -77.5t-142.5 -26h-177zM82 0v736h164v-736h-164z" />
    <glyph glyph-name="Q.salt" horiz-adv-x="864" 
d="M628 -79l-276 379h156l276 -379h-156zM432 -19q-99 0 -172.5 34.5t-121.5 91t-71.5 122.5t-23.5 127v22q0 68 24.5 134.5t73.5 120.5t122 86.5t169 32.5t169 -32.5t122 -86.5t74 -120.5t25 -134.5v-22q0 -61 -24 -127t-72 -122.5t-121.5 -91t-172.5 -34.5zM432 134
q52 0 93.5 18t71 50t44.5 74t15 90q0 51 -15.5 93.5t-45 74t-70.5 48.5t-93 17t-93 -17t-70.5 -48.5t-44.5 -74t-15 -93.5q0 -48 15 -90t44.5 -74t70.5 -50t93 -18z" />
    <glyph glyph-name="R.salt" horiz-adv-x="739" 
d="M82 0v736h164v-736h-164zM517 0l-142 312h179l146 -312h-183zM226 268v129h190q49 0 73.5 26t24.5 73t-25 72.5t-73 25.5h-190v142h181q81 0 142.5 -25t96 -75t34.5 -126v-16q0 -76 -34.5 -126.5t-95.5 -75t-143 -24.5h-181z" />
    <glyph glyph-name="Racute.salt" horiz-adv-x="739" 
d="M82 0v736h164v-736h-164zM517 0l-142 312h179l146 -312h-183zM226 268v129h190q49 0 73.5 26t24.5 73t-25 72.5t-73 25.5h-190v142h181q81 0 142.5 -25t96 -75t34.5 -126v-16q0 -76 -34.5 -126.5t-95.5 -75t-143 -24.5h-181zM271 785l125 179h172l-144 -179h-153z" />
    <glyph glyph-name="Rcaron.salt" horiz-adv-x="739" 
d="M82 0v736h164v-736h-164zM517 0l-142 312h179l146 -312h-183zM226 268v129h190q49 0 73.5 26t24.5 73t-25 72.5t-73 25.5h-190v142h181q81 0 142.5 -25t96 -75t34.5 -126v-16q0 -76 -34.5 -126.5t-95.5 -75t-143 -24.5h-181zM262 785l-132 179h147l72 -102h18l68 102h143
l-128 -179h-188z" />
    <glyph glyph-name="uni0156.salt" horiz-adv-x="739" 
d="M82 0v736h164v-736h-164zM517 0l-142 312h179l146 -312h-183zM226 268v129h190q49 0 73.5 26t24.5 73t-25 72.5t-73 25.5h-190v142h181q81 0 142.5 -25t96 -75t34.5 -126v-16q0 -76 -34.5 -126.5t-95.5 -75t-143 -24.5h-181zM306 -306v78h27q33 0 47 15t14 40v27l23 -4
q-6 -12 -19.5 -21t-34.5 -9q-26 0 -44.5 16.5t-18.5 47.5q0 38 24.5 54.5t56.5 16.5q45 0 71 -30.5t26 -85.5v-6q0 -68 -40 -103.5t-107 -35.5h-25z" />
    <glyph glyph-name="acutecomb.case" 
d="M0 785l125 179h172l-144 -179h-153z" />
    <glyph glyph-name="braceleft.case" horiz-adv-x="393" 
d="M332 -118q-98 0 -156 46.5t-58 148.5v137q0 31 -19 46t-56 15v142q37 0 56 15t19 46v133q0 103 58 149t156 46h25v-133h-25q-33 0 -47.5 -16t-14.5 -46v-138q0 -59 -26 -87t-77 -33v-14q51 -4 77 -32t26 -87v-143q0 -30 14.5 -46t47.5 -16h25v-133h-25z" />
    <glyph glyph-name="braceright.case" horiz-adv-x="393" 
d="M61 -118q98 0 156 46.5t58 148.5v137q0 31 19 46t56 15v142q-37 0 -56 15t-19 46v133q0 103 -58 149t-156 46h-25v-133h25q33 0 47.5 -16t14.5 -46v-138q0 -59 26 -87t77 -33v-14q-51 -4 -77 -32t-26 -87v-143q0 -30 -14.5 -46t-47.5 -16h-25v-133h25z" />
    <glyph glyph-name="bracketleft.case" horiz-adv-x="393" 
d="M86 -118v924h154v-924h-154zM192 -118v133h159v-133h-159zM192 673v133h159v-133h-159z" />
    <glyph glyph-name="bracketright.case" horiz-adv-x="393" 
d="M307 -118v924h-154v-924h154zM201 -118v133h-159v-133h159zM201 673v133h-159v-133h159z" />
    <glyph glyph-name="uni0306.case" 
d="M192 775q-62 0 -104 23.5t-64 66t-24 99.5h115q2 -38 19.5 -60t57.5 -22q41 0 60.5 22t20.5 60h110q-2 -57 -23.5 -99.5t-63 -66t-104.5 -23.5z" />
    <glyph glyph-name="uni030C.alt" 
d="M59 575v258h137l-17 -258h-120z" />
    <glyph glyph-name="uni030C.case" 
d="M132 785l-132 179h147l72 -102h18l68 102h143l-128 -179h-188z" />
    <glyph glyph-name="uni0327.case" 
d="M86 -276q-25 0 -48.5 3.5t-37.5 8.5v102q15 -4 35.5 -8t43.5 -4q30 0 45 7t15 21q0 11 -11 17t-35 6h-53v136h103v-99l-62 43h14q70 0 110.5 -26.5t40.5 -79.5t-41.5 -90t-118.5 -37z" />
    <glyph glyph-name="cent.tnum" horiz-adv-x="676" 
d="M348 93q-67 0 -119 21t-87 57t-53.5 83.5t-18.5 99.5v20q0 55 18.5 103t54 84t87.5 56.5t118 20.5q74 0 130 -26t89.5 -74.5t38.5 -115.5h-152q-4 36 -32.5 59.5t-74.5 23.5q-37 0 -64 -17t-42 -48.5t-15 -75.5q0 -42 13.5 -73t41 -48t66.5 -17q47 0 77 24t35 63h152
q-5 -67 -38.5 -116.5t-91 -76.5t-133.5 -27zM285 0v146h131v-146h-131zM285 577v146h131v-146h-131z" />
    <glyph glyph-name="uni0302.case" 
d="M0 785l130 179h189l132 -179h-147l-73 103h-17l-71 -103h-143z" />
    <glyph glyph-name="uni0326.case" 
d="M7 -306v78h27q33 0 47 15t14 40v27l23 -4q-6 -12 -19.5 -21t-34.5 -9q-26 0 -44.5 16.5t-18.5 47.5q0 38 24.5 54.5t56.5 16.5q45 0 71 -30.5t26 -85.5v-6q0 -68 -40 -103.5t-107 -35.5h-25z" />
    <glyph glyph-name="currency.tnum" horiz-adv-x="676" 
d="M338 135q-72 0 -124.5 31.5t-81 82.5t-28.5 108v16q0 58 28.5 109t81 82t124.5 31q73 0 125 -31t80.5 -82t28.5 -109v-16q0 -57 -28.5 -108t-80.5 -82.5t-125 -31.5zM129 65l-91 93l111 110l91 -92zM149 460l-111 111l91 92l111 -110zM338 257q34 0 55 14t31.5 38.5
t10.5 55.5q0 33 -11 57.5t-32 37.5t-54 13q-31 0 -53 -13t-33 -37.5t-11 -57.5q0 -31 10.5 -55.5t32.5 -38.5t54 -14zM547 65l-110 111l91 92l110 -110zM528 460l-91 93l110 110l91 -92z" />
    <glyph glyph-name="uni0308.case" 
d="M88 796q-44 0 -66 23t-22 59q0 37 22 60t66 23q46 0 67.5 -23t21.5 -60q0 -36 -21.5 -59t-67.5 -23zM312 796q-44 0 -66 23t-22 59q0 37 22 60t66 23q46 0 67.5 -23t21.5 -60q0 -36 -21.5 -59t-67.5 -23z" />
    <glyph glyph-name="divide.tnum" horiz-adv-x="676" 
d="M77 279v130h522v-130h-522zM264 60v146h149v-146h-149zM264 482v147h149v-147h-149z" />
    <glyph glyph-name="dollar.tnum" horiz-adv-x="676" 
d="M347 -5q-96 0 -160 28.5t-95.5 81.5t-31.5 124h147q0 -28 14.5 -52.5t45.5 -39.5t80 -15q63 0 97.5 25t34.5 64q0 34 -28.5 57.5t-93.5 29.5l-51 4q-104 10 -164 64t-60 154q0 69 29.5 115t86 69.5t135.5 23.5q84 0 141.5 -26.5t86.5 -77.5t29 -123h-147q0 28 -12 50.5
t-37 36t-61 13.5q-33 0 -56.5 -10.5t-35 -28.5t-11.5 -42q0 -31 20.5 -55.5t69.5 -29.5l51 -4q118 -10 187 -65t69 -155q0 -68 -32.5 -116.5t-95 -74t-152.5 -25.5zM276 -129v146h131v-146h-131zM272 681v146h131v-146h-131z" />
    <glyph glyph-name="uni0307.case" 
d="M88 796q-44 0 -66 23t-22 59q0 37 22 60t66 23q46 0 67.5 -23t21.5 -60q0 -36 -21.5 -59t-67.5 -23z" />
    <glyph glyph-name="eight.dnom" horiz-adv-x="404" 
d="M201 -12q-76 0 -123.5 31.5t-47.5 93.5q0 36 16.5 60.5t48.5 36.5v8q-25 11 -39 32t-14 51q0 39 21 64t57.5 37t80.5 12q45 0 81.5 -12.5t57.5 -37t21 -63.5q0 -30 -14 -51t-39 -32v-8q31 -11 48 -36t17 -61q0 -63 -47.5 -94t-124.5 -31zM201 78q30 0 49 11t19 37
q0 25 -18.5 36t-49.5 11q-29 0 -48 -11t-19 -36q0 -26 19 -37t48 -11zM201 254q26 0 39.5 9t13.5 26q0 19 -14.5 27t-38.5 8t-38.5 -8.5t-14.5 -26.5q0 -17 14.5 -26t38.5 -9z" />
    <glyph glyph-name="eight.numr" horiz-adv-x="404" 
d="M201 243q-76 0 -123.5 31.5t-47.5 93.5q0 36 16.5 60.5t48.5 36.5v8q-25 11 -39 32t-14 51q0 39 21 64t57.5 37t80.5 12q45 0 81.5 -12.5t57.5 -37t21 -63.5q0 -30 -14 -51t-39 -32v-8q31 -11 48 -36t17 -61q0 -63 -47.5 -94t-124.5 -31zM201 333q30 0 49 11t19 37
q0 25 -18.5 36t-49.5 11q-29 0 -48 -11t-19 -36q0 -26 19 -37t48 -11zM201 509q26 0 39.5 9t13.5 26q0 19 -14.5 27t-38.5 8t-38.5 -8.5t-14.5 -26.5q0 -17 14.5 -26t38.5 -9z" />
    <glyph glyph-name="eight.tnum" horiz-adv-x="676" 
d="M338 -21q-88 0 -154 26t-102 76t-36 122q0 45 15 81t43 61t65 39v13q-29 12 -52 32.5t-36.5 50.5t-13.5 70q0 68 35.5 112t97 66.5t138.5 22.5q79 0 139.5 -22.5t96 -66.5t35.5 -112q0 -40 -13 -70t-36 -50.5t-53 -32.5v-13q38 -14 65.5 -39t43 -60.5t15.5 -81.5
q0 -72 -36.5 -122t-102 -76t-154.5 -26zM338 114q40 0 70 12t47 36t17 60q0 35 -16.5 59t-46.5 36t-71 12q-40 0 -70.5 -12t-47 -36t-16.5 -59q0 -36 17 -60t47 -36t70 -12zM338 450q52 0 82 21t30 63q0 41 -30 62t-82 21t-82 -21t-30 -62q0 -42 30.5 -63t81.5 -21z" />
    <glyph glyph-name="emdash.case" horiz-adv-x="914" 
d="M18 300v122h878v-122h-878z" />
    <glyph glyph-name="endash.case" horiz-adv-x="526" 
d="M18 300v122h490v-122h-490z" />
    <glyph glyph-name="equal.tnum" horiz-adv-x="676" 
d="M77 373v130h522v-130h-522zM77 157v130h522v-130h-522z" />
    <glyph glyph-name="Euro.tnum" horiz-adv-x="676" 
d="M392 -17q-149 0 -226 95t-77 280v14q0 186 74.5 280.5t221.5 94.5q92 0 150.5 -31.5t88.5 -87t33 -127.5h-142q-4 54 -34.5 85t-95.5 31q-82 0 -117.5 -58.5t-35.5 -193.5q0 -134 38 -193t122 -59q66 0 96.5 31.5t34.5 84.5h142q-3 -72 -33 -127t-89 -87t-151 -32z
M12 241v81h424v-81h-424zM30 393v81h424v-81h-424z" />
    <glyph glyph-name="exclamdown.case" horiz-adv-x="317" 
d="M77 483v-483h164v483h-164zM65 730v-161h188v161h-188z" />
    <glyph glyph-name="f.salt" horiz-adv-x="395" 
d="M84 0v594q0 73 45.5 115t125.5 42q77 0 123 -40t46 -110h-127q0 16 -8 26t-25 10q-16 0 -23.5 -10t-7.5 -26v-601h-149zM20 419v117h358v-117h-358z" />
    <glyph glyph-name="f_f.salt" horiz-adv-x="766" 
d="M84 0v588q0 72 44 114.5t121 42.5q75 0 118.5 -40.5t43.5 -109.5h-119q0 15 -7 25.5t-23 10.5t-22.5 -10.5t-6.5 -25.5v-595h-149zM455 0v594q0 73 46 115t126 42q76 0 122 -40t46 -110h-127q0 16 -8 26t-25 10q-16 0 -23.5 -10t-7.5 -26v-601h-149zM20 419v117h729v-117
h-729z" />
    <glyph glyph-name="f_f_i.salt" horiz-adv-x="1062" 
d="M84 0v588q0 72 44 114.5t121 42.5q75 0 118.5 -40t43.5 -109h-119q0 15 -7.5 25t-22.5 10q-16 0 -22.5 -10t-6.5 -25v-596h-149zM455 0v594q0 73 43.5 115t122.5 42q76 0 119.5 -40t43.5 -109h-119q0 15 -8 25t-23 10t-22.5 -10t-7.5 -25v-602h-149zM827 0v548h161v-548
h-161zM20 422v117h703v-117h-703zM769 430v118h219v-118h-219zM900 605q-44 0 -65 23t-21 59q0 35 21 58.5t65 23.5q45 0 66 -23.5t21 -58.5q0 -36 -21 -59t-66 -23z" />
    <glyph glyph-name="f_f_j.salt" horiz-adv-x="1063" 
d="M84 0v589q0 72 44 114t121 42q75 0 118.5 -39.5t43.5 -108.5h-119q0 14 -7.5 24t-22.5 10t-22 -10t-7 -24v-597h-149zM455 0v594q0 72 43.5 114.5t122.5 42.5q75 0 119 -40t44 -109h-120q0 15 -7.5 25t-22.5 10t-22.5 -10t-7.5 -25v-602h-149zM729 -203v136h34
q36 0 56 19.5t20 55.5v540h155v-535q0 -79 -25 -126.5t-77 -68.5t-135 -21h-28zM20 422v117h708v-117h-708zM775 430v118h219v-118h-219zM906 607q-45 0 -65.5 23t-20.5 59q0 35 20.5 58.5t65.5 23.5t65.5 -23.5t20.5 -58.5q0 -36 -20.5 -59t-65.5 -23z" />
    <glyph glyph-name="f_f_l.salt" horiz-adv-x="1086" 
d="M84 0v588q0 72 44 114.5t121 42.5q75 0 118.5 -40.5t43.5 -109.5h-119q0 15 -7 25.5t-23 10.5t-22.5 -10.5t-6.5 -25.5v-595h-149zM455 0v594q0 72 43.5 114.5t121.5 42.5q76 0 119.5 -40.5t43.5 -109.5h-120q0 15 -7 25.5t-23 10.5q-15 0 -22 -10.5t-7 -25.5v-601h-149z
M998 -6q-68 0 -107.5 18t-57 56t-17.5 99v563h160v-564q0 -16 9.5 -25t25.5 -9h49v-138h-62zM20 419v117h720v-117h-720z" />
    <glyph glyph-name="f_j.salt" horiz-adv-x="691" 
d="M84 0v594q0 72 43.5 114.5t121.5 42.5q76 0 120 -40t44 -109h-120q0 15 -7.5 25t-22.5 10q-16 0 -23 -10t-7 -25v-602h-149zM357 -203v136h34q36 0 56 19.5t20 55.5v540h155v-535q0 -79 -25 -126.5t-77 -68.5t-135 -21h-28zM20 422v117h337v-117h-337zM404 430v118h218
v-118h-218zM534 607q-45 0 -65.5 23t-20.5 59q0 35 20.5 58.5t65.5 23.5t65.5 -23.5t20.5 -58.5q0 -36 -20.5 -59t-65.5 -23z" />
    <glyph glyph-name="fi.salt" horiz-adv-x="691" 
d="M84 0v594q0 72 43.5 114.5t122.5 42.5q75 0 119 -40t44 -110h-119q0 15 -8 25.5t-23 10.5t-22.5 -10.5t-7.5 -25.5v-601h-149zM20 422v117h331v-117h-331zM456 0v548h160v-548h-160zM398 430v118h218v-118h-218zM529 605q-45 0 -65.5 23t-20.5 59q0 35 20.5 58.5
t65.5 23.5t65.5 -23.5t20.5 -58.5q0 -36 -20.5 -59t-65.5 -23z" />
    <glyph glyph-name="five.dnom" horiz-adv-x="388" 
d="M197 -11q-50 0 -87 19t-57 50.5t-20 70.5h106q0 -23 17.5 -36t41.5 -13q27 0 44.5 16.5t17.5 41.5q0 26 -17 42.5t-44 16.5q-19 0 -33.5 -8t-21.5 -20h-103l21 233h266v-94h-222l42 27l-11 -115l-24 7q16 21 40.5 35t64.5 14q45 0 77 -17.5t50 -48.5t18 -69v-7
q0 -38 -19.5 -71t-56.5 -53.5t-90 -20.5z" />
    <glyph glyph-name="five.numr" horiz-adv-x="388" 
d="M197 244q-50 0 -87 19t-57 50.5t-20 70.5h106q0 -23 17.5 -36t41.5 -13q27 0 44.5 16.5t17.5 41.5q0 26 -17 42.5t-44 16.5q-19 0 -33.5 -8t-21.5 -20h-103l21 233h266v-94h-222l42 27l-11 -115l-24 7q16 21 40.5 35t64.5 14q45 0 77 -17.5t50 -48.5t18 -69v-7
q0 -38 -19.5 -71t-56.5 -53.5t-90 -20.5z" />
    <glyph glyph-name="five.tnum" horiz-adv-x="676" 
d="M345 -19q-87 0 -151 33.5t-98.5 90.5t-34.5 126h158q0 -34 16.5 -60t45.5 -40t66 -14q39 0 68 16.5t44 45t15 64.5q0 37 -15 65.5t-43.5 45.5t-67.5 17q-37 0 -67.5 -15t-44.5 -38h-154l37 412h451v-140h-382l59 42l-22 -237l-34 10q20 24 44.5 43t58.5 30.5t81 11.5
q80 0 137.5 -32.5t88.5 -87t31 -121.5v-13q0 -67 -33.5 -125t-97.5 -94t-156 -36z" />
    <glyph glyph-name="fl.salt" horiz-adv-x="715" 
d="M84 0v594q0 72 43 114.5t122 42.5q75 0 119 -40.5t44 -109.5h-120q0 15 -7.5 25.5t-22.5 10.5t-22 -10.5t-7 -25.5v-601h-149zM20 419v117h349v-117h-349zM627 -6q-68 0 -108 18t-57 56t-17 99v563h160v-564q0 -16 9 -25t26 -9h49v-138h-62z" />
    <glyph glyph-name="four.dnom" horiz-adv-x="407" 
d="M25 68v113l155 247l84 -51l-130 -209l8 -13h245v-87h-362zM241 0v292h101v-292h-101z" />
    <glyph glyph-name="four.numr" horiz-adv-x="407" 
d="M25 323v113l155 247l84 -51l-130 -209l8 -13h245v-87h-362zM241 255v292h101v-292h-101z" />
    <glyph glyph-name="four.tnum" horiz-adv-x="676" 
d="M38 140v171l274 440l127 -83l-234 -377l14 -21h434v-130h-615zM419 0v526h152v-526h-152z" />
    <glyph glyph-name="gravecomb.case" 
d="M128 785l-128 179h174l108 -179h-154z" />
    <glyph glyph-name="guillemotleft.case" horiz-adv-x="650" 
d="M153 141l-135 199v48l141 203h179l-146 -208v-34l146 -208h-185zM441 141l-135 199v48l141 203h179l-146 -208v-34l146 -208h-185z" />
    <glyph glyph-name="guillemotright.case" horiz-adv-x="650" 
d="M497 591l135 -199v-48l-141 -203h-179l146 208v34l-146 208h185zM209 591l135 -199v-48l-141 -203h-179l146 208v34l-146 208h185z" />
    <glyph glyph-name="guilsinglleft.case" horiz-adv-x="363" 
d="M153 141l-135 199v48l141 203h179l-146 -208v-34l146 -208h-185z" />
    <glyph glyph-name="guilsinglright.case" horiz-adv-x="363" 
d="M210 591l135 -199v-48l-141 -203h-179l146 208v34l-146 208h185z" />
    <glyph glyph-name="uni030B.case" 
d="M181 785l89 179h133l-102 -179h-120zM0 785l90 179h133l-103 -179h-120z" />
    <glyph glyph-name="hyphen.case" horiz-adv-x="509" 
d="M44 300v143h421v-143h-421z" />
    <glyph glyph-name="i.loclTRK" horiz-adv-x="334" 
d="M99 0v548h160v-548h-160zM26 430v118h233v-118h-233zM153 631q-45 0 -65 24t-20 59q0 36 20 60t65 24q44 0 64 -24t20 -60q0 -35 -20 -59t-64 -24z" />
    <glyph glyph-name="l.salt" horiz-adv-x="329" 
d="M241 -6q-68 0 -108 18t-57.5 56t-17.5 99v563h161v-564q0 -16 9 -25t26 -9h49v-138h-62z" />
    <glyph glyph-name="lacute.salt" horiz-adv-x="329" 
d="M241 -6q-68 0 -108 18t-57.5 56t-17.5 99v563h161v-564q0 -16 9 -25t26 -9h49v-138h-62zM53 785l125 179h172l-144 -179h-153z" />
    <glyph glyph-name="lcaron.salt" horiz-adv-x="329" 
d="M241 -6q-68 0 -108 18t-57.5 56t-17.5 99v563h161v-564q0 -16 9 -25t26 -9h49v-138h-62zM266 562v258h137l-17 -258h-120z" />
    <glyph glyph-name="uni013C.salt" horiz-adv-x="329" 
d="M241 -6q-68 0 -108 18t-57.5 56t-17.5 99v563h161v-564q0 -16 9 -25t26 -9h49v-138h-62zM178 -44q44 0 69 -30.5t25 -85.5v-6q0 -67 -39 -102t-105 -35h-23v77h25q32 0 45.5 15.5t12.5 37.5v29l25 -3q-5 -13 -18.5 -22t-33.5 -9q-27 0 -44 16.5t-17 47.5q0 37 23.5 53.5
t54.5 16.5z" />
    <glyph glyph-name="lslash.salt" horiz-adv-x="329" 
d="M8 193v117l118 66v-117zM180 287v117l116 63v-117zM241 -6q-68 0 -108 18t-57.5 56t-17.5 99v563h161v-564q0 -16 9 -25t25 -9h50v-138h-62z" />
    <glyph glyph-name="uni0304.case" 
d="M0 810v112h391v-112h-391z" />
    <glyph glyph-name="minus.tnum" horiz-adv-x="676" 
d="M77 279v130h522v-130h-522z" />
    <glyph glyph-name="multiply.tnum" horiz-adv-x="676" 
d="M165 83l435 434l-89 89l-435 -434zM507 83l93 93l-431 430l-93 -93z" />
    <glyph glyph-name="nine.dnom" horiz-adv-x="413" 
d="M197 415q66 0 105.5 -27.5t57.5 -72t18 -94.5v-25q0 -99 -55 -149.5t-159 -50.5q-24 0 -45.5 1.5t-39.5 3.5v92q19 -1 41.5 -2.5t46.5 -1.5q47 0 70 13.5t30.5 39.5t7.5 60v34l24 16q-1 -63 -38 -92.5t-92 -29.5q-65 0 -103.5 37t-38.5 100q0 69 47.5 108.5t122.5 39.5z
M201 323q-33 0 -51.5 -14.5t-18.5 -39.5t18 -40.5t49 -15.5q27 0 49.5 13t22.5 43q0 17 -8 29t-23.5 18.5t-37.5 6.5z" />
    <glyph glyph-name="nine.numr" horiz-adv-x="413" 
d="M197 670q66 0 105.5 -27.5t57.5 -72t18 -94.5v-25q0 -99 -55 -149.5t-159 -50.5q-24 0 -45.5 1.5t-39.5 3.5v92q19 -1 41.5 -2.5t46.5 -1.5q47 0 70 13.5t30.5 39.5t7.5 60v34l24 16q-1 -63 -38 -92.5t-92 -29.5q-65 0 -103.5 37t-38.5 100q0 69 47.5 108.5t122.5 39.5z
M201 578q-33 0 -51.5 -14.5t-18.5 -39.5t18 -40.5t49 -15.5q27 0 49.5 13t22.5 43q0 17 -8 29t-23.5 18.5t-37.5 6.5z" />
    <glyph glyph-name="nine.tnum" horiz-adv-x="676" 
d="M323 751q79 0 135.5 -27t92.5 -75t53 -111.5t17 -136.5v-43q0 -180 -91.5 -272t-266.5 -92q-36 0 -71 2t-67 6v138q31 -4 68 -6t75 -2q79 0 123 27t61.5 79.5t17.5 129.5v100h33q-1 -73 -29 -123t-78 -76t-114 -26q-76 0 -130 30.5t-83 85.5t-29 130q0 79 35.5 138
t99 91.5t148.5 32.5zM328 615q-41 0 -70 -16t-44.5 -44t-15.5 -64q0 -38 15 -65.5t43.5 -43t69.5 -15.5q35 0 66 14t49.5 41.5t18.5 68.5q0 35 -14.5 63.5t-44 44.5t-73.5 16z" />
    <glyph glyph-name="uni0328.case" 
d="M191 -257q-64 0 -105.5 38t-41.5 98q0 49 24 90t71 78l30 26l68 -73l-30 -27q-20 -16 -31.5 -34.5t-11.5 -37.5t12.5 -31t34.5 -12q13 0 25 2.5t20 6.5v-116q-10 -4 -28.5 -6t-36.5 -2z" />
    <glyph glyph-name="one.dnom" horiz-adv-x="264" 
d="M102 0v329l29 -22h-105v95h186v-402h-110z" />
    <glyph glyph-name="one.numr" horiz-adv-x="264" 
d="M102 255v329l29 -22h-105v95h186v-402h-110z" />
    <glyph glyph-name="one.tnum" horiz-adv-x="676" 
d="M282 0v622l44 -34h-219v142h339v-730h-164zM90 0v142h519v-142h-519z" />
    <glyph glyph-name="parenleft.case" horiz-adv-x="393" 
d="M201 -118q-47 61 -80.5 128.5t-51 150.5t-17.5 188q0 106 19 187t53.5 146.5t80.5 123.5h178q-49 -66 -88 -136t-62 -149t-23 -172q0 -92 18 -172.5t56 -152.5t99 -142h-182z" />
    <glyph glyph-name="parenright.case" horiz-adv-x="393" 
d="M192 -118q47 61 80.5 128.5t51 150.5t17.5 188q0 106 -19 187t-53.5 146.5t-80.5 123.5h-178q49 -66 88 -136t62 -149t23 -172q0 -92 -18 -172.5t-56 -152.5t-99 -142h182z" />
    <glyph glyph-name="periodcentered.case" horiz-adv-x="273" 
d="M48 279v179h176v-179h-176z" />
    <glyph glyph-name="plus.tnum" horiz-adv-x="676" 
d="M267 76v537h142v-537h-142zM77 279v130h522v-130h-522z" />
    <glyph glyph-name="questiondown.case" horiz-adv-x="563" 
d="M385 485v-174h-93q-53 0 -79 -28.5t-26 -69.5q0 -29 11.5 -50.5t33 -34t51.5 -12.5q32 0 54 13.5t34 35.5t12 50h153q0 -66 -29.5 -119.5t-87.5 -85.5t-140 -32q-76 0 -131 28.5t-85 78.5t-30 115v12q0 64 30.5 112.5t88.5 76t141 29.5l-69 -55l2 110h159zM397 730v-161
h-182v161h182z" />
    <glyph glyph-name="r.salt" horiz-adv-x="440" 
d="M73 0v548h122v-222h-2q0 87 20.5 137t56.5 71t83 21h80v-138h-112q-43 0 -65.5 -22.5t-22.5 -66.5v-328h-160z" />
    <glyph glyph-name="racute.salt" horiz-adv-x="440" 
d="M73 0v548h122v-222h-2q0 87 20.5 137t56.5 71t83 21h80v-138h-112q-43 0 -65.5 -22.5t-22.5 -66.5v-328h-160zM180 612l90 209h164l-114 -209h-140z" />
    <glyph glyph-name="rcaron.salt" horiz-adv-x="440" 
d="M73 0v548h122v-222h-2q0 87 20.5 137t56.5 71t83 21h80v-138h-112q-43 0 -65.5 -22.5t-22.5 -66.5v-328h-160zM155 612l-103 209h135l63 -134h12l55 134h131l-95 -209h-198z" />
    <glyph glyph-name="uni0157.salt" horiz-adv-x="440" 
d="M73 0v548h122v-222h-2q0 87 20.5 137t56.5 71t83 21h80v-138h-112q-43 0 -65.5 -22.5t-22.5 -66.5v-328h-160zM141 -44q44 0 69 -30.5t25 -85.5v-6q0 -67 -39 -102t-105 -35h-23v77h25q32 0 45.5 15.5t12.5 37.5v29l25 -3q-5 -13 -18.5 -22t-33.5 -9q-27 0 -44 16.5
t-17 47.5q0 37 23.5 53.5t54.5 16.5z" />
    <glyph glyph-name="uni17DB.tnum" horiz-adv-x="676" 
d="M332 -7q-68 0 -117 17.5t-75 52t-26 83.5t27 83.5t78 52.5t126 18v-97q-52 0 -77 -13t-25 -42q0 -28 23 -42.5t63 -14.5h44l-37 -38l3 314h125v-374h-132zM186 339v96h393v-96h-393zM339 406v33q0 9 -4 16t-15 13q-20 11 -45.5 25t-44.5 24q-43 25 -53 67t9 88
q19 45 53.5 60t99.5 15q43 0 85 -3t84 -10v-111q-43 7 -86 10.5t-89 3.5q-17 0 -23.5 -3t-8.5 -10q-3 -7 -1.5 -13t9.5 -11q7 -4 24 -13t36 -19.5t32 -17.5q32 -17 47.5 -42.5t15.5 -68.5v-33h-125z" />
    <glyph glyph-name="uni030A.case" 
d="M130 762q-58 0 -94 31.5t-36 81.5t36 81t94 31q59 0 95 -31t36 -81t-36 -81.5t-95 -31.5zM130 834q21 0 33 11.5t12 29.5q0 17 -12 28.5t-33 11.5t-32.5 -11.5t-11.5 -28.5q0 -18 11.5 -29.5t32.5 -11.5z" />
    <glyph glyph-name="seven.dnom" horiz-adv-x="370" 
d="M87 0l138 303l-7 9h-194v90h328v-65l-148 -337h-117zM24 250v152h89v-152h-89z" />
    <glyph glyph-name="seven.numr" horiz-adv-x="370" 
d="M87 255l138 303l-7 9h-194v90h328v-65l-148 -337h-117zM24 505v152h89v-152h-89z" />
    <glyph glyph-name="seven.salt" horiz-adv-x="583" 
d="M171 0v141q0 148 59 256t171 172l-7 21h-377v140h539v-206q-83 -47 -132 -102t-69.5 -124t-20.5 -157v-141h-163z" />
    <glyph glyph-name="seven.tnum" horiz-adv-x="676" 
d="M173 0l266 581l-11 15h-369v134h567v-104l-279 -626h-174zM59 469v261h132v-261h-132z" />
    <glyph glyph-name="seven.tnum.salt" horiz-adv-x="676" 
d="M219 0v141q0 150 61 258t173 170l-7 21h-385v140h547v-208q-84 -45 -133.5 -99.5t-71.5 -123.5t-22 -158v-141h-162z" />
    <glyph glyph-name="six.dnom" horiz-adv-x="413" 
d="M215 -12q-65 0 -104.5 27t-57 71.5t-17.5 94.5v25q0 100 54.5 149.5t158.5 49.5q19 0 41 -1t44 -3v-92q-4 1 -18.5 2t-33.5 1.5t-37 0.5q-46 0 -69.5 -14t-31 -39t-7.5 -59v-36l-23 -15q1 63 38 92.5t92 29.5q65 0 103.5 -37t38.5 -100q0 -68 -47.5 -107.5t-123.5 -39.5z
M212 79q32 0 51 14t19 40t-18.5 40.5t-48.5 14.5q-26 0 -49 -12t-23 -43q0 -17 8 -29t23.5 -18.5t37.5 -6.5z" />
    <glyph glyph-name="six.numr" horiz-adv-x="413" 
d="M215 243q-65 0 -104.5 27t-57 71.5t-17.5 94.5v25q0 100 54.5 149.5t158.5 49.5q19 0 41 -1t44 -3v-92q-4 1 -18.5 2t-33.5 1.5t-37 0.5q-46 0 -69.5 -14t-31 -39t-7.5 -59v-36l-23 -15q1 63 38 92.5t92 29.5q65 0 103.5 -37t38.5 -100q0 -68 -47.5 -107.5t-123.5 -39.5z
M212 334q32 0 51 14t19 40t-18.5 40.5t-48.5 14.5q-26 0 -49 -12t-23 -43q0 -17 8 -29t23.5 -18.5t37.5 -6.5z" />
    <glyph glyph-name="six.tnum" horiz-adv-x="676" 
d="M354 -21q-79 0 -135.5 27t-92.5 75t-53 111.5t-17 136.5v43q0 180 91.5 272t266.5 92q36 0 71 -2t67 -6v-138q-31 4 -68 6t-75 2q-79 0 -123 -27t-61.5 -79.5t-17.5 -129.5v-100h-33q1 73 29 123t78 76t114 26q76 0 130 -30.5t83 -85.5t29 -130q0 -79 -35.5 -138
t-99 -91.5t-148.5 -32.5zM349 115q41 0 70 16t44.5 44t15.5 64q0 38 -15 65.5t-43.5 43t-69.5 15.5q-35 0 -66 -14t-49.5 -41.5t-18.5 -68.5q0 -35 14.5 -63.5t44 -44.5t73.5 -16z" />
    <glyph glyph-name="sora.tnum" horiz-adv-x="676" 
d="M179 0h-170l246 444h166l245 -444h-170l-158 312zM10 444v97h656v-97h-656zM261 489v185h154v-185h-154zM10 633v97h656v-97h-656z" />
    <glyph glyph-name="sterling.tnum" horiz-adv-x="676" 
d="M135 0v486q0 123 74.5 189t202.5 66q22 0 53.5 -1.5t62.5 -4t49 -4.5v-130q-18 2 -50 4.5t-63.5 4t-51.5 1.5q-48 0 -77 -14.5t-41.5 -44.5t-12.5 -73v-479h-146zM67 0v124h467v-124h-467zM73 313v107h442v-107h-442zM498 0v212h125v-212h-125z" />
    <glyph glyph-name="t.salt" horiz-adv-x="464" 
d="M275 -14q-88 0 -138 49t-50 139v320h149v-324q0 -27 13.5 -41.5t35.5 -14.5q23 0 35.5 14.5t12.5 41.5h116q0 -84 -42.5 -134t-131.5 -50zM6 431v117h426v-117h-426zM87 502v200h149v-200h-149z" />
    <glyph glyph-name="tbar.salt" horiz-adv-x="464" 
d="M275 -14q-88 0 -138 49t-50 139v320h149v-324q0 -27 13.5 -41.5t35.5 -14.5q23 0 35.5 14.5t12.5 41.5h116q0 -84 -42.5 -134t-131.5 -50zM6 431v117h426v-117h-426zM87 502v200h149v-200h-149zM26 249v86h366v-86h-366z" />
    <glyph glyph-name="tcaron.salt" horiz-adv-x="464" 
d="M275 -14q-88 0 -138 49t-50 139v320h149v-324q0 -27 13.5 -41.5t35.5 -14.5q23 0 35.5 14.5t12.5 41.5h116q0 -84 -42.5 -134t-131.5 -50zM6 431v117h426v-117h-426zM87 502v200h149v-200h-149zM297 604v258h137l-17 -258h-120z" />
    <glyph glyph-name="uni0163.salt" horiz-adv-x="464" 
d="M275 -14q-88 0 -138 49t-50 139v320h149v-324q0 -27 13.5 -41.5t35.5 -14.5q23 0 35.5 14.5t12.5 41.5h116q0 -84 -42.5 -134t-131.5 -50zM6 431v117h426v-117h-426zM87 502v200h149v-200h-149zM255 -270q-23 0 -45 4t-35 8v98q14 -5 33.5 -8.5t40.5 -3.5q28 0 42 7.5
t14 20.5q0 11 -9.5 17t-32.5 6h-53v134h97v-99l-56 43h13q69 0 107.5 -26.5t38.5 -77.5q0 -52 -39.5 -87.5t-115.5 -35.5z" />
    <glyph glyph-name="uni021B.salt" horiz-adv-x="464" 
d="M275 -14q-88 0 -138 49t-50 139v320h149v-324q0 -27 13.5 -41.5t35.5 -14.5q23 0 35.5 14.5t12.5 41.5h116q0 -84 -42.5 -134t-131.5 -50zM6 431v117h426v-117h-426zM87 502v200h149v-200h-149zM260 -44q44 0 69 -30.5t25 -85.5v-6q0 -67 -39 -102t-105 -35h-23v77h25
q32 0 45.5 15.5t12.5 37.5v29l25 -3q-5 -13 -18.5 -22t-33.5 -9q-27 0 -44 16.5t-17 47.5q0 37 23.5 53.5t54.5 16.5z" />
    <glyph glyph-name="three.dnom" horiz-adv-x="381" 
d="M187 -11q-75 0 -118 38.5t-43 94.5h106q0 -19 14.5 -30.5t40.5 -11.5t40 13.5t14 32.5q0 20 -14 34t-40 14q-16 0 -28.5 -5t-21.5 -13l-48 82l112 60l-6 10h-151v94h286v-98l-135 -74l-56 16q12 2 25 3t24 1q74 0 117 -33t43 -90v-7q0 -56 -42.5 -93.5t-118.5 -37.5z" />
    <glyph glyph-name="three.numr" horiz-adv-x="381" 
d="M187 244q-75 0 -118 38.5t-43 94.5h106q0 -19 14.5 -30.5t40.5 -11.5t40 13.5t14 32.5q0 20 -14 34t-40 14q-16 0 -28.5 -5t-21.5 -13l-48 82l112 60l-6 10h-151v94h286v-98l-135 -74l-56 16q12 2 25 3t24 1q74 0 117 -33t43 -90v-7q0 -56 -42.5 -93.5t-118.5 -37.5z" />
    <glyph glyph-name="three.tnum" horiz-adv-x="676" 
d="M331 -19q-85 0 -148 31t-97 85.5t-34 122.5h159q0 -46 32.5 -74.5t87.5 -28.5q38 0 64.5 14t41.5 38.5t15 55.5q0 48 -32.5 79t-87.5 31q-27 0 -51 -9.5t-41 -23.5l-76 123l225 148l-9 17h-297v140h498v-152l-257 -164l-89 21q22 8 48 12t48 4q86 0 149 -28t96.5 -78
t33.5 -118v-12q0 -67 -33.5 -120t-96.5 -83.5t-149 -30.5z" />
    <glyph glyph-name="tildecomb.case" 
d="M291 786q-31 0 -53.5 8t-40 18.5t-36.5 18.5t-44 8q-32 0 -55.5 -11.5t-37.5 -28.5l-24 108q17 21 46 35.5t71 14.5q32 0 54 -8t40 -18.5t37 -18.5t44 -8q32 0 55.5 12t37.5 29l24 -109q-17 -21 -46 -35.5t-72 -14.5z" />
    <glyph glyph-name="two.dnom" horiz-adv-x="379" 
d="M39 0v84q0 40 21 67t71 47l61 25q22 9 34.5 21.5t12.5 35.5q0 18 -13 30.5t-38 12.5t-37 -12.5t-12 -33.5h-106q0 58 38.5 97.5t116.5 39.5q77 0 116.5 -38t39.5 -91v-7q0 -44 -24.5 -75.5t-87.5 -56.5l-61 -25q-15 -5 -23.5 -11.5t-8.5 -18.5v-21l-25 20h228v-90h-303z
" />
    <glyph glyph-name="two.numr" horiz-adv-x="379" 
d="M39 255v84q0 40 21 67t71 47l61 25q22 9 34.5 21.5t12.5 35.5q0 18 -13 30.5t-38 12.5t-37 -12.5t-12 -33.5h-106q0 58 38.5 97.5t116.5 39.5q77 0 116.5 -38t39.5 -91v-7q0 -44 -24.5 -75.5t-87.5 -56.5l-61 -25q-15 -5 -23.5 -11.5t-8.5 -18.5v-21l-25 20h228v-90h-303
z" />
    <glyph glyph-name="two.tnum" horiz-adv-x="676" 
d="M78 1v151q0 46 16 81.5t51.5 63t93.5 51.5l122 49q46 19 66 47.5t20 71.5t-28.5 71t-81.5 28q-52 0 -81 -29t-29 -78h-158q0 69 30 124.5t90 87.5t148 32t147.5 -31.5t90.5 -83.5t31 -115v-13q0 -85 -49 -142t-145 -95l-121 -50q-31 -13 -42.5 -26.5t-11.5 -35.5v-52
l-37 33h407v-140h-529z" />
    <glyph glyph-name="u.salt" horiz-adv-x="625" 
d="M312 -19q-81 0 -138 28t-87.5 83t-30.5 137v319h161v-328q0 -43 26.5 -69.5t68.5 -26.5q44 0 70 26.5t26 69.5v328h161v-319q0 -82 -30.5 -137t-87.5 -83t-139 -28z" />
    <glyph glyph-name="uacute.salt" horiz-adv-x="625" 
d="M312 -19q-81 0 -138 28t-87.5 83t-30.5 137v319h161v-328q0 -43 26.5 -69.5t68.5 -26.5q44 0 70 26.5t26 69.5v328h161v-319q0 -82 -30.5 -137t-87.5 -83t-139 -28zM233 599l90 209h164l-114 -209h-140z" />
    <glyph glyph-name="ubreve.salt" horiz-adv-x="625" 
d="M312 -19q-81 0 -138 28t-87.5 83t-30.5 137v319h161v-328q0 -43 26.5 -69.5t68.5 -26.5q44 0 70 26.5t26 69.5v328h161v-319q0 -82 -30.5 -137t-87.5 -83t-139 -28zM313 593q-86 0 -132.5 53t-49.5 162h117q2 -56 18 -79.5t47 -23.5t48.5 23.5t19.5 79.5h113
q-3 -109 -49 -162t-132 -53z" />
    <glyph glyph-name="ucircumflex.salt" horiz-adv-x="625" 
d="M312 -19q-81 0 -138 28t-87.5 83t-30.5 137v319h161v-328q0 -43 26.5 -69.5t68.5 -26.5q44 0 70 26.5t26 69.5v328h161v-319q0 -82 -30.5 -137t-87.5 -83t-139 -28zM112 599l103 209h195l105 -209h-135l-62 134h-13l-61 -134h-132z" />
    <glyph glyph-name="udieresis.salt" horiz-adv-x="625" 
d="M312 -19q-81 0 -138 28t-87.5 83t-30.5 137v319h161v-328q0 -43 26.5 -69.5t68.5 -26.5q44 0 70 26.5t26 69.5v328h161v-319q0 -82 -30.5 -137t-87.5 -83t-139 -28zM205 618q-45 0 -65 24t-20 59q0 36 20 60t65 24q44 0 64 -24t20 -60q0 -35 -20 -59t-64 -24zM420 618
q-45 0 -65 24t-20 59q0 36 20 60t65 24q44 0 64 -24t20 -60q0 -35 -20 -59t-64 -24z" />
    <glyph glyph-name="ugrave.salt" horiz-adv-x="625" 
d="M312 -19q-81 0 -138 28t-87.5 83t-30.5 137v319h161v-328q0 -43 26.5 -69.5t68.5 -26.5q44 0 70 26.5t26 69.5v328h161v-319q0 -82 -30.5 -137t-87.5 -83t-139 -28zM244 599l-113 209h169l88 -209h-144z" />
    <glyph glyph-name="uhungarumlaut.salt" horiz-adv-x="625" 
d="M312 -19q-81 0 -138 28t-87.5 83t-30.5 137v319h161v-328q0 -43 26.5 -69.5t68.5 -26.5q44 0 70 26.5t26 69.5v328h161v-319q0 -82 -30.5 -137t-87.5 -83t-139 -28zM342 599l80 209h127l-91 -209h-116zM160 599l81 209h126l-91 -209h-116z" />
    <glyph glyph-name="umacron.salt" horiz-adv-x="625" 
d="M312 -19q-81 0 -138 28t-87.5 83t-30.5 137v319h161v-328q0 -43 26.5 -69.5t68.5 -26.5q44 0 70 26.5t26 69.5v328h161v-319q0 -82 -30.5 -137t-87.5 -83t-139 -28zM143 635v112h340v-112h-340z" />
    <glyph glyph-name="uogonek.salt" horiz-adv-x="625" 
d="M312 -19q-81 0 -138 28t-87.5 83t-30.5 137v319h161v-328q0 -43 26.5 -69.5t68.5 -26.5q44 0 70 26.5t26 69.5v328h161v-319q0 -82 -30.5 -137t-87.5 -83t-139 -28zM379 -242q-62 0 -99.5 33t-37.5 91q0 46 20.5 81.5t62.5 75.5l32 31l67 -70l-32 -33
q-17 -16 -26.5 -30.5t-9.5 -30.5q0 -17 11.5 -26t30.5 -9q26 0 45 8v-113q-11 -4 -29 -6t-35 -2z" />
    <glyph glyph-name="uring.salt" horiz-adv-x="625" 
d="M312 -19q-81 0 -138 28t-87.5 83t-30.5 137v319h161v-328q0 -43 26.5 -69.5t68.5 -26.5q44 0 70 26.5t26 69.5v328h161v-319q0 -82 -30.5 -137t-87.5 -83t-139 -28zM313 588q-57 0 -92.5 34.5t-35.5 87.5t35.5 87.5t92.5 34.5t92.5 -34.5t35.5 -87.5t-35.5 -87.5
t-92.5 -34.5zM313 665q21 0 32.5 12.5t11.5 32.5q0 19 -11.5 32t-32.5 13t-33 -12.5t-12 -32.5q0 -19 12 -32t33 -13z" />
    <glyph glyph-name="utilde.salt" horiz-adv-x="625" 
d="M312 -19q-81 0 -138 28t-87.5 83t-30.5 137v319h161v-328q0 -43 26.5 -69.5t68.5 -26.5q44 0 70 26.5t26 69.5v328h161v-319q0 -82 -30.5 -137t-87.5 -83t-139 -28zM391 611q-30 0 -50 8t-36.5 18t-33 17.5t-39.5 7.5q-26 0 -46.5 -10.5t-34.5 -25.5l-24 109
q17 19 42.5 32t63.5 13q30 0 50 -7.5t36 -17.5t33 -18t39 -8q27 0 47.5 10.5t35.5 25.5l23 -109q-17 -18 -43 -31.5t-63 -13.5z" />
    <glyph glyph-name="yen.tnum" horiz-adv-x="676" 
d="M239 298l-210 432h166l146 -314l-28 9h77l-31 -9l131 314h157l-193 -432h-215zM272 0v321h150v-321h-150zM70 146v81h550v-81h-550zM70 298v81h550v-81h-550z" />
    <glyph glyph-name="zero.dnom" horiz-adv-x="456" 
d="M229 -11q-69 0 -111.5 27.5t-61 72.5t-18.5 94v36q0 52 20 96.5t62.5 71.5t108.5 27t108 -27t62 -71.5t20 -96.5v-36q0 -49 -19 -94t-61 -72.5t-110 -27.5zM229 90q41 0 60 27t19 83q0 61 -19.5 86.5t-59.5 25.5q-41 0 -61 -25.5t-20 -84.5q0 -58 20 -85t61 -27z" />
    <glyph glyph-name="zero.numr" horiz-adv-x="456" 
d="M229 244q-69 0 -111.5 27.5t-61 72.5t-18.5 94v36q0 52 20 96.5t62.5 71.5t108.5 27t108 -27t62 -71.5t20 -96.5v-36q0 -49 -19 -94t-61 -72.5t-110 -27.5zM229 345q41 0 60 27t19 83q0 61 -19.5 86.5t-59.5 25.5q-41 0 -61 -25.5t-20 -84.5q0 -58 20 -85t61 -27z" />
    <glyph glyph-name="zero.tnum" horiz-adv-x="676" 
d="M338 -21q-100 0 -163 46t-93 127.5t-30 188.5v46q0 113 32 194.5t95.5 126t158.5 44.5t158.5 -44.5t95.5 -126t32 -194.5v-46q0 -107 -30 -188.5t-93 -127.5t-163 -46zM338 129q45 0 72.5 22.5t40 74.5t12.5 137q0 90 -13 142t-40.5 74t-71.5 22q-43 0 -71 -22t-41 -73.5
t-13 -140.5q0 -86 12.5 -138t40.5 -75t72 -23z" />
    </font>
</defs>
</svg>
